<svg width="38" height="41" viewBox="0 0 38 41" fill="none" xmlns="http://www.w3.org/2000/svg">
<path d="M29.4043 28.018C33.3858 23.0865 34.1764 17.6936 31.7675 12.0719C29.4467 6.65572 24.9599 3.74192 19.1605 3.33365C10.2916 2.70931 3.00547 9.77019 3.36245 18.6635C3.60578 24.7257 6.58223 29.0339 11.9768 31.7215C12.3619 31.9133 12.7617 32.0766 13.1406 32.2794C13.2227 32.3234 13.2442 32.4804 13.2911 32.5866C10.3597 33.5933 7.53708 32.9759 6.84587 31.1239C5.11306 31.3637 4.27461 30.6218 4.5337 28.6797C2.63911 28.4323 1.95871 27.4002 2.8084 25.4795C1.07308 24.8972 0.231665 23.9238 1.58728 22.1018C-0.162648 21.1928 -0.494178 20.0302 1.17833 18.5808C-0.0260239 17.5987 -0.590168 16.543 0.875683 15.3881C1.14337 15.1772 1.25395 14.8949 1.06382 14.5767C0.141516 13.033 0.912791 12.1682 2.3451 11.5972C1.80319 9.92723 1.98184 8.6713 4.09708 8.45244C3.80693 6.71101 4.26207 5.54862 6.38185 5.79695C6.48423 3.93234 7.23761 2.87549 9.29561 3.58263C9.70342 1.76406 10.6394 0.997201 12.4669 2.00328C13.3268 0.30935 14.4595 -0.269481 15.9983 1.32461C17.0822 -0.347705 18.2674 -0.427426 19.5574 1.03367C20.9725 -0.0707078 22.1998 -0.0912912 23.0396 1.75199C24.6663 0.871362 25.8361 1.14188 26.3259 3.11927C27.7809 2.85607 29.1524 2.79499 29.2705 4.8013C29.2785 4.93773 29.637 5.16248 29.832 5.16196C31.6391 5.15707 31.9849 6.26062 31.8106 7.84127C33.4057 7.95532 34.2639 8.67531 33.813 10.3764C33.7209 10.7239 33.8459 10.9916 34.1839 11.1138C36.0108 11.7745 35.5629 12.9917 34.8768 14.255C36.0943 15.0448 36.7941 15.9526 35.784 17.3239C35.5396 17.6556 35.4988 18.0024 35.7958 18.3347C36.6143 19.2504 36.5468 20.1042 35.6194 20.8992C35.5725 20.9395 35.4763 20.9972 35.4833 21.015C36.2067 22.8383 34.6212 24.0759 34.3668 25.5878C34.1323 26.9821 33.9282 27.8475 32.2817 27.8224C32.654 29.7027 32.0813 30.8118 29.9646 30.6507C29.8904 32.3984 29.2152 32.8666 27.3139 32.9798C25.5204 33.0866 23.7566 33.2191 21.8503 32.9402C24.7032 31.814 27.3135 30.4213 29.4043 28.018Z" fill="black"/>
<path d="M14.8691 36.0345C21.4948 36.0369 27.9348 36.0394 34.3748 36.0428C34.8082 36.0431 35.2416 36.0538 35.6751 36.0553C36.6123 36.0586 37.2468 36.4277 37.2578 37.4522C37.269 38.4867 36.6221 38.8138 35.6941 38.8712C29.89 39.2305 24.0876 39.6181 18.2831 39.9701C15.5039 40.1387 12.7177 40.2019 9.94143 40.4048C8.28984 40.5255 7.74633 39.7771 7.69999 38.2402C7.65265 36.6697 8.21556 35.9385 9.85425 36.0198C11.4603 36.0994 13.0734 36.0356 14.8691 36.0345Z" fill="black"/>
<path d="M11.998 26.6858C12.4233 26.1621 12.4368 26.1213 12.8429 26.2556C14.6415 26.8505 16.3744 26.5461 18.092 25.9252C19.613 25.3754 20.2209 24.5017 19.6273 22.7928C18.8455 20.5418 19.7802 18.4622 21.7486 17.4991C23.6528 16.5674 26.0637 17.2123 27.3613 19.0004C28.3879 20.415 28.2033 23.0018 26.937 24.9477C24.1376 29.2491 18.2115 30.4695 13.4409 27.7147C12.9617 27.438 12.5273 27.0838 11.998 26.6858Z" fill="#ED2424"/>
<path d="M16.1892 18.1646C18.0993 21.4334 16.8878 24.4947 13.5137 25.3341C12.7447 25.5253 12.0589 25.4307 11.3562 25.1123C8.24467 23.7019 6.67809 20.2025 7.35643 16.1424C7.96204 12.5177 11.2296 8.85615 14.5382 8.45996C13.3543 10.1607 12.0998 11.5741 11.8212 13.5342C11.4997 15.796 11.6054 16.1395 13.8729 16.7955C14.7137 17.0387 15.5193 17.3463 16.1892 18.1646Z" fill="black"/>
<path d="M27.1966 16.4269C26.5217 15.6947 25.9378 15.0584 25.3208 14.4561C24.1171 13.2811 23.0473 13.3122 21.8493 14.6122C20.2702 16.3259 18.5817 16.6402 16.8516 15.8164C15.1408 15.0016 14.1946 13.2595 14.3618 11.2319C14.5183 9.33309 15.7202 8.05189 17.9036 7.45632C21.0694 6.59273 24.9422 8.11577 27.1489 11.1962C28.9048 13.6474 29.5449 16.3721 28.8339 19.8413C28.1849 18.4684 27.7288 17.5033 27.1966 16.4269Z" fill="black"/>
<path d="M11.9288 33.4407C18.8277 33.7249 25.5641 33.5586 32.2621 34.287C32.5723 34.3207 32.7658 34.6185 32.8075 35.0222C32.3758 35.8774 31.5332 35.5191 30.8704 35.5201C23.9517 35.5312 17.0329 35.5167 10.1144 35.4743C8.84919 35.4665 7.83871 35.6842 7.22777 36.9747C6.62193 38.2544 5.37754 37.8374 4.45339 37.5932C3.13337 37.2443 3.34405 35.9906 3.36858 34.9501C3.39465 33.8446 3.98255 33.1739 5.09029 33.1918C7.31013 33.2275 9.52852 33.3529 11.9288 33.4407Z" fill="black"/>
</svg>
