<svg width="313" height="258" viewBox="0 0 313 258" fill="none" xmlns="http://www.w3.org/2000/svg">
<path d="M235.846 0.353798C257.44 0.0595703 278.795 0.0595703 300.617 0.0595703C302.098 1.26516 303.888 1.72176 304.32 3.79546C303.415 5.29573 302.014 5.61542 300.526 6.42649C298.794 7.04992 297.129 5.70607 295.693 7.43056C294.231 9.67487 291.809 8.09818 290.016 9.53882C288.894 10.105 288.61 10.8532 288.321 11.9916C286.881 13.349 284.035 11.1151 283.762 14.681C279.175 21.1857 276.871 21.7777 267.901 18.8806C267.376 18.6501 267.179 18.5297 266.758 18.1497C263.796 15.1417 259.182 16.0723 256.656 12.8592C256.365 12.4891 255.559 12.5211 255.352 12.9775C253.688 16.6461 250.521 14.6951 247.681 15.1975C247.207 15.5078 247.02 15.6393 246.541 15.9564C246.041 16.2502 245.834 16.3584 245.294 16.5835C244.729 16.7339 244.495 16.7673 243.909 16.7829C240.625 15.0638 237.655 16.9716 234.381 16.523C233.495 15.8562 233.275 15.1918 233.292 14.0962C233.427 13.5304 233.516 13.3162 233.824 12.8397C235.379 11.5855 237.198 11.2309 238.104 9.28501C238.415 8.12399 237.935 7.60603 236.984 6.98491C235.083 4.96284 234.361 2.98421 235.846 0.353798Z" fill="#C70807"/>
<path d="M219.29 11.5363C219.364 10.7949 219.6 10.0088 220.108 9.74487C224.806 7.30119 229.62 5.04493 233.041 0.389751C233.835 0.0595703 234.585 0.0595703 235.71 0.0595703C235.944 2.33892 235.882 4.59925 237.695 6.77797C237.277 9.10192 235.515 9.22211 233.666 9.77432C229.607 11.5614 225.591 11.4902 221.29 11.8092C220.486 11.8987 220.029 11.8492 219.29 11.5363Z" fill="#700303"/>
<path d="M267.068 17.7543C263.601 16.7674 258.878 15.0913 256.613 15.5274C252.936 16.2354 249.997 15.3334 246.355 14.9544C246.323 13.6645 247.325 12.6788 248.454 12.9822C251.024 13.6734 254.115 16.8004 254.564 10.9543C254.579 10.7576 256.57 10.7259 257.695 12.0758C259.534 14.2835 262.21 15.7775 265.38 14.8152C269.116 13.6812 267.111 16.1683 267.068 17.7543Z" fill="#EE898D"/>
<path d="M233.08 9.4373C234.713 8.74047 235.997 8.09177 237.529 7.2855C238.585 7.2611 240.137 6.61425 239.155 8.81109C238.167 11.0413 236.221 11.6645 234.287 12.8257C234.007 12.9941 234.066 12.9605 234.033 12.9509C232.899 14.7294 231.134 15.7978 229.252 17.242C228.515 17.554 228.063 17.6636 227.255 17.7303C226.452 17.5233 226.08 17.2422 225.646 16.5373C225.731 11.6133 229.845 11.2075 233.08 9.4373Z" fill="#DF7F82"/>
<path d="M228.628 17.0361C230.3 15.4581 231.826 14.2495 233.677 12.9912C233.982 13.6317 233.964 14.3219 233.872 15.3508C232.377 16.4374 230.955 17.1853 229.195 18.02C228.731 17.873 228.607 17.6392 228.628 17.0361Z" fill="#990304"/>
<path d="M234.369 13.0278C234.886 11.0403 236.814 10.3548 238.756 9.2041C239.371 12.3259 236.766 12.3825 234.369 13.0278Z" fill="#990304"/>
<path d="M233.187 9.14355C231.952 12.4333 227.713 11.8913 226.126 15.2156C223.817 19.9363 220.146 22.0506 215.175 21.9099C216.37 18.3082 219.867 17.7201 222.128 15.6458C223.042 14.8077 224.945 14.6251 224.522 12.9119C224.195 11.5846 222.413 12.3495 221.317 11.321C225.045 10.3426 228.996 9.62031 233.187 9.14355Z" fill="#25090B"/>
<path d="M0.3732 30.292C0.0857284 20.953 0.212019 11.8437 0.00312742 2.74216C-0.0540876 0.249255 0.66516 -0.0236276 2.86937 0.00146441C13.9612 0.127734 25.0552 0.0594164 36.6171 0.0594164C38.7572 2.33407 33.91 3.95563 36.5783 6.58649C38.2802 8.26461 39.5914 10.5405 38.7638 13.5978C37.4938 16.2945 34.5238 16.9527 32.8819 19.3286C35.7589 20.199 36.9769 18.1161 39.0554 17.3251C40.5534 16.8047 41.7416 16.7921 43.2836 17.0853C44.8677 17.668 46.1522 17.6476 47.4626 17.5516C48.5523 17.4717 49.8067 18.1031 49.4855 19.0705C48.3305 22.5493 50.1674 21.0296 51.5872 20.5113C52.3747 20.2238 53.1906 20.4787 54.2824 20.8946C57.5487 22.2443 57.1548 27.3321 61.8123 26.9442C63.6185 26.9741 65.1683 27.5803 66.5074 26.6666C69.2262 24.8117 71.8227 25.5641 74.7595 26.96C75.4815 27.3174 75.8443 27.5957 76.3334 28.2309C76.8561 30.2884 77.2319 32.0443 77.5682 34.1506C77.4451 34.976 77.2983 35.6745 76.9256 35.7704C70.5145 37.4203 71.0063 42.0822 71.9804 47.2981C71.9695 48.6979 71.9264 49.7695 72.5985 51.0558C72.7807 51.8108 72.7801 52.2545 72.6115 53.0218C71.7438 54.4275 71.3867 55.6012 71.2978 56.9526C71.1097 59.8092 69.1537 60.2271 66.4643 59.803C65.7301 59.4481 65.3757 59.1512 64.9148 58.481C64.9294 52.7081 60.1192 54.0188 56.9835 52.4696C55.3436 49.308 52.5885 48.1108 49.8411 47.0174C44.7582 44.9944 40.1636 42.0759 35.1587 39.2145C33.6903 37.4202 31.7332 38.0977 29.9655 37.2339C29.133 33.3998 27.7988 31.8732 23.4758 32.703C19.5502 33.4565 16.061 30.3981 12.5287 28.6112C10.8697 27.772 9.41343 25.8464 6.89425 27.4718C5.51049 28.5382 4.60799 29.6339 3.1261 30.5962C2.05672 30.9378 1.34291 30.8805 0.3732 30.292Z" fill="#C10306"/>
<path d="M5.3418 235.036C3.676 236.897 2.20752 238.45 0.412488 240.031C0.0859375 225.705 0.0859375 211.351 0.0859375 196.528C1.48968 194.581 3.39107 194.549 5.17662 194.544C9.47994 194.53 13.2722 193.155 17.0161 190.456C17.5112 190.077 17.7249 189.943 18.2934 189.666C24.5775 188.538 30.2295 186.607 35.6506 184.1C44.3532 180.075 53.7596 179.079 63.3421 177.508C65.4164 180.712 62.8653 181.766 61.0674 183.028C56.595 186.167 56.5468 186.155 61.0759 188.741C62.9857 189.831 64.6403 191.17 65.8083 193.025C67.3402 195.457 66.401 196.876 63.7411 196.998C61.2824 197.11 58.7657 197.116 56.3471 196.987C49.8108 196.639 44.0101 199.848 38.2411 200.444C41.846 201.676 46.5959 201.548 50.2394 205.181C50.9097 208.551 52.0212 211.33 54.3543 213.855C54.0261 214.867 53.5205 215.344 52.5556 215.818C49.5953 216.098 46.9698 216.301 44.3526 216.528C41.491 216.777 39.2143 217.896 39.8439 221.723C41.1038 223.717 41.8484 225.599 42.9109 227.694C44.7287 229.422 44.0086 231.253 43.089 232.344C42.3145 233.263 41.0981 231.863 40.1368 231.321C36.4814 229.262 32.3167 232.254 28.2517 230.112C24.7322 231.676 21.6697 230.3 18.7205 229.646C14.8417 228.785 11.5614 228.704 9.29509 232.64C8.51515 233.994 7.10382 234.592 5.3418 235.036Z" fill="#C70807"/>
<path d="M163.617 0.0595703C160.709 4.4774 155.965 7.03273 151.512 10.1697C146 14.0528 139.999 16.2076 133.629 18.6314C126.596 20.7672 120.772 24.1759 116.495 30.3543C116.222 30.847 116.107 31.0393 115.807 31.5107C114.329 33.3606 113.798 35.2689 113.15 37.4985C112.45 39.9339 111.288 41.7373 109.753 43.7536C108.016 45.0573 106.667 45.152 105.478 43.0922C106.417 39.2036 103.687 36.6958 102.875 33.2793C102.676 31.0549 103.017 29.3053 104.101 27.3433C105.265 25.8398 106.382 24.8639 108.177 24.2394C113.426 23.5729 114.941 19.2933 117.504 15.7033C118.839 13.3382 121.01 12.924 123.344 12.1208C127.251 11.9118 129.956 9.95773 132.832 7.62648C133.944 6.76849 134.624 5.95965 135.327 4.75389C136.466 3.30253 136.64 1.69161 137.862 0.294135C146.44 0.0595703 154.794 0.0595703 163.617 0.0595703Z" fill="#0C0B0B"/>
<path d="M9.21072 82.7729C9.16398 83.5327 9.07514 83.9673 8.81098 84.6895C7.68874 89.5653 6.6855 94.1067 0.395913 94.2835C0.0859375 84.7053 0.0859375 75.3511 0.0859375 65.5282C6.13804 63.9194 7.39417 61.8542 5.81304 55.6018C5.48688 54.312 4.97144 53.074 4.66688 51.7792C3.56379 47.0896 4.84031 45.6731 9.72379 46.3378C12.0456 46.6538 14.3679 46.5408 16.6869 46.6777C21.6647 46.9715 22.0826 47.7144 19.8505 52.1401C19.6327 52.5719 19.7112 53.1191 19.8332 53.979C19.9889 54.8236 20.0217 55.31 19.9796 56.1558C19.8357 57.2023 19.6163 57.8627 19.2775 58.8324C18.6924 60.3267 17.935 61.3519 17.1861 62.7232C16.7 63.678 16.4022 64.3847 16.3073 65.4543C16.2871 65.9404 16.2815 66.1364 16.2678 66.631C16.2509 67.1315 16.242 67.3335 16.2064 67.8421C16.1453 68.3538 16.1109 68.5589 15.9844 69.0653C15.7915 69.5524 15.6907 69.7381 15.3563 70.1392C14.9146 70.3933 14.7065 70.432 14.2909 70.2304C11.2625 72.4662 12.2006 76.5066 10.0472 79.6659C9.32101 80.7224 9.05532 81.5286 9.21072 82.7729Z" fill="#060505"/>
<path d="M54.8386 21.5501C52.5536 21.1643 50.8141 21.3871 49.3566 23.2112C48.7448 23.9768 47.8423 25.4701 46.6118 24.2779C45.5417 23.2409 46.643 22.2045 47.3509 21.3067C47.9297 20.5724 48.9205 20.0362 48.5909 18.8281C47.156 17.1017 45.5885 21.6306 44.1288 18.4391C42.8126 16.4209 41.0472 15.494 38.5485 14.4694C38.5983 11.451 37.4221 9.26055 35.7873 7.71196C32.4704 4.56984 32.9194 2.47211 37.0151 0.408588C46.4398 0.0595703 55.794 0.0595703 65.6169 0.0595703C67.154 1.49245 66.2328 2.35162 64.8545 3.34358C64.2843 3.57508 64.0467 3.63795 63.4454 3.72322C61.8361 3.58806 60.595 3.36163 59.3337 3.4935C59.3105 3.49593 57.7995 3.16138 59.0527 4.00102C59.2817 4.15442 59.6665 4.0792 60.3168 4.18205C61.7535 4.57682 62.6496 5.28607 63.9251 5.99286C64.8058 6.47196 65.385 6.80713 66.2843 7.26759C67.1869 7.77519 67.7198 8.20524 68.2804 9.07024C68.2569 10.9255 67.2215 11.7351 65.9005 12.0456C62.4032 12.8678 59.8914 15.2048 57.0891 17.6704C56.1814 19.0075 55.8599 20.2941 54.8386 21.5501Z" fill="#AE0106"/>
<path d="M6.07022 27.3168C7.54243 23.3719 9.86597 25.3789 11.6354 26.4695C14.6148 28.3059 17.5981 30.0655 20.9373 31.1331C22.0159 31.478 23.5345 32.1712 24.228 31.7283C30.9217 27.4531 29.9688 32.5752 30.1035 36.6826C30.4926 38.9233 29.6554 40.4856 28.4698 41.8799C27.5401 42.9731 27.183 44.094 27.8362 45.804C27.8132 48.1015 26.6407 48.9049 24.4699 49.0922C18.6833 46.0881 12.6169 47.0166 6.87025 46.1272C5.09613 45.8526 4.28849 47.0372 3.95363 48.7359C3.60391 50.51 3.14636 52.3555 0.430469 52.2751C0.0859376 48.3665 0.0859375 44.6736 0.0859375 40.5201C2.6927 36.2078 4.26557 31.8529 6.07022 27.3168Z" fill="#A30102"/>
<path d="M0.0859375 94.5284C4.71297 92.8968 6.85789 89.5092 8.31944 85.1016C11.2031 89.3879 7.63036 93.0863 7.13302 97.137C6.05233 105.939 4.55451 114.691 3.10412 123.444C2.76779 125.473 2.87072 127.789 0.475413 129.14C0.0859374 117.705 0.0859375 106.351 0.0859375 94.5284Z" fill="#282828"/>
<path d="M0.395455 192.221C0.0859375 189.359 0.0859375 186.659 0.0859375 183.509C4.72535 178.786 10.4232 176.887 16.4961 176.1C18.3151 175.865 19.9265 175.013 22.1885 175.778C22.6183 177.092 22.6153 177.543 22.6567 178.333C21.4733 183.021 21.4733 183.021 16.433 183.953C15.7761 184.066 16.1798 183.237 16.1817 183.903C17.942 183.728 19.6759 183.25 21.7633 183.627C22.6331 185.999 20.8441 186.103 19.5896 186.323C18.416 186.529 17.9474 186.871 18.0451 188.298C12.2399 190.381 6.57872 191.858 0.395455 192.221Z" fill="#C70807"/>
<path d="M0.0859375 52.5229C1.22331 52.0145 2.02663 51.4784 2.16942 50.3283C2.80428 45.2149 6.23047 44.3705 10.4115 45.1447C14.7581 45.9496 19.3871 45.4186 23.7684 47.9268C24.2259 51.5989 22.3888 53.8936 19.0824 55.2947C16.7741 52.3942 18.4915 50.656 21.0136 48.6861C16.1627 47.4967 11.6725 48.3621 7.35143 47.3414C4.5618 46.6825 5.33327 49.0108 5.78964 50.6284C6.85458 54.403 8.79366 57.933 7.61982 62.1939C6.07818 67.7899 5.99901 67.9714 0.445784 65.1059C0.0859374 61.0351 0.0859375 57.0106 0.0859375 52.5229Z" fill="#700303"/>
<path d="M212.952 10.3167C217.156 6.79724 221.396 3.67882 225.861 0.309982C228.128 0.0595703 230.169 0.0595703 232.649 0.0595703C232.595 3.82171 230.114 6.03119 227.02 7.70598C224.741 8.9395 222.121 9.58715 220.115 11.9677C216.88 14.8703 214.617 14.2178 212.952 10.3167Z" fill="#25090B"/>
<path d="M22.5422 176.317C19.4718 177.796 16.3789 177.067 13.4702 177.524C8.85567 178.248 4.93414 180.935 0.444065 183.02C0.0859374 182.615 0.0859375 182.17 0.0859375 181.393C6.38024 177.519 12.9165 174.657 20.606 173.825C22.4668 172.863 24.1453 171.881 25.0591 174.119C25.6918 175.667 24.4349 176.448 22.5422 176.317Z" fill="#BE0404"/>
<path d="M68.9331 0.409945C76.4403 0.0595704 83.7946 0.0595703 91.6175 0.0595703C92.6206 0.643348 92.8672 1.32903 92.7171 2.47397C91.2456 4.59068 89.2012 5.31237 87.3672 4.49013C82.9634 2.51574 78.3628 4.95196 73.9862 3.52507C73.4992 3.36629 72.7487 3.8493 71.73 3.9418C71.1203 3.89347 70.8775 3.8422 70.2979 3.62278C69.1439 2.74215 68.763 1.83844 68.9331 0.409945Z" fill="#AE0106"/>
<path d="M17.629 191.005C13.1005 196.051 6.92204 195.822 0.492344 196.102C0.0859375 195.615 0.0859375 195.171 0.0859375 194.393C1.37396 191.538 4.10609 191.82 6.19703 191.296C9.80981 190.39 13.594 189.996 17.629 191.005Z" fill="#EE898D"/>
<path d="M5.69988 27.0537C6.89455 27.2195 8.7951 27.5651 8.41208 27.8889C4.56066 31.1445 5.36795 37.2686 0.449764 40.0162C0.0859375 38.3453 0.0859375 36.631 0.0859375 34.4881C1.30558 33.1253 1.52031 31.4863 2.79006 30.2006C3.69032 28.9241 4.00218 27.5583 5.69988 27.0537Z" fill="#990304"/>
<path d="M18.0861 190.912C12.0366 191.046 6.40596 192.345 0.437724 193.903C0.0859375 193.615 0.0859375 193.171 0.0859375 192.393C5.51699 189.578 11.4785 189.373 17.5532 188.077C17.9209 188.078 18.3287 188.333 18.3601 188.558C18.3915 188.784 18.115 189.116 18.0048 189.288C17.8946 189.461 18.3064 189.5 18.5077 189.547C18.566 189.885 18.423 190.176 18.0861 190.912Z" fill="#BE0404"/>
<path d="M303.968 4.54592C303.348 2.76678 301.303 2.55599 301.13 0.389001C303.456 0.0595704 305.827 0.0595703 308.641 0.0595703C310.178 1.29324 310.483 2.6902 309.743 4.65667C308.328 6.30424 306.813 6.01921 304.919 5.75692C304.297 5.39518 304.089 5.18696 303.968 4.54592Z" fill="#DA1C1D"/>
<path d="M92.1248 3.35407C92.2148 2.23574 92.2522 1.5032 92.1875 0.415114C93.1522 0.0595703 94.2189 0.0595703 95.6856 0.0595703C95.8864 2.17408 98.6043 1.76136 99.0233 3.722C98.3904 6.11082 96.7334 6.70723 94.4171 6.84277C92.6 6.26996 92.0494 5.18883 92.1248 3.35407Z" fill="#998C8B"/>
<path d="M308.95 5.86281C309.18 4.03828 309.195 2.50539 309.148 0.516035C309.53 0.0595703 309.975 0.0595703 310.752 0.0595703C311.847 1.1007 311.556 2.50648 312.439 3.8318C312.671 4.87355 312.761 5.63836 312.775 6.78524C312.699 7.16732 312.581 7.55489 312.391 7.62478C311.712 7.71542 311.223 7.73617 310.372 7.68672C309.2 7.46517 308.746 7.00291 308.95 5.86281Z" fill="#DF7F82"/>
<path d="M68.7108 0.0595703C69.3863 0.786101 69.6869 1.51263 70.0201 2.53389C69.7294 3.90393 68.8514 4.28641 67.5227 4.59301C66.1615 4.52744 65.264 4.18826 64.3008 3.23094C64.7482 2.16987 65.387 1.41812 66.0558 0.362972C66.8358 0.0595703 67.5858 0.0595703 68.7108 0.0595703Z" fill="#C7091E"/>
<path d="M2.61247 29.9771C3.16725 31.7783 2.96492 33.401 0.443459 34.013C0.0859376 32.9928 0.0859375 31.9262 0.0859375 30.4595C0.808697 30.0441 1.53146 30.0288 2.61247 29.9771Z" fill="#A30102"/>
<path d="M312.705 3.71621C310.765 3.57157 309.704 2.65673 310.968 0.349665C311.531 0.0595703 311.975 0.0595703 312.753 0.0595703C313 1.14761 312.914 2.23565 312.705 3.71621Z" fill="#EE898D"/>
<path d="M5.5007 235.292C5.20995 235.193 5.26436 235.036 5.34181 234.892C10.6853 224.933 19.0302 227.965 27.477 229.961C30.0169 234.724 33.7296 238.297 36.6875 242.405C39.8389 246.783 41.1842 251.497 40.1985 257.895C31.9005 244.631 17.6073 241.959 5.5007 235.292Z" fill="#DC390B"/>
<path d="M39.4029 222.898C36.8792 219.23 38.4315 215.741 42.9091 215.154C45.4855 214.816 48.1336 215.026 51.1747 215.02C51.9163 217.653 49.7121 216.417 48.7696 216.694C46.464 217.372 49.0816 217.958 48.8621 218.784C49.0544 219.065 49.2506 219.342 49.4203 219.338C51.2561 219.421 51.8759 220.449 51.6729 221.932C51.4983 223.208 50.545 223.774 49.2855 223.924C48.12 224.062 47.0586 223.658 45.7609 222.999C45.5625 222.56 45.4158 222.496 45.3372 222.511C43.3892 222.551 41.5022 222.035 39.4029 222.898Z" fill="#DC390B"/>
<path d="M50.0053 206.522C54.8764 205.189 58.6675 208.474 63.3249 209.816C62.9513 210.56 62.2827 211.052 61.3168 211.668C59.1929 213.308 57.3182 214.711 54.4348 214.242C51.8751 212.132 47.8143 211.309 50.0053 206.522Z" fill="#DC390B"/>
<path d="M45.5352 222.903C50.568 222.765 50.568 222.765 49.7129 219.655C54.2661 218.409 53.8057 223.584 56.4966 225.341C52.6711 225.179 48.6444 226.843 45.5352 222.903Z" fill="#CBBBBA"/>
<path d="M53.86 214.228C56.176 213.228 58.2276 212.46 60.6496 211.743C59.3824 215.371 56.0971 216.347 52.6594 217.02C51.4312 217.261 49.9399 216.713 49.159 218.703C47.5807 218.716 46.4339 217.906 45.2227 216.183C47.3605 215.886 49.1992 215.632 51.319 215.214C52.2654 214.855 52.9305 214.658 53.86 214.228Z" fill="#CBBBBA"/>
<path d="M39.3936 223.303C40.1723 218.318 42.862 221.85 45.0591 222.234C41.126 222.775 43.3833 225.593 43.1536 227.733C40.5852 227.505 40.9539 224.873 39.3936 223.303Z" fill="#CBBBBA"/>
<path d="M85.1284 238.062C87.5413 237.993 89.2941 238.265 89.008 240.905C88.6465 244.241 85.6622 242.822 83.9211 243.462C81.9407 244.19 81.5122 242.157 81.2732 240.8C80.7848 238.027 82.8232 238.062 85.1284 238.062Z" fill="#D1CFCF"/>
<path d="M305.405 17.2603C301.523 15.4821 297.214 12.2752 294.225 14.0312C291.362 15.7125 289.233 14.6281 286.443 15.0143C285.295 13.9767 285.715 13.2478 286.921 12.5746C289.332 12.71 288.909 11.27 289.105 9.85644C293.806 9.17801 297.566 11.51 301.888 12.7657C302.321 12.9645 302.484 13.0451 303.09 13.1602C303.535 13.1946 303.709 12.836 303.709 12.836C303.709 12.836 303.287 12.9242 303.034 12.7891C301.901 11.9051 301.384 10.9419 301.068 9.4576C301.08 7.10154 301.691 5.4431 304.063 4.67529C305.775 4.9293 307.093 5.10083 308.788 5.42174C309.369 6.12836 309.573 6.6856 309.893 7.42966C308.615 7.40791 307.221 7.19935 305.46 7.01305C304.377 7.84373 305.222 8.69012 304.972 9.83349C305.013 11.012 305.33 11.7215 306.498 12.1083C306.863 13.4987 306.937 14.8269 307.03 16.5561C306.706 17.3922 306.26 17.5696 305.405 17.2603Z" fill="#EE898D"/>
<path d="M305.217 10.0946C303.955 9.3367 303.755 8.41867 304.821 7.20312C305.146 8.04795 308.334 8.6122 305.217 10.0946Z" fill="#C8C7C7"/>
<path d="M312.348 7.68572C312.2 7.69491 312.499 7.30217 312.599 7.23486C312.761 7.3898 312.694 7.55946 312.348 7.68572Z" fill="#EE898D"/>
<path d="M42.0675 68.9957C42.7694 70.625 45.8913 71.2446 44.6625 72.3297C42.0398 74.6458 41.9195 80.4336 36.5737 79.0231C34.4926 78.474 34.0084 77.9456 32.7347 80.5682C31.2332 83.66 27.6638 81.81 24.6274 80.8154C24.2748 80.8658 24.2004 80.9114 24.2317 80.9418C22.3747 79.7051 25.0204 77.6896 23.3162 76.1022C22.8844 75.6051 22.6386 75.3672 22.127 75.1179C19.9508 73.3144 16.3394 71.9323 20.5624 68.4873C22.1318 62.5962 23.7803 62.1202 31.5974 65.4725C32.0881 70.421 34.4995 70.6548 38.2784 68.5678C39.0366 68.2997 39.4867 68.2083 40.2925 68.1621C41.0998 68.2514 41.5236 68.4249 42.0675 68.9957Z" fill="#DA1C1D"/>
<path d="M31.3554 104.345C31.0726 103.937 31.0339 103.773 30.9446 103.362C30.5738 101.254 31.2408 99.6261 32.3861 97.8916C34.6765 97.5678 35.3614 99.7444 37.3329 100.266C37.8363 100.469 38.033 100.568 38.4866 100.883C39.5761 102.145 40.3631 103.259 42.2421 103.296C42.7721 103.434 42.9785 103.506 43.4805 103.701C44.4539 104.122 45.0812 103.918 45.6632 103.58C46.977 102.816 48.3104 101.897 49.6862 103.364C50.9225 104.682 49.9335 105.829 49.2024 106.919C48.5088 107.953 48.3306 109.051 48.5772 110.592C48.5664 111.917 48.1872 112.758 47.3274 113.762C47.0864 114.021 47.0519 114.035 47.0475 114.053C45.0002 114.646 42.9571 114.007 40.7084 115.199C38.3998 116.423 36.5242 113.441 36.0476 111.34C35.3762 108.38 33.5732 106.509 31.3554 104.345Z" fill="#DA1C1D"/>
<path d="M22.1925 68.838C17.5273 70.8136 21.28 72.648 21.8905 74.7668C18.2048 75.5504 16.4787 72.6492 14.1453 70.3414C14.083 69.9901 14.1211 69.7611 14.2265 69.7125C14.7091 69.719 15.1885 69.9192 15.3812 69.4673C15.6404 68.8596 15.4608 69.7059 14.718 69.2303C14.3619 69.0332 14.3152 68.805 14.358 68.2393C14.8463 67.8274 15.7123 68.2277 14.8828 67.1531C14.6234 66.9148 14.6476 66.7174 14.8674 66.2948C15.7039 65.4194 15.9212 64.5791 16.164 63.4052C16.0393 61.6294 17.0031 60.582 17.7729 59.1456C19.463 58.3678 20.313 59.2997 21.3707 60.5078C21.643 61.0412 21.7202 61.2676 21.8342 61.8468C21.1124 64.3894 20.5975 66.5599 22.1925 68.838Z" fill="#C0AEAE"/>
<path d="M31.1133 104.422C34.962 104.567 36.2523 107.07 37.1557 110.574C37.6204 112.376 38.5469 116.949 42.3569 112.844C44.367 110.679 44.9826 113.741 46.7043 114.006C45.92 115.813 43.8006 114.338 42.2439 115.743C41.686 116.516 41.2688 116.885 40.3828 117.022C34.8112 116.553 34.8468 112.066 33.3981 108.243C32.4611 106.906 31.7882 105.825 31.1133 104.422Z" fill="#DF7F82"/>
<path d="M33.3679 97.9601C31.184 99.0464 33.6996 101.711 31.0847 102.859C30.0053 103.006 29.4071 102.559 29.1443 101.358C27.2878 99.7537 30.3246 97.6935 28.252 96.1713C29.4998 93.3427 31.9334 93.6908 34.6699 93.7616C36.262 94.1259 37.2349 94.6483 37.5087 96.3553C36.6008 98.2743 35.1767 98.097 33.3679 97.9601Z" fill="#DF7F82"/>
<path d="M32.2654 127.564C34.6979 126.561 37.6777 128.128 39.9951 125.393C42.9542 128.647 40.9315 131.009 38.1447 132.363C35.1143 133.835 32.0615 135.574 27.8684 135.501C27.2463 134.289 27.4 133.475 28.6881 133.113C30.6843 132.163 31.6031 130.215 33.5889 129.672C33.7721 129.622 34.6626 129.807 34.1626 129.139C33.9713 128.883 33.2691 128.925 32.559 128.504C32.2907 128.279 32.2458 127.802 32.2654 127.564Z" fill="#F1636A"/>
<path d="M32.2623 128.268C33.9212 128.279 35.5514 128.279 37.5847 128.279C35.7157 131.569 32.0325 131.12 29.3579 133C29.3126 132.308 29.6211 131.527 30.0136 130.441C30.5394 129.506 30.8846 128.785 31.918 128.336C32.1857 128.22 32.2336 128.258 32.2623 128.268Z" fill="#C7091E"/>
<path d="M23.0107 152.364C24.3571 153.959 24.4855 155.308 22.482 155.892C21.3251 156.229 19.8551 155.864 19.6856 154.589C19.4169 152.568 21.2468 152.51 23.0107 152.364Z" fill="#AD9696"/>
<path d="M23.1208 76.2217C26.6816 76.4232 24.5527 78.6295 24.3303 80.6214C20.4468 80.4189 23.8957 77.9523 23.1208 76.2217Z" fill="#C0AEAE"/>
<path d="M9.51612 82.8875C7.76884 82.1008 7.88334 81.1107 9.58122 80.0674C9.85674 80.8977 9.81794 81.7872 9.51612 82.8875Z" fill="#282828"/>
<path d="M13.501 114.023C13.8939 113.31 14.2897 113.294 14.6405 113.807C14.7136 113.914 14.7107 114.163 14.6344 114.267C14.2706 114.764 13.8747 114.749 13.501 114.023Z" fill="#9D9A9A"/>
<path d="M31.8527 128.189C31.6653 128.779 31.1445 129.338 30.3608 130.017C30.1031 129.141 30.4918 128.42 31.8527 128.189Z" fill="#F1636A"/>
<path d="M14.0449 111.375C14.5655 111.346 14.9351 111.471 15.3048 111.595C15.2048 111.699 15.0806 111.906 15.0088 111.889C14.6299 111.8 14.2643 111.655 14.0449 111.375Z" fill="#9D9A9A"/>
<path d="M15.7178 130.827C15.7032 131.053 15.5791 131.177 15.4551 131.3C15.5061 131.108 15.5572 130.916 15.7178 130.827Z" fill="#9D9A9A"/>
<path d="M12.082 118.056C12.1999 117.639 12.3211 117.226 12.4424 116.812C13.128 117.121 12.7375 117.472 12.287 117.941C12.0918 118.064 12.0853 118.059 12.082 118.056Z" fill="#9D9A9A"/>
<path d="M27.1574 136.018C26.7569 136.073 26.574 136.087 26.1143 136.089C26.118 135.839 26.3985 135.6 26.9358 135.261C27.1925 135.161 27.3831 135.373 27.4799 135.478C27.5768 135.583 27.3748 135.977 27.1574 136.018Z" fill="#F1636A"/>
<path d="M55.4492 17.5297C58.8516 14.0422 62.7357 11.1132 67.7977 9.53832C70.3612 7.88817 72.1475 9.62602 73.9078 10.6053C78.4065 13.1079 82.8339 15.7493 87.4825 18.7362C90.3795 21.2809 93.7577 22.7973 95.3431 26.5299C92.7866 30.3286 89.1838 29.4222 85.4259 29.2764C82.897 28.6039 80.9316 27.4848 78.8075 26.7661C77.5448 26.3389 76.3236 25.924 75.3021 27.7307C70.8767 24.8985 66.6145 29.6718 62.003 27.8604C62.1035 25.1756 64.6669 24.4656 66.4129 22.6168C63.2169 19.9085 58.9465 19.9113 55.4492 17.5297Z" fill="#C7091E"/>
<path d="M41.1345 68.8176C40.4553 69.0378 40.0616 69.0719 39.3777 69.1662C34.9777 67.4621 34.6422 66.4734 36.941 61.8029C40.8095 62.0584 41.4648 58.8187 43.4106 56.6628C46.6821 53.9825 50.3442 52.9378 54.2633 51.5899C55.0913 51.3874 55.5744 51.386 56.3832 51.6319C59.3103 52.5874 62.2513 51.8136 64.6483 53.609C66.2941 54.8416 67.5171 55.999 64.7454 57.7608C64.0488 58.6212 63.3874 58.8843 62.2971 59.0489C56.7159 58.5641 52.2928 61.8843 47.079 62.0825C44.0601 62.1973 43.6721 66.6812 41.1345 68.8176Z" fill="#25090B"/>
<path d="M56.7808 51.4676C56.3597 51.9293 56.0109 52.0579 55.3825 52.1994C52.7192 51.6945 50.7792 50.1718 48.2855 49.1588C47.6923 48.8214 47.7382 48.2007 47.3193 48.2395C47.0771 48.262 47.076 48.6919 47.1943 49.3014C45.8383 51.4899 44.3378 52.6388 41.8759 50.7899C41.5444 46.8737 38.9311 45.5943 36.0502 44.6548C34.5168 44.1548 32.7905 44.4432 31.0449 43.3613C30.0078 40.1946 31.7146 38.8596 34.4644 38.0024C41.1655 41.2918 47.4803 44.5283 53.7998 47.7556C55.2523 48.4974 56.9906 48.9636 56.7808 51.4676Z" fill="#DF7F82"/>
<path d="M71.085 53.6582C71.9073 56.9984 73.1818 59.0188 77.2936 58.1606C80.7071 57.4482 84.2399 58.1445 87.8225 59.6867C85.3942 61.7945 82.2835 61.1512 79.5695 60.6709C75.8099 60.0056 72.7559 60.7346 70.2171 63.2837C68.6262 64.8812 66.6767 64.296 64.6946 65.0115C63.2419 65.9955 62.9004 64.9604 62.3585 63.8999C62.3104 63.3596 62.3262 63.145 62.4424 62.6378C62.7847 62.0009 62.8322 61.6236 62.7138 60.9048C62.9018 59.655 63.4568 59.0654 64.6973 59.002C70.2765 60.878 70.3094 56.9811 71.085 53.6582Z" fill="#5D5D5D"/>
<path d="M93.1033 32.0732C87.8672 31.6779 83.2119 33.2016 78.1451 34.1348C75.8142 33.2183 75.4436 31.4774 75.9984 29.2251C78.4261 26.8638 80.9827 27.8186 83.8747 28.1542C87.8262 27.9923 91.4833 28.7724 95.1358 26.6739C95.6731 25.5391 96.3919 25.4063 97.5381 25.4369C99.0835 26.0663 99.8561 27.0133 100.543 28.4839C100.628 29.0652 100.616 29.3 100.46 29.8516C98.182 31.3912 95.5387 30.7091 93.1033 32.0732Z" fill="#700303"/>
<path d="M39.2583 17.7576C38.3836 19.7902 36.592 20.1923 35.3229 21.2139C33.9214 22.3419 32.4675 22.2528 31.5574 20.6021C30.7303 19.102 31.0386 17.7271 32.6715 16.8267C34.2444 15.9595 35.7973 15.0562 37.7003 14.0931C38.0415 14.0175 38.0635 14.0381 38.0729 14.0471C39.0112 14.9846 39.6317 16.0359 39.2583 17.7576Z" fill="#AE0106"/>
<path d="M34.8249 37.7434C33.3942 39.5383 31.9393 41.0181 30.2134 42.7384C29.842 44.3821 28.9933 45.0961 27.3684 45.2869C24.8596 44.4685 25.6238 43.3628 26.7315 42.3915C28.265 41.047 29.2317 39.4359 29.8181 37.2046C31.5841 37.8675 33.4472 34.9717 34.8249 37.7434Z" fill="#25090B"/>
<path d="M84.0706 27.9003C82.0497 29.9683 79.4669 28.5566 76.6668 28.9873C76.028 28.7492 75.8013 28.4939 75.3445 28.1198C74.631 26.9928 73.5427 26.009 74.3925 24.8366C75.2912 23.5966 76.4628 24.3493 77.5115 24.8091C79.6253 25.736 81.7361 26.6696 84.0706 27.9003Z" fill="#E15354"/>
<path d="M39.5102 18.0916C38.7571 16.9858 38.4192 15.8743 38.082 14.4096C40.5714 14.2516 43.7958 13.1005 44.0776 17.7321C42.6936 18.1161 41.3095 18.1011 39.5102 18.0916Z" fill="#990304"/>
<path d="M65.172 58.9181C64.4304 59.662 63.8673 60.1801 63.2669 60.9497C63.2794 61.3639 63.3292 61.5268 63.203 61.8748C63.0271 62.0601 63.0875 62.0592 63.0775 62.0307C62.6817 62.5935 62.2917 63.1806 61.2382 63.5015C59.8887 63.4586 58.9849 63.1331 57.944 62.2539C57.2889 59.0961 59.1852 58.6233 61.7341 58.4201C62.7069 58.2759 63.304 58.1484 64.1922 57.9927C64.7725 58.207 65.0615 58.4496 65.172 58.9181Z" fill="#848484"/>
<path d="M71.5838 48.2728C72.1485 48.1268 72.5231 48.16 73.1285 48.372C72.8068 49.1417 72.2545 49.7326 71.3979 50.4461C70.0769 49.7048 71.1591 49.1385 71.5838 48.2728Z" fill="#5D5D5D"/>
<path d="M14.6973 210.614C15.1707 213.746 14.0714 214.803 11.8381 213.596C10.2868 212.757 8.97803 211.47 7.10938 210.036C9.66115 208.966 11.3931 206.581 13.9528 206.874C15.5899 207.062 14.2467 209.149 14.6973 210.614Z" fill="#CA0C03"/>
<path d="M13.8148 216.065C13.9034 217.635 16.5018 218.28 15.028 219.6C13.9485 220.566 12.157 220.358 10.8683 219.57C9.73252 218.876 8.8165 217.52 9.46618 216.247C10.4361 214.346 12.1133 214.885 13.8148 216.065Z" fill="#CA0C03"/>
<path d="M17.574 215.769C18.91 215.374 19.6066 215.849 19.6083 216.99C19.6087 217.274 19.056 217.78 18.73 217.804C17.4653 217.895 17.1729 217.1 17.574 215.769Z" fill="#CA0C03"/>
<path d="M301.811 9.90846C302.637 11.0163 303.33 11.8041 304.22 12.8413C304.417 13.0907 304.435 13.5603 304.417 13.7946C304.399 14.0288 304.218 14.144 304.138 14.2152C303.761 14.4189 303.486 14.5878 303 14.857C299.006 11.8662 294.173 11.6819 289.484 10.0809C288.962 9.95687 288.818 9.85037 288.771 9.493C289.884 5.35615 293.205 8.83537 295.161 7.03597C297.359 5.87202 298.958 6.94532 300.84 8.08396C301.32 8.73429 301.521 9.15107 301.811 9.90846Z" fill="#D7283B"/>
<path d="M285.387 15.0883C284.693 15.0539 284.22 14.9839 283.389 14.8708C283.53 13.4827 280.703 12.6051 282.175 11.5728C283.618 10.5618 285.645 11.0027 287.693 11.9368C288.174 12.2845 288.318 12.4822 288.104 12.7618C286.802 12.9197 286.246 13.4129 286.08 14.6697C286.045 14.9762 285.607 15.0527 285.387 15.0883Z" fill="#D7283B"/>
<path d="M301.296 8.55147C299.393 8.18128 297.703 7.54788 295.684 6.82604C295.117 6.34117 294.657 5.60799 294.675 5.59616C296.341 4.49272 297.954 4.7336 299.82 6.07406C301.2 6.52952 301.56 7.27048 301.296 8.55147Z" fill="#F09D9E"/>
<path d="M301.166 9.08418C300.829 8.13709 300.575 7.45941 300.23 6.52214C300.803 4.93089 301.718 3.98682 303.711 4.14393C304.057 4.1132 304.222 4.4579 304.34 4.60791C302.764 5.86434 302.281 7.59746 301.986 9.83922C301.713 9.9369 301.481 9.64524 301.166 9.08418Z" fill="#DF7F82"/>
<path d="M286.984 2.803C286.571 5.51956 284.993 4.19001 284.154 3.75086C283.252 3.27925 283.931 2.24357 284.469 1.75482C285.559 0.766436 286.485 1.00122 286.984 2.803Z" fill="#E51703"/>
<path d="M288.06 12.9152C287.747 12.8438 287.977 12.4977 288.004 12.2923C288.786 11.2183 286.898 10.0422 288.614 9.24911C288.867 9.24224 288.971 9.65729 289.039 9.86038C289.283 11.264 291.103 11.7693 290.491 13.1855C290.404 13.3868 289.11 13.0659 288.06 12.9152Z" fill="#DF7F82"/>
<path d="M185.683 12.3187C185.531 12.199 185.51 11.9947 185.489 11.7905C185.597 11.9384 185.705 12.0863 185.683 12.3187Z" fill="#9D9A9A"/>
<path d="M185.61 8.60504C185.563 8.63232 185.658 8.57776 185.61 8.60504V8.60504Z" fill="#9D9A9A"/>
<path d="M93.002 32.4333C94.1767 29.2933 96.5458 29.2014 99.5238 29.881C101.377 30.0351 102.318 30.9697 103.177 32.5143C103.943 35.7119 107.182 37.6316 106.224 41.2932C106.093 41.5301 105.888 41.6482 105.805 41.7326C104.696 41.7575 104.131 40.9706 103.286 40.0656C102.566 39.1865 101.947 38.7652 100.805 38.9968C99.9909 34.725 95.7589 34.7066 93.002 32.4333Z" fill="#C7091E"/>
<path d="M115.675 7.76391C118.131 9.63093 120.188 8.0725 122.196 7.80301C123.792 7.58885 125.309 6.40479 126.246 8.8179C126.664 9.89315 127.502 9.75578 127.998 8.77914C129.361 6.09842 131.507 7.05373 133.82 7.78043C131.532 10.7046 128.659 12.7807 124.492 13.192C121.925 11.9533 119.602 12.7559 117.343 12.6975C115.737 12.656 114.028 13.2319 112.574 11.357C112.299 8.93463 113.171 7.73021 115.675 7.76391Z" fill="#9D9A9A"/>
<path d="M112.855 11.034C116.641 12.2287 120.573 9.1812 124.017 12.762C122.251 13.934 120.392 14.7198 118.285 15.7324C116.804 17.2179 115.677 18.6462 113.299 18.6175C112.466 18.3669 112.072 18.0544 111.635 17.8683C106.517 15.6931 106.44 15.3 110.742 10.8149C111.612 10.4777 112.13 10.5058 112.855 11.034Z" fill="#B2B1B1"/>
<path d="M100.363 29.219C99.4492 28.1828 98.7475 27.3957 97.9707 26.2959C101.185 21.9079 105.106 18.8893 110.893 18.6309C112.414 21.2122 111.321 22.9264 109.259 24.6785C107.897 25.6165 106.869 26.3309 105.528 27.1219C103.738 28.0961 103.163 30.8403 100.363 29.219Z" fill="#393939"/>
<path d="M109.229 25.056C109.643 23.2426 110.359 21.5833 111.11 19.5831C111.298 18.5291 111.78 18.0903 112.712 17.6745C114.473 17.0376 115.909 16.4817 117.691 15.9424C117.269 19.9452 112.683 24.9339 109.229 25.056Z" fill="#171717"/>
<path d="M100.104 29.2078C102.149 29.2934 103.459 28.0704 105.006 27.0522C104.726 28.871 104.236 30.5439 103.528 32.5226C101.693 32.786 101.086 31.4003 100.006 30.1726C99.8629 29.891 100.057 29.446 100.104 29.2078Z" fill="#A35F61"/>
<path d="M109.611 27.5982C109.562 27.6253 109.659 27.571 109.611 27.5982V27.5982Z" fill="#171717"/>
<path d="M27.0237 45.5232C27.8435 44.481 28.6571 43.7945 29.7063 43.0435C34.3541 42.9017 38.8461 42.5117 42.1434 46.4245C43.0286 47.4749 44.894 48.3062 42.405 49.9869C41.689 50.6856 41.1194 51.04 40.1933 51.4464C37.3748 53.6007 38.1458 56.6825 37.3739 59.6252C36.9778 61.7027 35.94 62.9728 34.2488 64.1683C33.6809 64.3248 33.4429 64.3362 32.8926 64.1793C31.4258 63.023 30.9381 61.5453 29.9392 60.436C27.5248 57.7551 25.8257 58.1041 24.6104 61.8833C24.2099 62.3178 24.0107 62.4554 23.4567 62.6831C22.6026 62.7687 22.139 62.6341 21.5622 62.0476C21.4181 61.707 21.3501 61.3964 21.2965 61.2468C20.2969 60.015 19.4465 58.8725 18.8568 57.1552C18.7503 56.435 18.7493 56.0574 18.7422 55.3964C21.1016 53.4962 21.869 50.6273 23.9547 48.3675C25.6717 48.1156 27.0303 47.9028 27.0237 45.5232Z" fill="#CC1013"/>
<path d="M18.5325 57.0088C20.1388 57.5982 20.4075 59.1585 21.2226 60.7257C20.3518 60.4798 19.4607 59.8629 18.2906 59.0783C18.1123 58.3422 18.2131 57.7738 18.5325 57.0088Z" fill="#F1636A"/>
<path d="M15.9814 63.3159C17.5752 64.341 16.4994 65.0734 15.3405 65.9587C15.2915 65.2294 15.5198 64.3893 15.9814 63.3159Z" fill="#ABA5A5"/>
<path d="M14.4743 67.2925C14.8345 67.2813 15.0695 67.4508 15.3046 67.6202C15.1802 67.7146 15.0558 67.809 14.6897 67.9024C14.4479 67.9014 14.3492 67.4732 14.4743 67.2925Z" fill="#ABA5A5"/>
<path d="M14.377 69.3594C14.6685 69.3603 14.9283 69.4595 15.188 69.5587C15.0547 69.625 14.9213 69.6913 14.56 69.7107C14.332 69.6637 14.3452 69.4576 14.377 69.3594Z" fill="#ABA5A5"/>
<path d="M87.2627 19.7177C81.0218 16.2137 75.2163 12.1616 68.3241 9.31695C67.455 8.9214 66.9296 8.6055 66.2549 8.01664C66.2619 4.61058 69.0203 4.55346 71.4075 3.5791C77.1064 4.67536 83.0309 3.40418 87.5479 8.05139C87.3337 9.63474 86.3371 10.0305 85.0707 10.6446C84.4992 10.8584 84.2701 10.9305 83.6996 11.0811C82.7568 11.3193 81.8492 11.1278 81.6343 11.7351C81.3712 12.4786 82.3121 12.6373 83.0712 13.1792C84.1436 13.8727 84.8372 14.5033 85.8504 15.3186C87.2772 16.612 88.2025 17.7481 87.2627 19.7177Z" fill="#998C8B"/>
<path d="M61.163 5.13508C59.9805 5.27258 59.1249 5.22338 58.3717 5.47772C56.839 5.99531 55.6202 5.68482 55.3292 4.07635C54.985 2.17402 56.5224 1.98599 57.8818 2.03283C59.5015 2.08863 61.1148 2.32595 63.0271 2.77735C63.4095 4.34662 62.5919 4.82177 61.163 5.13508Z" fill="#700303"/>
<path d="M60.9795 5.4318C61.507 4.66334 62.2239 4.14234 63.1322 3.34567C63.3237 3.07001 63.7251 3.04409 63.9174 2.98291C65.034 3.11076 65.9585 3.29978 67.14 3.73423C67.4153 5.85785 66.156 6.53297 64.2349 6.9311C62.7128 7.04853 61.8833 6.4883 60.9795 5.4318Z" fill="#D27272"/>
<path d="M64.0459 7.19546C64.8978 6.11992 65.9368 5.31639 67.1863 4.24623C68.105 3.68255 68.8134 3.38551 69.7871 2.95857C70.2121 2.89308 70.3717 2.95748 70.7887 3.04017C71.1451 3.30763 71.2441 3.5568 70.9572 3.91956C69.2125 5.13334 67.8535 6.23353 66.2998 7.53881C65.481 7.65175 64.857 7.55961 64.0459 7.19546Z" fill="#25090B"/>
<path d="M22.8351 38.3956C21.5821 40.9527 19.7132 40.1136 18.1058 39.4798C16.2561 38.7505 14.4986 37.9675 12.4337 38.0197C9.97105 38.0819 8.44122 36.4499 7.54623 34.4587C6.96911 33.1747 7.94715 31.7983 8.93282 30.9958C10.7757 29.4956 12.9756 29.69 14.9752 30.6858C18.2942 32.3386 20.6764 35.0697 22.8351 38.3956Z" fill="#C10306"/>
<path d="M104.788 3.17773C105.602 3.86435 104.962 3.91889 104.593 3.94755C104.366 3.96515 104.118 3.70828 103.88 3.57466C104.111 3.42957 104.341 3.28448 104.788 3.17773Z" fill="#7D7A7B"/>
<path d="M101.082 4.05475C101.17 4.01914 101.261 3.98808 101.223 4.01163C101.094 4.06624 101.086 4.0593 101.082 4.05475Z" fill="#7D7A7B"/>
<path d="M22.0596 177.05C27.8914 177.13 33.7346 177.191 39.6779 177.643C38.1048 180.031 35.1775 179.71 33.2229 181.772C29.8343 183.299 26.5258 184.159 22.6419 184.184C18.9434 183.4 15.9941 185.309 12.1143 185.697C14.9557 182.01 21.5086 184.593 21.9247 178.366C21.9579 177.852 21.8519 177.681 21.931 177.27C22.1161 177.031 22.071 177.031 22.0596 177.05Z" fill="#BE0404"/>
<path d="M21.9015 177.077C22.1788 177.2 22.2409 177.37 22.1837 177.781C21.8466 177.762 21.0815 177.729 21.9015 177.077Z" fill="#C0BABA"/>
<path d="M93.5946 6.02508C94.3314 7.192 94.8172 8.16279 95.371 9.26965C92.9247 9.12501 90.5625 8.98536 87.8178 8.88237C86.6802 6.36569 84.1808 6.90937 82.4732 6.41048C78.8796 5.36059 75.1291 4.84782 71.0074 4.07381C70.6516 3.87093 70.7316 3.70886 70.929 3.30255C73.3871 2.51201 75.5792 0.329105 78.1765 2.79857C78.8532 3.44191 80.5833 3.39822 81.4199 2.53876C83.2979 0.609255 84.8511 1.08584 86.378 2.83679C88.0195 4.7193 89.746 2.90239 91.8009 2.99098C92.5663 3.92178 92.9549 4.87537 93.5946 6.02508Z" fill="#C7091E"/>
<path d="M18.1524 189.065C18.442 189.049 18.6279 189.271 18.6145 189.41C18.0862 189.715 17.561 190.207 17.0732 189.502C17.3364 189.361 17.5996 189.221 18.1524 189.065Z" fill="#C70807"/>
<path d="M26.8784 136.423C26.9391 136.06 27.2827 135.855 27.4293 135.719C30.8269 134.564 33.4441 132.246 36.9702 131.56C39.2752 131.111 40.9647 128.854 40.3249 125.584C40.3445 125.251 40.8066 125.207 41.0296 125.272C45.1076 124.13 48.4174 125.657 52.0376 127.466C55.1371 127.769 57.0585 124.761 60.2258 125.854C60.4766 126.678 60.4529 127.26 60.3688 128.298C60.8986 133.941 57.8632 135.346 52.7358 135.006C55.3886 139.503 62.989 137.128 62.4068 143.717C59.1481 143.139 57.9352 144.22 61.9383 148.482C54.9375 147.049 48.9072 144.477 43.5917 149.721C41.8163 146.793 39.9499 146.006 36.9803 147.911C35.4543 148.89 33.449 149.998 33.0436 146.302C32.7805 143.903 30.4836 143.585 28.3178 144.573C27.4779 144.957 26.6783 145.103 26.3717 143.98C26.1264 143.081 26.5547 142.425 27.3556 141.929C28.4111 141.276 28.3224 139.78 27.5749 139.075C27.0606 138.59 27.0522 137.568 26.8784 136.423Z" fill="#CC1013"/>
<path d="M70.729 112.865C75.0185 112.386 77.9989 109.777 81.6352 107.739C83.0696 107.095 84.025 106.17 85.716 106.564C88.0032 108.638 85.8361 110.336 85.6508 112.384C91.6468 110.074 97.3796 107.713 101.481 102.605C102.417 101.438 103.788 100.755 105.563 100.171C106.64 99.9559 107.363 99.9894 108.417 100.314C108.939 100.618 109.123 100.777 109.427 101.282C109.579 102.365 109.368 103.049 108.928 104.03C107.697 106.084 106.328 107.579 104.624 109.225C103.173 110.4 101.822 111.156 100.442 112.434C99.3948 113.121 98.5407 113.439 97.3651 113.888C93.8314 114.735 91.1199 116.817 87.492 117.356C83.2252 117.79 79.32 118.504 74.9913 117.779C73.8327 117.718 73.0476 117.601 71.8723 117.633C69.9119 116.366 69.7622 114.893 70.729 112.865Z" fill="#1A1A1A"/>
<path d="M70.6172 112.671C71.0174 113.864 71.0997 115.213 71.388 116.834C72.0261 117.225 72.4433 117.384 72.8398 117.912C71.0615 120.903 68.7987 122.571 65.4046 122.638C63.4956 122.675 61.4445 123.056 60.7172 125.809C57.445 125.927 55.774 129.416 52.2593 129.063C50.6004 127.063 51.7806 125.571 52.9938 124.212C56.9823 119.744 61.4555 115.946 67.7636 114.423C68.4525 113.443 69.4653 113.252 70.6172 112.671Z" fill="#990304"/>
<path d="M87.3877 117.586C90.1352 115.739 92.9672 113.772 96.7388 113.062C98.7174 113.324 99.7849 114.326 100.875 115.832C101.45 117.333 103.097 119.019 100.95 119.678C99.3265 120.176 97.9311 118.397 96.8258 117.17C96.3735 116.668 97.2234 115.038 95.2628 115.835C92.507 116.224 90.3775 118.311 87.3877 117.586Z" fill="#AAA9A9"/>
<path d="M83.9577 126.06C81.8829 127.096 82.4787 129.257 80.8792 130.994C79.4422 127.943 80.3541 125.739 82.1614 123.769C82.7582 123.118 83.8262 122.234 84.705 123.184C85.4464 123.985 84.9916 125.053 83.9577 126.06Z" fill="#AAA9A9"/>
<path d="M33.4161 182.077C33.1528 181.2 28.7865 179.756 33.4544 179.459C35.3548 179.339 37.2168 178.613 39.437 178.099C38.3707 180.267 36.2434 181.437 33.4161 182.077Z" fill="#C70807"/>
<path d="M90.6472 122.182C89.5429 122.742 88.6883 123.324 87.8143 122.475C87.6592 122.325 87.6177 121.772 87.7459 121.661C88.6732 120.855 89.7572 120.964 90.8415 121.289C90.9473 121.32 91.082 121.482 91.0825 121.584C91.0832 121.728 90.9712 121.872 90.6472 122.182Z" fill="#AAA9A9"/>
<path d="M76.5648 134.661C77.1058 135.481 77.9171 136.16 76.943 136.806C76.688 136.975 75.9195 136.787 75.6987 136.512C74.9991 135.642 74.9377 134.809 76.5648 134.661Z" fill="#B0AFAF"/>
<path d="M91.0452 125.784C90.4417 125.987 89.7424 125.955 89.6052 125.158C89.5759 124.987 89.9287 124.751 90.1055 124.544C90.4099 124.86 90.7143 125.175 91.0452 125.784Z" fill="#B0AFAF"/>
<path d="M70.469 147.511C69.6867 147.73 69.4032 147.454 69.5206 146.847C69.545 146.721 69.7242 146.55 69.8516 146.531C70.4657 146.441 70.7216 146.742 70.469 147.511Z" fill="#B0AFAF"/>
<path d="M73.283 118.152C72.4969 118.054 72.1627 117.859 71.7109 117.386C72.3983 117.155 73.2032 117.203 74.3133 117.518C74.3241 117.875 74.0295 117.965 73.283 118.152Z" fill="#AAA9A9"/>
<path d="M76.3283 125.695C76.0931 125.681 75.9645 125.552 75.8359 125.422C76.0356 125.475 76.2352 125.528 76.3283 125.695Z" fill="#AAA9A9"/>
<path d="M60.3628 128.766C60.3086 128.753 60.3057 128.727 60.3068 128.718C60.3078 128.71 60.4169 128.78 60.3628 128.766Z" fill="#990304"/>
<path d="M75.5611 123.513C75.6139 123.483 75.5084 123.544 75.5611 123.513V123.513Z" fill="#AAA9A9"/>
<path d="M78.5518 123.516C78.6028 123.487 78.5008 123.544 78.5518 123.516V123.516Z" fill="#AAA9A9"/>
<path d="M91.0937 126.054C91.2139 126.19 91.3256 126.333 91.4373 126.475C91.3526 126.43 91.2679 126.385 91.1274 126.209C91.0718 126.078 91.0854 126.06 91.0937 126.054Z" fill="#B0AFAF"/>
<path d="M94.0732 126.308C94.2421 126.222 94.4253 126.381 94.5598 126.574C94.5903 126.618 94.4516 126.78 94.2297 126.982C94.069 126.907 94.0695 126.736 94.0732 126.308Z" fill="#AAA9A9"/>
<path d="M81.084 138.061C80.9684 137.926 80.8548 137.789 80.7412 137.652C80.8226 137.699 80.904 137.746 81.0373 137.924C81.0892 138.056 81.086 138.06 81.084 138.061Z" fill="#B0AFAF"/>
<path d="M79.5353 135.593C79.501 135.537 79.5697 135.649 79.5353 135.593V135.593Z" fill="#B0AFAF"/>
<path d="M106.318 100.817C101.086 103.065 98.8601 108.58 93.6384 110.567C91.4554 111.398 88.866 111.722 86.9453 113.463C86.2409 114.101 85.088 115.225 84.0131 113.739C83.0925 112.465 83.1736 111.254 84.5597 110.348C85.6339 109.646 86.1746 108.738 85.9432 107.066C85.8001 103.259 89.0216 101.963 90.6913 99.2701C91.3998 97.939 91.9079 96.8788 92.3869 95.4611C92.1181 94.1982 92.0285 93.3122 92.9717 92.3293C94.3322 89.0752 95.4141 86.0161 96.6048 82.5869C96.8558 81.7922 97.0757 81.4143 97.63 80.8713C99.4856 79.5904 99.7247 77.8734 100.078 75.8632C100.37 74.7265 100.693 73.9383 101.083 72.8426C101.274 72.3601 101.358 72.1708 101.573 71.7053C102.107 70.6923 102.144 69.8837 102.194 68.7569C102.472 67.0249 103.369 66.1985 104.967 65.6828C105.713 65.5218 106.328 65.7628 106.545 64.7507C106.683 64.2763 106.766 64.0884 107.071 63.6709C109.085 62.4999 110.704 61.2508 112.857 60.2601C113.127 60.0505 113.617 60.0586 113.862 60.063C115.758 61.0355 116.904 62.3329 116.868 64.6785C116.773 65.3849 116.14 65.4269 116.212 65.7506C116.265 65.9889 116.675 65.8766 117.194 65.4494C118.863 65.3726 119.606 66.1446 120.031 67.7396C120.097 69.1379 119.741 70.0414 118.868 71.1111C117.484 72.3071 115.908 72.4541 114.857 73.574C112.662 75.9136 111.026 78.2213 114.396 80.9126C115.175 81.5344 115.678 82.3812 115.48 83.789C113.682 85.8864 113.057 88.761 109.598 88.6732C108.239 88.6386 108.007 90.8997 107.427 92.2723C110.786 91.5353 111.56 93.1484 110.684 95.936C110.024 98.0363 108.579 99.5997 106.318 100.817Z" fill="#070707"/>
<path d="M98.0917 81.4312C97.534 81.7406 97.3145 81.9078 96.9112 82.1554C93.0465 82.1531 89.5055 82.7837 86.0929 84.1306C84.3049 84.8363 82.4738 87.2941 80.7344 84.1323C78.9303 80.8529 77.0606 76.6966 80.8189 74.4616C83.3286 72.9691 86.565 69.2038 90.9074 72.5499C92.5026 73.6873 93.29 75.2076 95.2114 75.2871C99.522 75.4656 99.9121 77.8998 98.0917 81.4312Z" fill="#D7283B"/>
<path d="M67.8862 114.188C61.8164 118.046 55.3775 121.418 51.919 128.693C48.6549 127.545 45.6613 125.364 41.5381 125.544C50.4941 122.523 57.9298 115.556 67.8862 114.188Z" fill="#DC390B"/>
<path d="M60.7492 63.1761C61.6084 62.8181 62.0858 62.5328 62.8155 62.125C63.3138 62.9272 63.56 63.852 64.1236 64.9599C64.337 65.563 64.233 65.9829 64.0232 66.7095C62.3192 70.1441 62.651 73.7195 61.8838 77.0393C60.9308 81.1636 59.3612 84.8167 57.3264 88.7959C57.1423 89.1136 57.0877 89.0589 57.1169 89.0854C56.2945 89.7126 55.8994 90.6302 55.2495 91.7239C55.0273 91.9227 54.9097 92.3664 54.8758 92.5933C54.6975 93.024 54.5531 93.2276 54.0613 93.5726C52.6276 93.8641 51.7784 93.4305 50.9062 92.3176C51.4811 87.3313 55.2542 83.8588 55.8818 78.785C56.2071 77.562 56.296 76.6634 56.0565 75.3885C56.3842 70.7031 56.1244 66.1417 60.7492 63.1761Z" fill="#343434"/>
<path d="M47.4633 113.981C47.2366 113.128 47.3867 112.235 47.8234 111.147C49.8792 108.055 53.7909 109.25 56.0139 106.383C58.6352 103.003 59.5914 100.236 56.9503 96.3349C56.8304 95.7679 56.8304 95.5325 57.0872 95.0547C61.0091 95.1067 63.8382 96.1182 63.0778 100.768C61.9195 107.851 59.3172 112.057 54.768 111.923C52.1478 111.846 49.9492 112.581 47.4633 113.981Z" fill="#DF7F82"/>
<path d="M57.458 88.98C58.5175 84.16 59.5246 79.0592 61.4241 74.3159C62.358 71.9838 60.0362 68.8462 63.6297 67.1655C64.3433 74.9891 63.5058 82.6067 57.458 88.98Z" fill="#5D5D5D"/>
<path d="M98.1302 81.6323C98.1804 78.5201 98.7394 75.6374 93.7111 77.0436C90.9908 77.8044 91.2395 75.2158 91.2021 73.081C91.3644 72.5603 91.4617 72.4023 91.7796 72.0723C93.4615 72.2029 94.9228 72.5055 96.7423 72.9145C97.7303 73.7239 98.6688 73.6607 99.7542 74.1116C100.224 74.3885 100.397 74.5242 100.713 74.957C101.002 77.7377 101.412 80.3186 98.1302 81.6323Z" fill="#700303"/>
<path d="M90.5439 99.021C91.2624 102.63 87.8462 103.798 86.0705 106.417C84.8105 107.05 83.7235 107.412 82.3018 107.676C84.6263 104.653 85.8757 100.367 90.5439 99.021Z" fill="#908F8F"/>
<path d="M40.2412 117.324C40.5412 116.713 40.988 116.397 41.7153 116.044C42.1734 117.015 44.5979 117.222 43.2209 118.601C42.2118 119.612 41.1396 118.561 40.2412 117.324Z" fill="#ABA5A5"/>
<path d="M92.901 92.1074C93.0844 92.9599 92.9189 93.7853 92.5554 94.8573C91.4447 94.6967 90.4614 94.2228 90.5976 93.0611C90.7245 91.9792 91.7721 92.1693 92.901 92.1074Z" fill="#908F8F"/>
<path d="M55.3157 91.811C55.1043 90.7932 55.0902 89.6162 56.8096 89.1426C57.059 90.2286 56.4007 91.0053 55.3157 91.811Z" fill="#5D5D5D"/>
<path d="M53.8641 93.3468C54.0545 93.0423 54.4431 92.9163 54.6427 92.8682C55.5747 93.2849 56.3072 93.7498 57.1917 94.5134C57.3438 94.8121 57.1274 95.0332 57.0225 95.1469C55.9431 95.8826 55.0944 95.5444 54.0608 94.6331C53.7831 94.1175 53.7284 93.8844 53.8641 93.3468Z" fill="#DF7F82"/>
<path d="M58.042 61.6002C54.1943 62.1524 51.0501 64.2135 47.3156 65.5518C44.9474 65.7955 44.0518 67.5027 42.5288 69.0301C41.9078 69.3129 41.5949 69.2858 41.0674 69.1133C42.3996 63.7734 44.3577 59.6299 51.3426 60.1802C54.572 60.4346 57.7167 56.9564 61.8407 58.1565C61.036 59.707 58.9488 59.6233 58.042 61.6002Z" fill="#393939"/>
<path d="M35.3068 94.8636C32.9889 95.2499 30.8532 94.6594 28.4813 95.7518C27.8467 95.7635 27.5544 95.5984 27.1287 95.2166C26.6378 94.2876 27.0732 93.8567 27.7299 93.1868C27.911 92.9336 28.1038 92.6713 28.1655 92.5207C28.5162 91.5502 29.1855 91.0452 30.0749 90.3671C30.3621 90.2496 30.6997 90.2678 30.8673 90.2454C32.2515 90.0222 33.3637 90.4917 34.549 91.1174C34.5913 91.4709 34.6728 91.5688 34.7219 91.6095C35.2502 91.7865 35.5836 92.0906 35.8616 92.8891C35.907 93.7217 35.7819 94.1743 35.3068 94.8636Z" fill="#CC1013"/>
<path d="M35.4543 93.1137C35.1474 92.5259 35.0269 92.2765 34.8154 91.8498C37.2273 91.423 37.7252 88.1122 40.6966 88.0859C41.7684 88.1212 42.474 88.1897 43.5323 88.2888C44.3333 88.6653 44.5343 89.1208 44.3403 90.0515C41.7734 92.6012 39.175 94.2711 35.4543 93.1137Z" fill="#DF7F82"/>
<path d="M34.5935 91.1517C33.5686 91.1979 32.5464 90.9249 31.2793 90.4374C32.5442 88.5404 33.5308 89.917 34.5935 91.1517Z" fill="#DF7F82"/>
<path d="M29.9976 90.2222C29.8532 90.8909 29.3444 91.5322 28.5314 92.2718C28.1838 91.3141 28.4044 90.4287 29.9976 90.2222Z" fill="#DF7F82"/>
<path d="M27.6453 92.9966C27.7276 93.4725 27.5443 94.0113 27.1781 94.7751C25.9205 94.1147 26.5046 93.5583 27.6453 92.9966Z" fill="#DF7F82"/>
<path d="M33.0896 64.0444C34.3159 62.8701 35.2105 61.712 36.1298 60.2332C36.4862 59.6484 36.8659 59.5067 37.5904 59.5429C38.0586 59.7457 38.2227 59.8751 38.5087 60.2934C38.6661 61.0084 38.5789 61.405 38.0807 61.9297C35.7246 64.5885 36.2299 66.7982 38.8217 69.0168C38.4188 69.6814 37.8086 70.2976 37.0718 70.5648C31.5296 72.5749 31.3778 72.4593 31.0908 66.3443C31.4742 65.2139 31.7969 64.3659 33.0896 64.0444Z" fill="#990304"/>
<path d="M33.2774 64.0375C32.8418 64.6202 32.2625 65.2124 31.3899 65.9099C28.2441 65.456 25.3915 64.8969 22.8944 64.4074C20.8873 66.182 24.9685 67.4524 22.3052 69.0202C19.7695 67.1739 19.6006 64.9072 21.2059 62.055C21.7635 61.8363 22.1089 61.9657 22.7251 62.1512C23.8462 62.8246 24.634 62.1511 25.7766 62.0855C26.3175 62.1087 26.533 62.1347 27.0667 62.2276C28.4192 62.6258 29.4879 62.7713 30.8903 62.9404C31.6484 63.1263 32.0397 63.3315 32.6235 63.8493C32.8499 64.0959 33.1337 64.047 33.2774 64.0375Z" fill="#F1636A"/>
<path d="M53.7439 93.9062C54.814 94.3619 55.5689 94.7137 56.6207 95.1629C62.1408 99.3147 60.4224 101.631 56.7765 107.432C54.1226 111.654 50.7567 108.602 48.5023 110.989C46.7065 109.872 45.7995 108.804 47.1471 106.922C47.8351 105.962 50.671 105.518 48.823 103.841C47.3832 102.534 46.4434 104.911 45.4441 105.744C43.7237 107.178 43.2358 106.573 43.0841 104.393C40.6733 104.932 38.648 105.003 38.1298 101.417C38.1928 100.969 38.2882 100.866 38.2288 100.905C34.823 103.2 34.5345 99.9256 33.1162 98.1738C33.7292 96.8216 34.954 97.047 36.3811 96.8828C39.5674 93.6617 43.1049 93.048 47.426 94.2353C49.7588 95.4086 51.5482 94.0958 53.7439 93.9062Z" fill="#CA0910"/>
<path d="M22.0762 141.047C22.1632 141.008 22.2601 140.982 22.2341 141.018C22.1112 141.079 22.0861 141.059 22.0762 141.047Z" fill="#ABA5A5"/>
<path d="M48.1282 94.7996C44.2878 95.3243 40.6279 94.7227 37.1018 96.9252C36.7886 96.0665 36.5572 95.4349 35.3517 95.2032C35.0988 94.6152 35.1228 94.0958 35.1843 93.187C38.4353 93.191 40.6478 90.7102 43.8498 89.8617C44.6013 89.5389 44.9945 89.4045 45.7305 89.5229C46.6068 89.9063 47.1548 90.2215 47.7625 90.9601C47.9227 91.2331 48.1072 91.6238 48.1506 91.8355C48.747 92.8206 48.8358 93.6444 48.1282 94.7996Z" fill="#DA1C1D"/>
<path d="M99.8826 74.8467C98.5146 74.9537 97.1365 75.625 97.0703 73.3649C98.9391 71.328 98.8103 68.8408 99.4874 66.7219C100.948 62.149 102.735 58.3782 109.095 59.8688C110.254 61.8087 109.214 62.8348 107.372 63.8356C106.897 64.1541 106.742 64.2551 106.457 64.5996C106.399 65.0463 106.473 65.2496 106.231 65.3806C104.968 66.271 104.022 67.2337 103.026 68.5393C102.473 69.7214 103.087 70.7981 102.047 71.6641C101.695 71.7305 101.719 71.759 101.731 71.7731C101.655 72.9917 101.044 73.9237 99.8826 74.8467Z" fill="#9D9A9A"/>
<path d="M127.302 59.3363C125.129 62.3653 122.487 65.2266 119.576 68.3092C119.052 67.1689 118.538 66.0672 116.464 66.0693C116.256 64.017 115.278 62.3759 114.245 60.3883C118.421 60.7885 122.518 58.432 127.302 59.3363Z" fill="#171717"/>
<path d="M107.412 64.0556C107.848 62.9062 108.644 61.7595 109.505 60.2612C110.517 59.9533 111.464 59.997 112.769 60.0457C111.804 62.0026 110.511 63.9957 107.412 64.0556Z" fill="#171717"/>
<path d="M73.7988 48.3648C73.5036 46.7315 74.0212 45.8396 75.9556 47.096C75.4204 47.7033 74.7501 48.0194 73.7988 48.3648Z" fill="#5D5D5D"/>
<path d="M103.165 40.1552C104.22 39.6804 105.079 40.0322 105.636 41.4534C104.591 41.9762 103.576 41.9041 103.165 40.1552Z" fill="#0C0B0B"/>
<path d="M37.8438 61.1157C39.2196 58.9124 41.5738 58.4567 43.8872 57.3906C42.4449 59.0809 42.3857 62.8736 38.1874 62.0767C37.8386 61.8308 37.8506 61.5692 37.8438 61.1157Z" fill="#393939"/>
<path d="M47.0812 48.0632C46.961 47.9243 46.8457 47.7815 46.7305 47.6387C46.8173 47.6848 46.9041 47.7309 47.0425 47.9131C47.0941 48.0492 47.0862 48.0593 47.0812 48.0632Z" fill="#B59898"/>
<path d="M63.1939 62.0033C63.0271 62.0602 63.1243 61.6292 63.1769 61.4152C63.356 61.3704 63.494 61.5331 63.5953 61.7162C63.6095 61.7418 63.4433 61.8672 63.1939 62.0033Z" fill="#343434"/>
<path d="M27.0409 62.9787C26.7226 63.013 26.5339 63.0129 26.4456 63.046C25.8316 62.7041 25.229 62.5546 24.373 62.2632C24.0471 60.1132 23.3871 57.7733 25.7011 56.8456C28.1692 55.8561 29.5461 58.0546 31.0032 59.5551C32.0389 60.6217 32.7944 61.8905 32.9534 63.7462C32.4131 64.0787 31.9759 64.0614 31.21 64.0415C29.8508 63.2118 28.7373 62.6523 27.0409 62.9787Z" fill="#DF7F82"/>
<path d="M38.7922 50.0586C38.7831 53.1629 38.3652 56.2416 37.844 59.7595C37.3751 60.2021 37.0095 60.2057 36.3994 60.0608C36.7156 56.5781 36.6185 53.0956 38.7922 50.0586Z" fill="#DF7F82"/>
<path d="M23.8551 62.0679C24.7467 62.2217 25.3486 62.3961 26.1539 62.8246C25.4073 62.9532 24.4573 62.8275 23.2519 62.4544C23.1861 62.1674 23.3757 62.1279 23.8551 62.0679Z" fill="#D7283B"/>
<path d="M83.337 13.7017C82.461 13.9076 81.7722 13.8913 81.2342 13.5982C80.1568 13.0112 78.3111 12.6616 78.6179 11.1968C79.0261 9.24849 81.0249 10.3584 82.7007 10.0534C83.7532 11.0775 83.7978 12.1969 83.337 13.7017Z" fill="#7D7A7B"/>
<path d="M83.2046 14.3128C83.0812 12.9833 83.0807 11.9177 83.0853 10.4519C83.0905 10.0519 83.5823 10.0485 83.8281 10.0469C84.4076 11.4704 84.7413 12.8955 85.0812 14.69C85.0874 15.0594 85.0815 15.5512 85.0795 15.7969C84.4942 15.554 83.9109 15.0653 83.2046 14.3128Z" fill="#888888"/>
<path d="M95.05 15.7033C93.8377 16.272 93.0511 18.6366 91.5465 17.2144C90.5378 16.261 90.9319 14.8735 92.7379 14.123C93.9679 14.1359 94.7434 14.3855 95.05 15.7033Z" fill="#888888"/>
<path d="M92.0953 11.8063C91.7715 11.9363 91.5053 11.748 91.1992 11.2408C91.9323 10.3127 91.9773 11.0037 92.0953 11.8063Z" fill="#888888"/>
<path d="M93.2234 12.9563C93.0575 13.0383 93.0533 12.567 93.0498 12.3317C93.3949 12.2525 93.7566 12.4027 93.2234 12.9563Z" fill="#888888"/>
<path d="M24.9817 181.796C23.6442 181.733 23.1978 181.183 23.7393 180.217C24.0747 179.619 24.8002 179.198 25.3898 179.635C26.2094 180.243 25.9826 181.049 24.9817 181.796Z" fill="#C70807"/>
<path d="M106.702 147.905C105.245 149.247 104.385 148.282 103.603 147.237C103.514 147.118 103.741 146.555 103.946 146.456C105.251 145.829 106.066 146.526 106.702 147.905Z" fill="#A39D9C"/>
<path d="M102.866 127.81C102.822 128.551 102.563 129.047 102.189 129.797C101.052 129.873 100.005 129.583 100.338 128.256C100.668 126.941 101.657 127.067 102.866 127.81Z" fill="#AAA9A9"/>
<path d="M99.1784 142.689C97.8673 141.452 98.8188 140.944 99.7236 140.502C99.9119 140.41 100.474 140.632 100.544 140.825C100.899 141.811 100.263 142.32 99.1784 142.689Z" fill="#A39D9C"/>
<path d="M103.105 142.55C103.972 143.035 104.072 143.639 103.667 144.23C103.339 144.709 102.814 144.71 102.5 144.217C102.119 143.618 102.223 143.012 103.105 142.55Z" fill="#A39D9C"/>
<path d="M97.5339 120.686C97.7534 121.464 97.4811 121.745 96.8775 121.626C96.752 121.601 96.583 121.423 96.564 121.297C96.4722 120.687 96.7691 120.432 97.5339 120.686Z" fill="#AAA9A9"/>
<path d="M97.4121 127.896C97.8244 127.358 98.3229 127.109 98.3634 127.841C98.3864 128.256 97.8933 128.662 97.4121 127.896Z" fill="#AAA9A9"/>
<path d="M77.0864 145.06C77.0003 145.096 76.9134 145.13 76.9551 145.112C77.0837 145.058 77.0856 145.059 77.0864 145.06Z" fill="#C0BABA"/>
<path d="M78.606 185.802C78.9758 186.974 78.74 187.731 77.7034 187.848C76.9659 187.932 76.3633 187.459 76.5427 186.688C76.7467 185.811 77.4153 185.328 78.606 185.802Z" fill="#CBBBBA"/>
<path d="M79.5808 192.073C79.0993 192.929 78.5004 193.029 77.9157 192.629C77.441 192.304 77.4457 191.784 77.9324 191.473C78.5267 191.092 79.1242 191.199 79.5808 192.073Z" fill="#CBBBBA"/>
<path d="M71.5569 174.517C71.605 174.49 71.5088 174.544 71.5569 174.517V174.517Z" fill="#B0AFAF"/>
<path d="M31.8154 137.501C32.1051 137.511 32.2561 137.633 32.4071 137.755C32.1637 137.708 31.9203 137.661 31.8154 137.501Z" fill="#AD9696"/>
<path d="M115.459 86.7646C113.516 89.9158 112.714 93.0937 112.022 96.6797C112.347 98.9413 111.559 100.271 109.586 101.142C108.434 101.09 107.646 101.076 106.464 101.056C106.637 98.0655 110.98 96.7511 109.775 92.9414C107.638 92.6077 107.799 96.9824 105.701 95.1975C104.257 93.9683 105.891 91.6809 106.738 90.2372C107.599 88.7702 107.903 87.1647 108.723 85.3926C111.914 90.0395 112.306 84.3941 114.865 84.2202C115.862 85.0255 115.907 85.7279 115.459 86.7646Z" fill="#171717"/>
<path d="M107.422 104.05C109.71 105.18 110.195 107.376 111.07 109.723C111.119 110.082 111.109 110.562 111.113 110.802C110.221 112.081 109.573 111.911 109.119 110.35C108.022 110.059 106.956 110.056 105.212 110.04C104.364 109.947 104.196 109.869 103.816 109.605C103.541 109.246 103.476 109.072 103.383 108.62C104.615 106.959 105.876 105.576 107.422 104.05Z" fill="#AAA9A9"/>
<path d="M109.198 101.352C110.834 100.457 110.869 98.7548 111.834 97.2939C113.759 99.6689 114.714 102.466 114.554 105.55C111.321 106.216 112.432 101.814 109.492 102.099C109.193 102.098 109.175 101.6 109.198 101.352Z" fill="#AAA9A9"/>
<path d="M105.088 110.062C105.027 114.997 102.351 112.927 99.7178 111.814C100.488 110.647 101.617 109.599 103.05 108.447C103.488 108.461 103.622 108.58 103.938 108.896C104.278 109.255 104.437 109.417 104.838 109.816C105.081 110.054 105.086 110.059 105.088 110.062Z" fill="#AAA9A9"/>
<path d="M117.614 71.042C117.725 73.0295 118.094 74.1232 120.695 72.8421C121.691 77.7487 118.933 80.996 115.758 84.2653C115.376 84.3024 115.145 84.1057 115.026 84.0077C114.659 83.3301 114.511 82.6742 114.143 82.1851C112.998 80.6667 109.632 80.6887 110.822 77.5731C111.997 74.497 113.224 71.3688 117.614 71.042Z" fill="#171717"/>
<path d="M99.8818 75.0342C100.106 74.0155 100.653 73.0752 101.471 71.9609C102.078 72.8174 102.191 73.8281 101.167 75.0102C100.639 75.207 100.422 75.1598 99.8818 75.0342Z" fill="#171717"/>
<path d="M105.95 65.6476C105.915 65.3083 106.088 64.8866 106.207 64.8647C107.077 65.1391 107.892 65.4125 107.617 66.4801C107.547 66.7501 107.281 67.1269 107.052 67.1705C106.133 67.3447 106.143 66.5675 105.95 65.6476Z" fill="#171717"/>
<path d="M102.03 71.8018C101.428 70.7582 101.91 70.0061 102.698 69.0723C103.189 69.9639 104.988 71.3688 102.03 71.8018Z" fill="#171717"/>
<path d="M111.562 83.5145C111.609 83.4878 111.515 83.5413 111.562 83.5145V83.5145Z" fill="#171717"/>
<path d="M47.8985 95.3983C47.8965 94.3227 47.9986 93.5646 48.1473 92.4268C48.8697 92.0483 49.5454 92.0496 50.5577 92.0044C51.7238 92.293 52.5534 92.6282 53.7189 93.0027C54.0548 93.0422 54.0589 93.5266 54.0592 93.7684C52.01 94.4704 50.9296 98.3718 47.8985 95.3983Z" fill="#700303"/>
<path d="M57.2231 77.9377C56.4616 77.5641 56.466 76.9865 56.963 76.2183C57.7895 76.5526 57.9339 77.1238 57.2231 77.9377Z" fill="#5D5D5D"/>
<path d="M46.2192 90.2593C45.6333 90.3665 45.2491 90.1734 44.5555 89.8864C44.1653 89.464 44.0847 89.1355 43.9443 88.5632C44.8046 87.116 45.5584 87.0847 46.1502 88.9492C46.2816 89.4973 46.3513 89.7282 46.2192 90.2593Z" fill="#C0AEAE"/>
<path d="M46.1866 90.7664C46.0408 90.3421 46.0636 90.1244 46.1494 89.5866C47.0862 89.3306 47.6899 89.7191 47.8889 90.9337C47.4001 91.1466 46.8777 91.0599 46.1866 90.7664Z" fill="#DF7F82"/>
<path d="M27.0176 63.2495C28.4504 59.3321 29.4816 62.3688 30.7996 63.7329C29.6917 63.8545 28.502 63.6704 27.0176 63.2495Z" fill="#D7283B"/>
<path d="M38.0801 101.054C38.2844 99.8625 37.836 98.0698 39.923 98.3822C41.1788 98.5701 41.9591 99.9581 41.6198 100.972C41.0244 102.751 39.7462 100.943 38.4347 101.092C38.0975 101.072 38.0859 101.06 38.0801 101.054Z" fill="#DA1C1D"/>
<path d="M43.0811 104.053C43.1631 104.016 43.2498 103.984 43.2171 104.011C43.0977 104.068 43.0856 104.059 43.0811 104.053Z" fill="#DA1C1D"/>
<path d="M103.558 130.516C103.608 130.487 103.509 130.544 103.558 130.516V130.516Z" fill="#B0AFAF"/>
<path d="M113.559 113.516C113.607 113.489 113.51 113.544 113.559 113.516V113.516Z" fill="#C0BABA"/>
<path d="M104.977 109.844C104.772 109.954 104.52 109.774 104.223 109.304C104.428 109.193 104.679 109.373 104.977 109.844Z" fill="#B6B2B2"/>
<path d="M109.087 110.06C109.172 110.025 109.256 109.989 109.212 110.006C109.085 110.058 109.086 110.059 109.087 110.06Z" fill="#B6B2B2"/>
</svg>
