<svg width="29" height="31" viewBox="0 0 29 31" fill="none" xmlns="http://www.w3.org/2000/svg">
<path d="M22.3785 21.3234C25.4087 17.5703 26.0104 13.4659 24.1771 9.18747C22.4108 5.06541 18.996 2.84784 14.5823 2.53711C7.83251 2.06195 2.28735 7.43572 2.55903 14.2041C2.74422 18.8178 5.00948 22.0966 9.1151 24.142C9.40819 24.288 9.71244 24.4123 10.0008 24.5666C10.0633 24.6001 10.0796 24.7196 10.1154 24.8004C7.88438 25.5666 5.73619 25.0967 5.21013 23.6872C3.89135 23.8697 3.25324 23.3051 3.45043 21.827C2.00853 21.6387 1.4907 20.8533 2.13736 19.3915C0.816683 18.9483 0.176311 18.2075 1.20802 16.8208C-0.123786 16.1291 -0.3761 15.2443 0.89678 14.1412C-0.0198058 13.3937 -0.449154 12.5902 0.666449 11.7113C0.870179 11.5508 0.954333 11.3359 0.809631 11.0937C0.107702 9.91889 0.69469 9.26075 1.78476 8.82622C1.37234 7.55524 1.50831 6.5994 3.11813 6.43283C2.89731 5.10749 3.2437 4.22284 4.85698 4.41184C4.9349 2.99275 5.50827 2.18842 7.07453 2.7266C7.3849 1.34256 8.09726 0.758931 9.48806 1.52462C10.1425 0.235434 11.0045 -0.205091 12.1757 1.00811C13.0006 -0.264625 13.9027 -0.325297 14.8844 0.786689C15.9614 -0.053813 16.8954 -0.0694783 17.5346 1.33337C18.7725 0.66316 19.6629 0.869039 20.0356 2.37396C21.143 2.17365 22.1868 2.12716 22.2766 3.65409C22.2828 3.75791 22.5556 3.92897 22.704 3.92857C24.0793 3.92485 24.3425 4.76472 24.2099 5.96769C25.4238 6.05449 26.077 6.60245 25.7338 7.89705C25.6637 8.16158 25.7588 8.36531 26.016 8.45832C27.4065 8.96112 27.0656 9.88748 26.5434 10.849C27.47 11.45 28.0026 12.1409 27.2338 13.1846C27.0478 13.437 27.0168 13.701 27.2428 13.9538C27.8657 14.6507 27.8144 15.3005 27.1086 15.9056C27.0728 15.9362 26.9997 15.9802 27.005 15.9937C27.5555 17.3814 26.3489 18.3232 26.1553 19.4739C25.9768 20.535 25.8215 21.1937 24.5684 21.1746C24.8518 22.6056 24.4158 23.4497 22.8049 23.3271C22.7484 24.6572 22.2346 25.0135 20.7876 25.0997C19.4226 25.181 18.0802 25.2818 16.6294 25.0695C18.8006 24.2124 20.7873 23.1525 22.3785 21.3234Z" fill="black"/>
<path d="M11.3156 27.4246C16.3582 27.4264 21.2594 27.4282 26.1607 27.4309C26.4905 27.4311 26.8204 27.4392 27.1503 27.4404C27.8635 27.4429 28.3464 27.7238 28.3548 28.5035C28.3634 29.2908 27.871 29.5398 27.1648 29.5835C22.7475 29.8569 18.3315 30.1519 13.9139 30.4198C11.7987 30.5481 9.67829 30.5962 7.56537 30.7506C6.30841 30.8425 5.89477 30.2729 5.8595 29.1032C5.82346 27.9079 6.25188 27.3515 7.49902 27.4133C8.72131 27.4739 9.94899 27.4254 11.3156 27.4246Z" fill="black"/>
<path d="M9.07823 25.451C14.3287 25.6673 19.4555 25.5407 24.5531 26.095C24.7892 26.1207 24.9364 26.3473 24.9682 26.6546C24.6396 27.3054 23.9984 27.0327 23.4939 27.0335C18.2284 27.042 12.9628 27.0309 7.69735 26.9986C6.73443 26.9927 5.9654 27.1584 5.50044 28.1405C5.03935 29.1145 4.0923 28.7972 3.38896 28.6113C2.38435 28.3457 2.54469 27.3916 2.56336 26.5997C2.58319 25.7584 3.03062 25.2479 3.87368 25.2615C5.56312 25.2887 7.25145 25.3841 9.07823 25.451Z" fill="#DF3537"/>
<path d="M9.87221 9.81782C11.0376 9.18171 12.1346 9.2418 12.9668 9.96764C13.0935 10.0782 13.2824 10.1766 13.2425 10.3772C13.1942 10.6191 12.9608 10.5939 12.7774 10.6324C11.9365 10.809 11.0878 10.7368 10.2402 10.7203C9.76186 10.711 9.28319 10.7186 8.75195 10.7186C9.02155 10.2998 9.47343 10.1213 9.87221 9.81782Z" fill="black"/>
<path d="M18.6702 10.881C17.7364 11.4437 16.8989 12.1244 15.7617 12.2357C15.9968 10.4561 18.3651 9.33759 20.0227 10.1705C19.5698 10.4067 19.1375 10.6321 18.6702 10.881Z" fill="black"/>
<path d="M18.1714 13.5201C17.3203 13.4923 16.5813 13.2797 15.8027 12.8271C16.3511 12.1609 17.0861 12.1096 17.7499 12.1198C18.6125 12.1329 19.2713 12.6234 19.747 13.4239C19.207 13.6018 18.7106 13.4836 18.1714 13.5201Z" fill="black"/>
<path d="M14.3023 8.13534C14.0585 9.28938 14.0821 10.3958 14.3347 11.4873C13.5784 11.8238 13.3736 11.6968 13.3761 10.9408C13.379 10.0344 13.3719 9.12804 13.3711 8.22166C13.3704 7.34317 13.3715 7.34317 14.3002 7.47899C14.4331 7.677 14.3475 7.88378 14.3023 8.13534Z" fill="black"/>
<path d="M14.3657 13.0468C14.4094 14.0019 14.1853 14.8863 14.2619 15.7778C13.9259 15.8937 13.6447 15.8544 13.2988 15.8089C13.5125 14.5884 13.7189 13.3707 13.3281 12.1377C13.7318 12.0264 14.0616 12.027 14.4263 12.1366C14.4053 12.4326 14.3855 12.7125 14.3657 13.0468Z" fill="black"/>
<path d="M15.6361 12.395C15.6268 12.7674 16.0294 13.2566 15.2901 13.278C14.8899 13.2896 14.7442 13.1334 14.7835 12.7221C14.8732 11.7857 14.9357 10.8463 14.9907 9.90703C15.0311 9.21583 15.1213 9.16 15.8275 9.49639C15.7131 10.4329 15.5351 11.3797 15.6361 12.395Z" fill="black"/>
<path d="M11.4354 8.86826C11.0156 8.48223 10.5438 8.19852 10.3066 7.69196C11.2163 7.15024 13.0519 8.30531 13.189 9.75853C12.507 9.65587 12.0141 9.21934 11.4354 8.86826Z" fill="black"/>
<path d="M12.8913 14.9145C12.936 15.1316 13.0269 15.3251 12.811 15.4219C12.5943 15.5191 12.3498 15.5163 12.1362 15.4146C11.9598 15.3305 12.0314 15.1558 12.056 15.0032C12.2236 13.9614 12.0613 12.9333 11.9043 11.8834C12.1459 11.6658 12.4218 11.7011 12.7102 11.7334C12.8248 12.7925 12.8926 13.8257 12.8913 14.9145Z" fill="black"/>
<path d="M8.3869 14.3483C9.67216 13.5716 10.8816 13.823 11.5259 14.9603C10.8381 15.3 8.92706 15.0787 8.40751 14.5908C8.36499 14.5508 8.37587 14.454 8.3869 14.3483Z" fill="black"/>
<path d="M16.6372 13.4727C17.8433 13.8674 18.4724 14.6953 18.7696 15.9866C17.5668 15.3404 16.5882 14.6489 15.9277 13.5849C16.1436 13.3004 16.3767 13.4362 16.6372 13.4727Z" fill="black"/>
<path d="M9.13546 12.5471C9.02582 12.4094 8.90499 12.2829 9.00278 12.159C9.14071 11.9843 9.36034 12.0439 9.54188 12.0845C10.7799 12.3612 11.479 13.1717 11.8304 14.4669C10.6864 14.0932 9.89747 13.3748 9.13546 12.5471Z" fill="black"/>
<path d="M9.30812 16.6875C9.99893 15.7102 10.928 15.2633 11.7429 15.4896C11.5891 16.1794 10.03 17.3999 8.91016 17.6723C8.93473 17.2975 9.15116 17.0244 9.30812 16.6875Z" fill="black"/>
<path d="M15.6701 14.0014C15.423 14.9259 15.3146 15.8127 15.4746 16.7174C15.5043 16.8852 15.5802 17.0805 15.3713 17.1714C15.1762 17.2563 14.9533 17.2527 14.7519 17.179C14.5656 17.1108 14.609 16.938 14.6186 16.7845C14.6748 15.8864 14.7332 14.9883 14.7769 14.0895C14.7876 13.8705 14.8308 13.6832 15.0788 13.701C15.2978 13.7166 15.6454 13.4955 15.6701 14.0014Z" fill="black"/>
<path d="M12.041 16.2363C12.1551 15.6101 12.5595 15.9801 12.9061 15.8918C12.823 16.94 12.8412 17.9316 12.9952 18.9168C13.0311 19.1463 13.0091 19.348 12.701 19.3611C12.4001 19.374 12.2331 19.2631 12.2162 18.9366C12.1703 18.0528 12.1086 17.1698 12.041 16.2363Z" fill="black"/>
<path d="M13.6314 16.2689C13.8678 16.2671 14.0616 16.2469 14.2548 16.409C14.0501 17.2586 13.961 18.1281 14.0096 19.0087C14.0267 19.318 13.8153 19.3275 13.5886 19.3309C13.3555 19.3345 13.1488 19.3049 13.1606 19.0091C13.1944 18.1687 13.2343 17.3285 13.283 16.489C13.2925 16.3242 13.4507 16.3013 13.6314 16.2689Z" fill="black"/>
<path d="M14.6867 17.7024C14.9985 17.627 15.4251 17.4905 15.4985 17.7637C15.6178 18.2072 15.5782 18.7219 15.4198 19.1715C15.3258 19.4384 15.0406 19.3434 14.7904 19.2562C14.7654 18.7496 14.5909 18.2551 14.6867 17.7024Z" fill="black"/>
</svg>
