<svg width="24" height="24" viewBox="0 0 24 24" fill="none" xmlns="http://www.w3.org/2000/svg">
<path fill-rule="evenodd" clip-rule="evenodd" d="M6.74263 0C3.01878 0 0 3.01878 0 6.74263V17.2574C0 20.9812 3.01878 24 6.74263 24H17.2574C20.9812 24 24 20.9812 24 17.2574V6.74263C24 3.01878 20.9812 0 17.2574 0H6.74263ZM6.64853 2.21582C4.20068 2.21582 2.21631 4.2002 2.21631 6.64804V17.3514C2.21631 19.7992 4.20068 21.7836 6.64853 21.7836H17.3047C19.7526 21.7836 21.7369 19.7992 21.7369 17.3514V6.64804C21.7369 4.20019 19.7526 2.21582 17.3047 2.21582H6.64853Z" fill="black"/>
<path fill-rule="evenodd" clip-rule="evenodd" d="M12.0009 18.2C15.3992 18.2 18.1541 15.4451 18.1541 12.0468C18.1541 8.64845 15.3992 5.89355 12.0009 5.89355C8.60256 5.89355 5.84766 8.64845 5.84766 12.0468C5.84766 15.4451 8.60256 18.2 12.0009 18.2ZM12.0007 16.0316C14.2272 16.0316 16.0321 14.2267 16.0321 12.0002C16.0321 9.77368 14.2272 7.96875 12.0007 7.96875C9.77417 7.96875 7.96924 9.77368 7.96924 12.0002C7.96924 14.2267 9.77417 16.0316 12.0007 16.0316Z" fill="black"/>
<circle cx="18.4596" cy="5.58753" r="1.43811" fill="black"/>
</svg>
