<svg width="44" height="44" viewBox="0 0 44 44" fill="none" xmlns="http://www.w3.org/2000/svg">
<path d="M15.5972 25.3758C16.6226 26.48 17.1682 27.5872 16.6369 28.9486C16.3202 29.7603 16.7479 30.2741 17.1998 30.839C18.2219 32.1164 18.9829 33.526 19.4202 35.1216C20.6193 39.4968 17.7195 42.8847 13.1654 42.3563C12.0463 42.2264 10.9232 41.9958 9.93178 41.4288C8.32353 40.5091 6.98816 39.6188 4.80225 40.614C3.10943 41.3847 1.67438 39.7261 0.71767 38.0195C1.81294 37.3749 3.07661 37.6085 4.16349 36.6719C0.524625 30.4299 -1.46029 23.8489 1.27975 16.6502C2.00393 14.7475 3.07162 13.0815 4.85619 11.8028C3.99475 14.6113 3.74916 17.4091 4.2386 20.2655C3.9922 16.6888 4.94383 13.4393 6.75792 10.3928C7.77105 8.69131 6.93916 6.95521 6.66889 5.24585C6.39942 3.54158 5.5882 1.92996 5.68622 0.0399671C7.89857 -0.253076 8.82222 1.10841 9.50186 2.71338C10.8576 5.91488 10.833 5.92267 14.173 5.61428C14.5214 5.58209 14.8866 5.542 15.2234 5.60909C16.1015 5.78407 17.2075 5.7589 17.4696 6.84938C17.703 7.82077 16.8502 8.35132 16.1658 8.83161C14.0595 10.3096 11.7766 11.4186 9.17013 11.5639C7.84317 11.6379 7.15277 12.1872 6.73776 13.4342C5.55234 16.996 6.02638 20.2302 8.39845 23.1636C9.64871 24.7097 11.1682 25.9436 12.7861 27.0722C13.859 26.5109 13.3091 25.3349 13.8712 24.6168C14.6199 24.2894 15.0055 24.9046 15.5972 25.3758Z" fill="black"/>
<path d="M37.7069 26.6267C37.8128 24.2281 36.9954 22.3113 35.7539 20.5372C34.7449 19.0953 33.893 17.4946 32.6687 16.2659C31.4466 15.0394 29.9263 14.0467 28.3982 13.2022C25.5173 11.6101 23.6672 8.07808 24.2483 4.86313C24.6555 2.61043 27.3541 0.849378 30.1074 1.07403C31.1669 1.16049 32.2272 1.35898 33.1436 1.91952C35.0242 3.0698 36.8038 3.99617 39.2225 3.17779C40.508 2.74286 41.9306 3.56217 42.7078 5.0409C41.8078 5.96394 40.4618 5.58409 39.4656 6.42978C44.4623 14.8273 46.0805 23.2619 39.0553 31.509C39.8224 28.4006 40.3617 25.2809 39.3589 22.0845C39.778 25.9764 39.011 29.5465 36.9963 32.9353C36.208 34.2614 36.6663 35.962 36.9462 37.5014C37.2816 39.3464 38.1079 41.1067 38.0162 43.1531C35.8889 43.5099 35.0515 42.1627 34.3754 40.6569C32.9239 37.4242 32.9414 37.4378 29.2835 37.6214C28.2367 37.6739 26.956 37.7415 26.5016 36.6085C25.9869 35.3254 27.2344 34.7619 28.0851 34.2021C29.7418 33.112 31.4899 32.087 33.514 31.9971C36.2502 31.8754 37.3152 30.3125 37.5532 27.8493C37.587 27.4997 37.6527 27.1532 37.7069 26.6267Z" fill="#DC0025"/>
</svg>
