<svg width="18" height="25" viewBox="0 0 18 25" fill="none" xmlns="http://www.w3.org/2000/svg">
<path d="M6.86466 0.837482C7.98565 -0.191235 9.06633 -0.330196 10.209 0.745726C10.6179 1.1307 11.1826 0.970429 11.6871 0.959295C12.9998 0.930323 13.1263 0.9858 13.6462 2.18969C13.9224 2.82919 14.3687 3.22606 14.9997 3.49732C16.1228 3.9802 16.3644 4.39015 16.15 5.55816C16.0321 6.19993 16.1963 6.71055 16.5518 7.21236C17.3981 8.40699 17.3947 8.64436 16.5542 9.8218C16.1986 10.3198 16.0256 10.8387 16.146 11.4778C16.3657 12.6445 16.114 13.0903 15.0126 13.5397C14.3723 13.8009 13.94 14.2104 13.6597 14.8461C13.1054 16.1034 12.8886 16.2108 11.5406 16.0452C10.9018 15.9668 10.3472 16.1269 9.83176 16.5175C8.79291 17.3048 8.42475 17.3229 7.42445 16.5566C6.81513 16.0899 6.18003 15.9482 5.43785 16.0879C4.53347 16.2581 4.04941 16.0318 3.70003 15.177C3.35879 14.3421 2.84047 13.777 1.98607 13.4404C1.07357 13.081 0.851085 12.6091 1.04132 11.5465C1.1627 10.8686 1.01016 10.3194 0.611783 9.78469C-0.200674 8.69411 -0.201756 8.39863 0.595647 7.26988C0.974045 6.73424 1.16516 6.20028 1.04484 5.51185C0.843226 4.35824 1.08556 3.96208 2.18294 3.50689C2.86319 3.22472 3.3135 2.7862 3.58811 2.09819C4.0052 1.05324 4.257 0.930397 5.36825 0.952818C5.85352 0.962608 6.35083 1.07697 6.86466 0.837482ZM14.0283 10.7375C14.522 9.53399 14.6031 8.30019 14.2775 7.04384C13.463 3.90113 10.2475 2.02991 7.07998 2.84894C4.03008 3.63757 2.14579 6.81324 2.89544 9.90134C3.53308 12.528 5.93554 14.4792 8.61123 14.3979C11.1059 14.3221 12.9306 13.1132 14.0283 10.7375Z" fill="black"/>
<path d="M13.6637 15.6975C13.9349 15.5508 13.9426 15.7741 13.9922 15.9001C14.7767 17.8934 15.5547 19.8892 16.3364 21.8836C16.4275 22.1161 16.4681 22.339 16.2797 22.5441C16.0631 22.7799 15.8182 22.7029 15.5739 22.603C14.9553 22.35 14.3246 22.1218 13.7231 21.8329C13.1772 21.5708 12.894 21.7476 12.6792 22.2668C12.4164 22.902 12.1088 23.519 11.8141 24.1407C11.7166 24.3463 11.5611 24.5028 11.3164 24.4975C11.0693 24.4921 10.9258 24.3247 10.8433 24.1119C10.0258 22.0045 9.21141 19.8958 8.39871 17.7866C8.37877 17.7348 8.38837 17.6717 8.37695 17.5137C9.18758 17.5665 9.74067 17.0369 10.3511 16.6236C10.8403 16.2924 11.38 16.4389 11.9004 16.4618C12.6057 16.4927 13.2404 16.3997 13.6637 15.6975Z" fill="black"/>
<path d="M4.03431 21.9502C3.50422 22.1744 3.01658 22.3836 2.52722 22.5886C2.27649 22.6937 2.01653 22.8605 1.76036 22.6221C1.47517 22.3568 1.59086 22.0455 1.70433 21.7476C2.2428 20.3341 2.78462 18.9218 3.32485 17.5089C3.48522 17.0895 3.59163 16.6471 3.886 16.1981C4.56573 16.6219 5.31716 16.4144 6.05286 16.4262C6.78909 16.438 7.62004 17.112 7.97879 17.7562C8.76022 19.1594 8.77812 20.5054 8.00905 21.9179C7.67397 22.5333 7.49565 23.2338 7.24223 23.8941C7.13648 24.1697 7.04451 24.4841 6.67692 24.4901C6.34368 24.4955 6.2306 24.2117 6.1091 23.9636C5.85846 23.4517 5.61063 22.9384 5.36236 22.4254C4.95478 21.5831 4.94327 21.5784 4.03431 21.9502Z" fill="black"/>
<path d="M6.60352 11.2622C6.73863 11.0959 6.74292 11.0829 6.87191 11.1256C7.44332 11.3146 7.99388 11.2179 8.53953 11.0206C9.02277 10.8459 9.21589 10.5684 9.02731 10.0254C8.77892 9.31033 9.07588 8.64963 9.70124 8.34366C10.3062 8.04766 11.0721 8.25254 11.4844 8.82062C11.8105 9.27004 11.7519 10.0919 11.3496 10.7101C10.4602 12.0766 8.57749 12.4643 7.06191 11.5891C6.90967 11.5012 6.77165 11.3887 6.60352 11.2622Z" fill="#ED2424"/>
<path d="M7.93389 8.5548C8.54073 9.59328 8.15583 10.5659 7.08388 10.8325C6.83958 10.8933 6.62171 10.8632 6.39848 10.762C5.40995 10.314 4.91225 9.20225 5.12776 7.91237C5.32016 6.7608 6.35823 5.59755 7.40939 5.47168C7.03326 6.012 6.6347 6.46102 6.54618 7.08375C6.44406 7.80231 6.47764 7.91142 7.198 8.11983C7.46514 8.19712 7.72108 8.29484 7.93389 8.5548Z" fill="black"/>
<path d="M11.4313 8.00268C11.2168 7.77006 11.0313 7.56791 10.8353 7.37657C10.4529 7.00327 10.1131 7.01315 9.73246 7.42617C9.23078 7.97058 8.69434 8.07045 8.14471 7.80871C7.60118 7.54987 7.30057 6.99639 7.35369 6.35225C7.40342 5.749 7.78525 5.34197 8.4789 5.15276C9.48468 4.8784 10.7151 5.36226 11.4161 6.34091C11.9739 7.11964 12.1773 7.98525 11.9514 9.08743C11.7452 8.65123 11.6003 8.34464 11.4313 8.00268Z" fill="black"/>
</svg>
