<svg width="21" height="23" viewBox="0 0 21 23" fill="none" xmlns="http://www.w3.org/2000/svg">
<path d="M7.66892 13.323C7.51929 13.2528 7.3687 13.1845 7.22109 13.1102C7.1989 13.0991 7.17463 13.0578 7.17827 13.0347C7.24835 12.5884 7.21033 12.1273 7.35435 11.6917C7.61143 10.914 8.13405 10.3966 8.90433 10.1255C8.9434 10.1118 8.98297 10.0995 9.02216 10.0861C9.16025 10.0389 9.2226 9.94091 9.18787 9.82604C9.14922 9.69817 9.04146 9.64279 8.90175 9.68306C8.51431 9.79474 8.16023 9.97205 7.85088 10.2323C7.22476 10.7589 6.88289 11.431 6.82589 12.2479C6.81289 12.4342 6.79502 12.6203 6.77843 12.8179C6.75088 12.8057 6.72839 12.8002 6.71127 12.7875C5.42947 11.8354 4.71594 10.568 4.61486 8.97032C4.58159 8.44444 4.78764 7.98001 5.05981 7.54382C5.24185 7.25207 5.4773 7.00738 5.75924 6.79022C5.76991 6.78364 5.78162 6.78419 5.7872 6.78721C5.79792 6.79677 5.80305 6.80332 5.80469 6.81125C5.80359 6.81178 5.806 6.81093 5.81725 6.81158C5.89027 6.84322 5.95816 6.86743 6.01799 6.90462C6.21847 7.02923 6.44512 6.98984 6.64014 6.94517C6.91186 6.88294 7.16445 6.73597 7.32807 6.49049C7.38681 6.40238 7.41245 6.2922 7.46463 6.1894C8.23011 6.16624 8.89265 6.40565 9.46989 6.88802C9.59344 6.99127 9.6865 6.99397 9.80129 6.89777C10.5223 6.29356 11.3476 6.06863 12.2717 6.23876C12.8553 6.3462 13.3678 6.60491 13.7866 7.03777C13.7676 7.08452 13.7547 7.12392 13.7364 7.16056C13.63 7.37299 13.6412 7.59075 13.7257 7.80229C13.8388 8.08554 14.0792 8.2115 14.3616 8.26772C14.4227 8.27988 14.4899 8.26121 14.5543 8.25674C14.6948 8.608 14.6865 8.96984 14.6365 9.33628C14.4545 10.6686 13.8394 11.7572 12.8015 12.6091C12.7805 12.6264 12.7568 12.6405 12.7095 12.6734C12.6923 11.9987 12.5747 11.3734 12.1932 10.8109C12.3322 10.6796 12.3523 10.5937 12.2648 10.4876C12.2385 10.4557 12.2069 10.4281 12.1776 10.3988C12.0425 10.2636 12.0422 10.2634 12.1749 10.1314C12.3268 9.98028 12.4573 9.81352 12.479 9.59333C12.4903 9.47778 12.4687 9.35899 12.4608 9.2215C12.4985 9.25495 12.5283 9.27997 12.5566 9.30664C12.7131 9.45445 12.8703 9.60165 13.0252 9.75127C13.0846 9.80872 13.1433 9.82617 13.2104 9.76825C13.2772 9.71057 13.2864 9.63979 13.2394 9.56895C13.2133 9.52977 13.1697 9.50257 13.1357 9.46832C12.8876 9.21838 12.6405 8.9673 12.3916 8.71814C12.2946 8.6211 12.2041 8.62578 12.1234 8.7386C12.0814 8.79731 12.045 8.80267 11.9796 8.78158C11.7301 8.70113 11.4892 8.71728 11.2783 8.88645C11.166 8.97644 11.0587 9.07486 10.9615 9.18086C10.7442 9.41807 10.7472 9.42105 10.9521 9.67406C10.9752 9.70261 11.0057 9.72673 11.0223 9.75839C11.0316 9.77607 11.0193 9.80506 11.0167 9.82895C10.8164 9.76572 10.6178 9.69632 10.4152 9.64139C10.2758 9.60359 10.1675 9.67452 10.1406 9.80035C10.1161 9.91486 10.1909 10.0168 10.3233 10.052C10.4269 10.0795 10.53 10.1091 10.6376 10.1504C10.6382 10.1789 10.6401 10.2011 10.6301 10.2095C10.4775 10.3398 10.3644 10.4948 10.331 10.7263C10.275 10.6797 10.2405 10.654 10.2096 10.6244C10.1378 10.5559 10.077 10.4697 9.99382 10.4216C9.93851 10.3896 9.84185 10.3897 9.78431 10.4177C9.75536 10.4318 9.74385 10.5612 9.77394 10.602C9.86107 10.72 9.97432 10.8185 10.075 10.9269C10.1042 10.9584 10.1256 10.9972 10.1421 11.0378C9.65749 11.1275 9.20233 11.0692 8.76885 10.8487C8.64842 10.7874 8.53132 10.8321 8.4766 10.9475C8.42648 11.0532 8.46166 11.1751 8.58753 11.2234C8.83732 11.3193 9.09474 11.3954 9.34867 11.4888C9.2917 11.6052 9.24624 11.7147 9.28442 11.8395C9.30175 11.8962 9.32087 11.9523 9.33918 12.0086C9.32962 12.0172 9.32006 12.0259 9.31049 12.0345C9.25667 11.9844 9.21014 11.9188 9.14677 11.8889C9.09385 11.864 9.0065 11.857 8.96085 11.885C8.89769 11.9239 8.86974 12.0018 8.94104 12.076C9.05581 12.1954 9.15749 12.3296 9.28316 12.4357C9.4379 12.5663 9.51481 12.7132 9.50204 12.9191C9.49002 13.113 9.37191 13.2199 9.2201 13.2908C9.08786 13.3525 8.93649 13.3444 8.8218 13.2475C8.64795 13.1008 8.48917 12.9362 8.3239 12.7792C8.24965 12.7087 8.10864 12.6909 8.08639 12.7628C8.04956 12.8819 7.9365 12.8919 7.87372 12.9646C7.82112 13.0256 7.78216 13.099 7.74161 13.1695C7.71347 13.2184 7.69288 13.2717 7.66892 13.323ZM13.3746 9.55166C13.4813 9.5178 13.5196 9.44479 13.5156 9.33416C13.5094 9.16423 13.5186 8.99372 13.512 8.82382C13.5085 8.73147 13.5367 8.69971 13.6311 8.70308C13.8176 8.70973 14.0045 8.7043 14.1913 8.70532C14.2964 8.7059 14.3693 8.63679 14.3745 8.55354C14.3801 8.46241 14.297 8.4085 14.1981 8.40618C14.1732 8.4056 14.1483 8.40582 14.1234 8.40581C13.9657 8.40575 13.8078 8.40112 13.6504 8.40734C13.5487 8.41136 13.5084 8.37773 13.512 8.27247C13.5184 8.08593 13.5139 7.89901 13.5137 7.71225C13.5136 7.61738 13.4742 7.54715 13.3748 7.53795C13.2754 7.52876 13.2154 7.59961 13.2148 7.71328C13.2139 7.89588 13.2083 8.07879 13.2169 8.261C13.2224 8.37979 13.1765 8.41557 13.0645 8.40704C12.8916 8.39387 12.7182 8.38592 12.5448 8.38249C12.4485 8.38059 12.3632 8.46498 12.3678 8.55153C12.3736 8.66083 12.452 8.68023 12.5417 8.6803C12.7285 8.68045 12.9153 8.67739 13.1019 8.68311C13.1389 8.68425 13.2047 8.7165 13.2065 8.73844C13.2211 8.92307 13.2403 9.11002 13.2247 9.29346C13.2139 9.42147 13.2405 9.50143 13.3746 9.55166ZM7.95894 7.96345C7.91687 7.93694 7.87519 7.90976 7.83266 7.88401C7.51323 7.69064 7.1711 7.56184 6.79841 7.51871C6.65275 7.50186 6.5343 7.57469 6.51514 7.69658C6.49541 7.82208 6.58461 7.92223 6.73582 7.93849C7.27536 7.9965 7.71241 8.258 8.09809 8.62193C8.21985 8.73683 8.34268 8.74696 8.43411 8.64751C8.52676 8.54672 8.51336 8.42385 8.38616 8.31281C8.25216 8.19583 8.11101 8.08705 7.95894 7.96345ZM11.117 8.11622C11.0397 8.18514 10.9601 8.25172 10.8855 8.32353C10.7679 8.43675 10.7587 8.56263 10.8563 8.65893C10.945 8.74652 11.0692 8.7309 11.1844 8.62164C11.5759 8.25022 12.0208 7.98813 12.5712 7.93334C12.6285 7.92763 12.7083 7.88308 12.7286 7.83556C12.7556 7.77245 12.7569 7.67845 12.7286 7.61629C12.6883 7.5279 12.5928 7.50606 12.4934 7.51748C11.9799 7.57646 11.533 7.78825 11.117 8.11622ZM12.0652 8.64466C12.1549 8.55063 12.171 8.45784 12.1086 8.38582C12.0442 8.31141 11.9511 8.30107 11.8903 8.35814C11.8395 8.40573 11.8033 8.50094 11.8102 8.57009C11.8195 8.66259 11.935 8.69398 12.0652 8.64466Z" fill="black"/>
<path d="M8.20354 22.3455C8.08195 22.4588 7.96035 22.572 7.82663 22.695C7.71987 22.7701 7.62524 22.8354 7.52262 22.8984C7.49271 22.8978 7.47078 22.8995 7.44377 22.8987C7.43088 22.895 7.42369 22.8966 7.41713 22.9011C7.33844 22.8994 7.25974 22.8961 7.18105 22.8961C4.83162 22.8961 2.48218 22.8963 0.132752 22.8965C0.0959186 22.8965 0.0590849 22.8965 0.0078125 22.8965C0.0078125 22.7569 0.00781251 22.6252 0.0190686 22.4819C0.0534793 22.4435 0.0766338 22.4169 0.0998393 22.3903C0.156992 22.4369 0.210404 22.4894 0.272576 22.5278C0.310115 22.5509 0.374112 22.5744 0.403241 22.5576C0.445673 22.5333 0.482151 22.4763 0.493751 22.4269C0.50496 22.379 0.481435 22.3231 0.473151 22.2707C0.473136 22.2707 0.473106 22.2707 0.48226 22.2718C0.562245 22.3304 0.641089 22.339 0.700269 22.2695C0.737901 22.2252 0.764392 22.1567 0.765097 22.0987C0.767255 21.9213 0.756768 21.7435 0.746688 21.5662C0.741225 21.4701 0.78649 21.4424 0.87416 21.4473C1.05356 21.4574 1.23323 21.469 1.41269 21.4677C1.46589 21.4673 1.53071 21.4373 1.56785 21.3991C1.59537 21.3708 1.60966 21.289 1.58925 21.2634C1.54988 21.2141 1.48322 21.16 1.42537 21.1571C1.26527 21.1489 1.10395 21.1695 0.942988 21.1724C0.747581 21.176 0.750643 21.1732 0.746576 20.9745C0.742688 20.7846 0.733689 20.5947 0.722303 20.405C0.71727 20.3212 0.658063 20.2925 0.582049 20.3019C0.489157 20.3135 0.447491 20.3711 0.448001 20.4641C0.449096 20.6633 0.447447 20.8626 0.44867 21.0619C0.44914 21.1387 0.433843 21.1716 0.339806 21.1557C0.253294 21.141 0.160195 21.1653 0.0699986 21.1724C0.107303 20.702 0.218578 20.2467 0.372598 19.8033C1.01001 17.9681 2.1996 16.611 3.92603 15.7227C3.94746 15.7117 3.96934 15.7015 3.98664 15.6931C4.11563 16.101 4.22881 16.5077 4.37209 16.9035C4.9515 18.5041 5.79225 19.9452 7.0047 21.1545C7.39073 21.5395 7.80884 21.8866 8.27167 22.2021C8.25701 22.2555 8.23028 22.3005 8.20354 22.3455ZM2.92637 19.6379C2.81529 19.7248 2.68615 19.7452 2.60972 19.6777C2.52982 19.6072 2.4571 19.5283 2.38291 19.4515C2.21756 19.2803 2.05518 19.1062 1.88769 18.9371C1.80537 18.854 1.72293 18.7645 1.6235 18.7078C1.57795 18.6818 1.48267 18.714 1.42755 18.7481C1.4059 18.7616 1.41076 18.872 1.44047 18.9051C1.6258 19.1119 1.82182 19.3091 2.01366 19.5101C2.04165 19.5394 2.06631 19.5719 2.09251 19.6029C1.77303 19.4309 1.39012 19.4727 1.16463 19.6724C1.08238 19.7452 1.02954 19.8541 0.972488 19.9519C0.859882 20.145 0.879213 20.3469 0.954446 20.5459C1.05892 20.8223 1.2605 20.9633 1.55529 21.0105C1.93566 21.0714 2.35088 20.8012 2.41623 20.4188C2.42521 20.3663 2.43331 20.3042 2.41358 20.2588C2.39181 20.2088 2.34376 20.1523 2.29529 20.1375C2.25836 20.1263 2.18191 20.1634 2.16017 20.2007C2.11786 20.2732 2.1025 20.3613 2.07438 20.4424C1.99658 20.6666 1.65403 20.8142 1.48901 20.6603C1.51577 20.6281 1.54109 20.5929 1.57116 20.5624C1.69623 20.4356 1.83059 20.3169 1.94645 20.1822C2.05721 20.0535 2.2461 19.9759 2.2261 19.7563C2.25207 19.7654 2.26475 19.7669 2.27378 19.7735C2.30059 19.7929 2.33067 19.8105 2.35114 19.8356C2.50792 20.028 2.71214 20.0483 2.93511 19.9984C3.06256 19.9699 3.18359 19.8269 3.16479 19.7267C3.13929 19.5909 3.03153 19.6335 2.92637 19.6379ZM2.284 18.2642C2.2484 18.219 2.22124 18.1504 2.17533 18.1339C2.09479 18.1049 2.00276 18.1026 1.91553 18.1025C1.90153 18.1025 1.88744 18.1719 1.87104 18.2154C1.85574 18.2101 1.83178 18.2018 1.80793 18.1935C1.74969 18.3486 1.77873 18.4867 1.88669 18.5359C2.11769 18.6413 2.31429 18.5384 2.284 18.2642Z" fill="black"/>
<path d="M15.8845 22.9001C15.7312 22.8987 15.5779 22.8961 15.4246 22.8961C14.0314 22.8956 12.6382 22.8956 11.2324 22.8842C11.1921 22.8457 11.1644 22.8185 11.1367 22.7913C11.5969 22.2525 12.075 21.7277 12.5138 21.172C13.5618 19.845 14.4238 18.4054 15.0527 16.8316C15.1326 16.6317 15.2016 16.4275 15.2909 16.2184C15.5834 16.3286 15.8604 16.2911 16.1373 16.2097C16.6461 16.5382 17.0903 16.9412 17.4881 17.3953C18.2417 18.2557 18.7597 19.2408 19.0272 20.367C18.9811 20.4332 18.9468 20.4888 18.9031 20.5356C18.7768 20.6704 18.6173 20.7857 18.591 20.9838C18.578 21.081 18.6034 21.1833 18.6136 21.3104C18.5673 21.269 18.5336 21.2393 18.5004 21.209C18.4321 21.1467 18.3419 21.1125 18.2797 21.1822C18.2408 21.2259 18.2543 21.3206 18.2544 21.3924C18.2544 21.4152 18.2847 21.4403 18.305 21.4604C18.4435 21.5976 18.5886 21.7286 18.7195 21.8726C18.7714 21.9297 18.8101 22.0117 18.8238 22.0878C18.855 22.2626 18.7986 22.4027 18.6484 22.5185C18.471 22.6554 18.1943 22.6555 18.0435 22.4977C17.9045 22.3522 17.7611 22.2109 17.6166 22.0709C17.5269 21.984 17.4375 22.0053 17.3722 22.1094C17.3433 22.1553 17.2891 22.1855 17.2456 22.2219C17.218 22.245 17.1839 22.2623 17.1613 22.2893C17.0158 22.4636 16.9721 22.6693 16.982 22.8905C16.9064 22.8921 16.8309 22.8938 16.7432 22.8844C16.5847 22.6361 16.1113 22.601 15.9437 22.8167C15.9309 22.8332 15.9371 22.8645 15.9261 22.8909C15.9066 22.8952 15.8955 22.8977 15.8845 22.9001Z" fill="black"/>
<path d="M10.5218 2.57866C11.1088 2.65771 11.67 2.82744 12.2087 3.07026C13.0633 3.45554 13.7763 4.01003 14.2697 4.82165C14.5416 5.26897 14.7181 5.75237 14.8046 6.27611C14.7568 6.26394 14.7137 6.2472 14.6822 6.21802C14.5973 6.13946 14.52 6.0527 14.4347 5.97466C14.3515 5.89862 14.2511 5.89743 14.1935 5.97164C14.1311 6.05182 14.158 6.12294 14.2265 6.18968C14.3782 6.33749 14.5278 6.48753 14.6757 6.6391C14.718 6.68239 14.7516 6.73405 14.7948 6.78897C14.6261 6.76773 14.48 6.75186 14.3349 6.73009C14.2521 6.71769 14.2066 6.74291 14.1965 6.82523C13.6349 6.25029 12.9642 5.9005 12.1777 5.79239C11.2398 5.66345 10.3938 5.90707 9.6485 6.47082C9.48476 6.36778 9.33418 6.26408 9.1755 6.1748C8.65726 5.88322 8.09546 5.75848 7.50433 5.74268C7.52671 5.43585 7.38826 5.19927 7.19663 5.00067C6.98543 4.78178 6.71213 4.66726 6.40413 4.66848C6.28276 4.66896 6.16082 4.70125 6.04042 4.72542C5.91435 4.75072 5.8239 4.84674 5.71777 4.9023C5.47107 5.03145 5.36908 5.23991 5.27943 5.47794C5.20496 5.67568 5.2428 5.87125 5.26433 6.0658C5.28145 6.22058 5.34143 6.36702 5.45761 6.48149C5.13874 6.75068 4.85483 7.05079 4.64263 7.41296C4.57698 7.52502 4.51833 7.64117 4.44717 7.75134C4.40555 6.25686 4.69412 4.87971 5.85139 3.8146C6.41516 3.29573 7.0842 2.96622 7.81622 2.75929C8.60635 2.53593 9.40947 2.44132 10.2342 2.54577C10.1719 2.5734 10.2031 2.61833 10.2031 2.66103C10.2029 2.79497 10.2347 2.94972 10.1795 3.05864C10.053 3.30842 9.66559 3.34804 9.48256 3.16525C9.34515 3.02803 9.215 2.88217 9.06679 2.75783C9.01191 2.71178 8.87572 2.67521 8.84415 2.70527C8.7509 2.79404 8.64671 2.87798 8.56822 2.97704C8.48821 3.07802 8.42684 3.21194 8.4075 3.33908C8.3663 3.60984 8.46659 3.84273 8.6729 4.02626C8.73825 4.08439 8.74086 4.12779 8.65898 4.17952C8.58817 4.22425 8.53774 4.28811 8.56098 4.38834C8.59967 4.55519 8.50981 4.74565 8.36632 4.81943C8.20645 4.90164 8.00316 4.87526 7.88355 4.75863C7.78 4.65765 7.67631 4.55674 7.57017 4.45851C7.34937 4.25415 7.35747 4.04776 7.4473 3.88461C7.5313 3.73207 7.65776 3.68489 7.83348 3.71454C7.96353 3.73649 8.08397 3.68342 8.10157 3.59641C8.12834 3.46406 8.06628 3.36439 7.92509 3.34914C7.6742 3.32205 7.43111 3.37122 7.25358 3.55598C6.9537 3.86808 6.95471 4.37244 7.28075 4.67973C7.38574 4.77868 7.48815 4.88071 7.58683 4.98594C7.7914 5.20408 8.0522 5.29618 8.33031 5.22498C8.61694 5.1516 8.83377 4.9607 8.90078 4.64959C8.92357 4.54381 8.9273 4.43393 8.94123 4.31299C8.97287 4.33641 8.99297 4.34953 9.01106 4.36499C9.11237 4.45153 9.2108 4.46834 9.26371 4.40735C9.32525 4.33642 9.30785 4.23881 9.21352 4.1434C9.08209 4.01046 8.94767 3.88044 8.81792 3.7459C8.78593 3.71273 8.76193 3.66921 8.74296 3.62657C8.63909 3.39313 8.74417 3.20658 8.9029 2.99664C8.95311 3.05958 8.9973 3.11815 9.04476 3.17394C9.26609 3.43414 9.52436 3.61496 9.8898 3.56873C10.1046 3.54155 10.2761 3.44417 10.4006 3.26605C10.5476 3.05573 10.5737 2.82407 10.5218 2.57866Z" fill="black"/>
<path d="M7.3054 14.9846C7.38093 14.986 7.45645 14.9874 7.55454 14.9891C7.71034 14.9883 7.84357 14.9872 7.9768 14.9861C8.35071 14.9873 8.72463 14.9893 9.09855 14.9896C10.2123 14.9907 11.3261 14.9888 12.4398 14.9939C12.6423 14.9948 12.8447 15.0234 13.074 15.0414C12.9964 15.2949 12.9316 15.5369 12.8488 15.7726C12.4015 17.0456 11.7066 18.1822 10.9147 19.2646C10.8363 19.3718 10.7544 19.4764 10.6645 19.5944C10.6009 19.6795 10.547 19.7525 10.4859 19.8295C10.3304 20.0156 10.182 20.1976 10.0314 20.3823C9.87813 20.2499 9.7324 20.1273 9.59036 20.0006C8.68504 19.1928 7.89662 18.2872 7.34225 17.2016C7.12274 16.7717 6.96738 16.3091 6.78357 15.8514C6.7389 15.6476 6.69348 15.4538 6.64806 15.26C6.63831 15.1789 6.62855 15.0978 6.61719 15.0033C6.69636 14.9988 6.76507 14.995 6.85645 14.991C7.02121 14.9889 7.1633 14.9867 7.3054 14.9846Z" fill="black"/>
<path d="M12.0674 18.3286C12.32 17.8628 12.5835 17.4025 12.8224 16.9298C13.1071 16.3664 13.3232 15.7751 13.47 15.1597C13.4736 15.1446 13.4831 15.1309 13.502 15.0907C13.8585 15.1957 14.2149 15.3007 14.5789 15.421C14.5957 15.4754 14.596 15.52 14.6159 15.5526C14.7059 15.7002 14.8015 15.8444 14.895 15.9898C14.6912 16.501 14.5132 17.0243 14.2791 17.5213C13.3419 19.5108 12.0491 21.2515 10.5123 22.816C10.4696 22.8596 10.3938 22.8907 10.3325 22.8925C10.0546 22.9004 9.7763 22.8956 9.48688 22.8839C9.49533 22.8435 9.51069 22.8099 9.53558 22.7864C9.61581 22.7106 9.62851 22.6372 9.54664 22.553C9.48361 22.4882 9.42019 22.4219 9.37013 22.3474C9.35142 22.3195 9.35376 22.2536 9.37461 22.2274C9.44603 22.1378 9.53836 22.0646 9.60725 21.9734C9.73939 21.7986 9.7897 21.6024 9.72206 21.3791C9.75031 21.3478 9.77552 21.3234 9.8074 21.3043C9.96887 21.476 10.1135 21.6538 10.2824 21.8043C10.3794 21.8908 10.5182 21.8094 10.5546 21.6691C10.5821 21.6431 10.6021 21.6203 10.6312 21.5966C10.7551 21.5693 10.8025 21.4983 10.7979 21.3803C10.7922 21.2353 10.7966 21.0898 10.7966 20.9445C10.7966 20.7488 10.8155 20.7284 11.0168 20.7254C11.1828 20.7229 11.3489 20.7233 11.5149 20.7253C11.6171 20.7265 11.6477 20.6601 11.6415 20.5797C11.6333 20.4746 11.5483 20.4541 11.4603 20.4506C11.2827 20.4434 11.103 20.418 10.9282 20.4373C10.7663 20.4553 10.7989 20.3625 10.8031 20.2754C10.8055 20.2586 10.8012 20.2424 10.7956 20.2171C10.7821 20.1961 10.77 20.184 10.7612 20.1646C10.7683 20.1477 10.7721 20.1379 10.7759 20.1282C10.7846 20.1205 10.7933 20.1129 10.8179 20.103C10.8542 20.0665 10.8746 20.0322 10.895 19.9979C10.9135 19.9711 10.932 19.9443 10.959 19.9238C10.9707 19.9721 10.9739 20.0141 10.979 20.0812C11.0207 20.0451 11.0458 20.0234 11.0769 20.0058C11.2612 20.203 11.4741 20.3173 11.7499 20.3076C11.7849 20.3015 11.8145 20.2889 11.8543 20.2762C11.8979 20.275 11.9362 20.2844 11.9635 20.2712C12.2111 20.1514 12.4987 19.8599 12.4367 19.534C12.4272 19.4837 12.3492 19.4229 12.2947 19.4133C12.2604 19.4072 12.1824 19.4818 12.1729 19.5298C12.1254 19.7695 11.9652 19.9604 11.7441 19.9943C11.6763 20.0047 11.6027 19.9778 11.5318 19.968C11.5661 19.9118 11.5992 19.8547 11.6355 19.7997C11.6489 19.7794 11.6711 19.765 11.6875 19.7463C11.8881 19.5179 12.1529 19.3473 12.2986 19.0692C12.3009 19.0648 12.3137 19.066 12.326 19.0637C12.4579 19.2455 12.6445 19.2902 12.8608 19.2814C13.0095 19.2754 13.1194 19.2297 13.1686 19.0844C13.1819 19.0452 13.191 18.9847 13.1706 18.959C13.1454 18.9273 13.0875 18.909 13.0434 18.9085C13.0014 18.9079 12.9588 18.9369 12.9169 18.954C12.8234 18.9924 12.7251 19.0064 12.6492 18.9309C12.4513 18.7341 12.2609 18.5298 12.0674 18.3286Z" fill="black"/>
<path d="M8.03234 21.4961C7.44014 21.041 6.93267 20.5023 6.47966 19.9116C5.74558 18.9542 5.19258 17.8982 4.77977 16.7667C4.76288 16.7204 4.74529 16.6744 4.73633 16.6193C4.79736 16.6543 4.84579 16.7051 4.90355 16.7407C5.15196 16.8943 5.40598 17.033 5.7159 16.985C5.74827 16.9799 5.78214 16.9855 5.81522 16.984C5.97385 16.9769 6.11707 16.9356 6.24903 16.8371C6.35729 16.7564 6.48491 16.7015 6.6095 16.6424C6.94816 17.465 7.40236 18.2079 7.9521 18.8949C8.36259 19.4079 8.82353 19.8719 9.29915 20.3258C9.25961 20.3553 9.22651 20.3917 9.18982 20.3957C9.09103 20.4067 9.05223 20.485 9.06285 20.5502C9.07275 20.611 9.13592 20.6879 9.19329 20.7085C9.24235 20.726 9.33485 20.6908 9.37456 20.6479C9.41944 20.5994 9.42684 20.5162 9.45832 20.4512C9.52695 20.503 9.58779 20.5516 9.65149 20.607C9.66374 20.6247 9.67313 20.6356 9.6741 20.65C9.63165 20.6743 9.58902 20.7201 9.56504 20.7118C9.43833 20.6682 9.3901 20.7363 9.36268 20.8455C9.31643 20.8314 9.27784 20.8186 9.23873 20.8078C8.97591 20.7348 8.72776 20.7644 8.51981 20.9473C8.33577 21.1092 8.11997 21.247 8.03234 21.4961Z" fill="black"/>
<path d="M18.9482 7.20609C19.1285 6.88775 19.3045 6.57747 19.481 6.26749C19.6562 5.95991 19.9964 5.85341 20.2889 6.01405C20.5785 6.17314 20.6717 6.52654 20.4975 6.83363C19.7032 8.23335 18.9069 9.63185 18.1111 11.0307C18.0952 11.0586 18.0773 11.0854 18.0556 11.1201C17.7194 10.9291 17.3887 10.7411 17.0469 10.5468C17.6816 9.43202 18.3128 8.32315 18.9482 7.20609Z" fill="black"/>
<path d="M9.64879 2.0672C9.06244 2.0871 8.48058 2.14582 7.91259 2.29811C7.62149 2.37615 7.33582 2.47443 7.04955 2.56299C7.01069 1.88056 7.39582 0.965558 8.19835 0.434655C9.08137 -0.149503 10.2057 -0.146603 11.0903 0.453975C11.0782 0.530368 11.0616 0.590033 11.0353 0.684439C10.915 0.57237 10.8225 0.486852 10.7308 0.400529C10.6654 0.339021 10.593 0.300474 10.5098 0.360049C10.4205 0.424003 10.4467 0.520152 10.4965 0.579327C10.6268 0.734149 10.7725 0.876144 10.9146 1.0207C11.0564 1.16486 11.2013 1.30591 11.3397 1.4549C11.313 1.46548 11.2914 1.46948 11.2584 1.47347C11.0419 1.44871 10.8807 1.52406 10.7486 1.68022C10.6986 1.7394 10.6337 1.7866 10.573 1.83605C10.4962 1.8986 10.4139 1.88619 10.3467 1.82663C10.2694 1.75811 10.2906 1.67202 10.3484 1.60414C10.4202 1.51991 10.5054 1.44731 10.5824 1.36735C10.6481 1.29918 10.7186 1.23345 10.7718 1.15618C10.8335 1.06652 10.7722 0.950471 10.6634 0.95398C10.6037 0.95591 10.5363 0.98724 10.4882 1.02537C10.4076 1.08938 10.3415 1.17142 10.2659 1.24231C10.0613 1.43424 9.92128 1.6458 10.0382 1.94208C10.0402 1.94713 10.0321 1.95614 10.0194 1.98318C9.92168 1.88594 9.82516 1.74499 9.67547 1.8514C9.63559 1.87975 9.65604 1.99295 9.64879 2.0672Z" fill="#ED2424"/>
<path d="M11.1432 10.3781C11.4806 10.6141 11.7648 10.8991 11.9645 11.2633C12.1391 11.5814 12.2292 11.9232 12.2615 12.2827C12.2782 12.4686 12.2933 12.655 12.321 12.8394C12.3334 12.9218 12.3144 12.9617 12.2421 13.0049C11.6357 13.3674 10.9849 13.6017 10.2843 13.6933C9.50129 13.7957 8.73649 13.7151 7.98438 13.438C8.0325 13.2979 8.08726 13.1736 8.1528 13.0249C8.25335 13.1283 8.33462 13.2221 8.42657 13.3038C8.53979 13.4045 8.6504 13.5198 8.78391 13.5822C8.8867 13.6303 9.02778 13.6312 9.14367 13.6095C9.42946 13.5559 9.65727 13.4318 9.76167 13.1187C9.86367 12.8128 9.79209 12.4946 9.55778 12.2868C9.51007 12.2445 9.46814 12.1956 9.42355 12.1498C9.43136 12.142 9.43918 12.1343 9.44699 12.1265C9.46565 12.1339 9.48476 12.1404 9.50289 12.1489C9.76248 12.2709 9.91138 12.2452 10.1144 12.0409C10.1553 11.9998 10.1911 11.9538 10.2313 11.9121C10.3197 11.8204 10.4413 11.7927 10.5067 11.8476C10.5747 11.9046 10.5601 12.0151 10.4578 12.1196C10.3427 12.2371 10.2201 12.3473 10.0992 12.459C10.0214 12.531 10.0256 12.6211 10.0702 12.6963C10.1199 12.7803 10.1968 12.7509 10.2628 12.7C10.2759 12.6899 10.2928 12.6842 10.3043 12.6728C10.4676 12.5105 10.6342 12.3512 10.7901 12.182C10.8273 12.1417 10.8356 12.0687 10.8431 12.009C10.8518 11.9394 10.845 11.8679 10.8523 11.7942C10.8797 11.7848 10.8997 11.7786 10.9278 11.7759C10.9504 11.7872 10.9675 11.7922 10.9791 11.8031C11.0565 11.8755 11.1154 11.8447 11.1782 11.7779C11.2452 11.7066 11.2153 11.6554 11.161 11.5984C11.093 11.5272 11.0251 11.4554 10.9646 11.378C10.9309 11.335 10.9121 11.2802 10.8931 11.2259C10.9863 11.1707 11.0422 11.0917 11.0096 10.9976C10.9871 10.933 10.9254 10.8656 10.8637 10.8361C10.8146 10.8126 10.7389 10.8445 10.6675 10.8484C10.6472 10.8166 10.6191 10.7849 10.6242 10.7603C10.6546 10.6154 10.7367 10.5066 10.8701 10.4376C10.931 10.406 10.9895 10.3699 11.0572 10.3388C11.0913 10.3539 11.1173 10.366 11.1432 10.3781Z" fill="black"/>
<path d="M14.7081 15.0019C14.5546 14.9527 14.401 14.9035 14.2344 14.8502C14.8534 13.7617 15.4693 12.6789 16.0915 11.5847C16.6147 11.8822 17.1315 12.1761 17.6583 12.4757C17.5884 12.594 17.5219 12.7066 17.4387 12.8177C17.3934 12.7781 17.3704 12.7139 17.3353 12.7065C17.2036 12.6787 17.0752 12.5974 16.9309 12.6784C16.8659 12.7149 16.7852 12.7235 16.7116 12.734C16.7167 12.5356 16.5929 12.4148 16.4442 12.477C16.3827 12.5027 16.3278 12.5682 16.2924 12.6287C16.0276 13.0811 15.7683 13.5369 15.5003 13.9887C15.1377 14.0561 14.6029 14.4048 14.5816 14.8506C14.638 14.918 14.673 14.9599 14.7081 15.0019Z" fill="black"/>
<path d="M10.5128 2.57495C10.5746 2.82407 10.5484 3.05573 10.4014 3.26605C10.277 3.44417 10.1055 3.54156 9.89068 3.56874C9.52523 3.61497 9.26697 3.43414 9.04563 3.17394C8.99818 3.11815 8.95399 3.05958 8.90378 2.99664C8.74505 3.20658 8.63997 3.39313 8.74384 3.62658C8.76281 3.66921 8.78681 3.71274 8.8188 3.7459C8.94855 3.88044 9.08296 4.01047 9.21439 4.14341C9.30872 4.23882 9.32613 4.33642 9.26459 4.40735C9.21167 4.46834 9.11324 4.45154 9.01194 4.36499C8.99384 4.34953 8.97374 4.33642 8.94211 4.313C8.92818 4.43394 8.92444 4.54381 8.90166 4.64959C8.83465 4.96071 8.61782 5.1516 8.33118 5.22498C8.05308 5.29619 7.79228 5.20408 7.58771 4.98594C7.48903 4.88072 7.38662 4.77868 7.28163 4.67973C6.95559 4.37244 6.95458 3.86808 7.25446 3.55598C7.43199 3.37122 7.67507 3.32205 7.92597 3.34915C8.06716 3.36439 8.12922 3.46407 8.10244 3.59641C8.08484 3.68342 7.96441 3.7365 7.83436 3.71455C7.65864 3.68489 7.53218 3.73207 7.44818 3.88462C7.35834 4.04777 7.35025 4.25416 7.57105 4.45851C7.67718 4.55675 7.78088 4.65766 7.88443 4.75863C8.00403 4.87527 8.20733 4.90164 8.3672 4.81943C8.51069 4.74565 8.60054 4.55519 8.56186 4.38834C8.53862 4.28811 8.58905 4.22425 8.65985 4.17952C8.74174 4.12779 8.73912 4.08439 8.67378 4.02626C8.46746 3.84273 8.36718 3.60985 8.40837 3.33908C8.42772 3.21195 8.48909 3.07803 8.5691 2.97704C8.64758 2.87798 8.75177 2.79405 8.84503 2.70527C8.8766 2.67522 9.01278 2.71179 9.06767 2.75783C9.21588 2.88217 9.34603 3.02803 9.48344 3.16526C9.66647 3.34804 10.0538 3.30842 10.1804 3.05864C10.2356 2.94973 10.2038 2.79497 10.204 2.66103C10.204 2.61833 10.1728 2.5734 10.2444 2.5498C10.3337 2.55249 10.4183 2.56187 10.5128 2.57495Z" fill="black"/>
<path d="M6.60434 16.6352C6.4853 16.7016 6.35769 16.7564 6.24942 16.8372C6.11746 16.9356 5.97424 16.9769 5.81561 16.984C5.78253 16.9855 5.74866 16.98 5.71629 16.985C5.40637 17.0331 5.15235 16.8943 4.90394 16.7408C4.84618 16.7051 4.79775 16.6543 4.73556 16.6094C4.62487 16.2786 4.5256 15.9482 4.42107 15.6195C4.39363 15.5332 4.41702 15.4893 4.50154 15.4657C4.56077 15.4492 4.6177 15.4245 4.69181 15.3972C4.92561 15.3238 5.14327 15.2565 5.36914 15.1897C5.39784 15.1835 5.41832 15.177 5.44915 15.1716C5.70131 15.1276 5.94312 15.0825 6.19153 15.0361C6.2571 15.5221 6.35797 15.9761 6.53483 16.4199C6.55803 16.4978 6.58118 16.5665 6.60434 16.6352ZM5.36067 15.6252C5.35113 15.6517 5.34366 15.6793 5.33173 15.7047C5.25711 15.8639 5.26942 15.9732 5.38199 16.0849C5.44291 16.1453 5.50953 16.2 5.57006 16.2541C5.63078 16.2336 5.68396 16.2017 5.73812 16.2C5.92194 16.194 5.98869 16.0723 6.02518 15.9223C6.05095 15.8164 6.10233 15.7008 5.94841 15.6346C5.90793 15.6172 5.88545 15.5603 5.85133 15.5249C5.82929 15.502 5.79487 15.4634 5.77665 15.4687C5.63698 15.5092 5.49992 15.5586 5.36067 15.6252Z" fill="black"/>
<path d="M5.46343 6.48185C5.34236 6.36701 5.28238 6.22057 5.26525 6.06578C5.24373 5.87124 5.20589 5.67566 5.28036 5.47793C5.37001 5.23989 5.472 5.03144 5.7187 4.90229C5.82483 4.84673 5.91527 4.75071 6.04134 4.7254C6.16175 4.70124 6.28368 4.66895 6.40506 4.66847C6.71306 4.66725 6.98635 4.78177 7.19756 5.00065C7.38919 5.19925 7.52763 5.43583 7.49719 5.74595C7.47783 5.76273 7.46663 5.76553 7.44704 5.76586C7.42731 5.76527 7.41596 5.76716 7.3939 5.76668C7.18182 5.79199 6.98045 5.81967 6.77043 5.84363C6.76244 5.81524 6.76427 5.79055 6.76344 5.76594C6.76232 5.73252 6.77237 5.68743 6.75479 5.66764C6.61077 5.5056 6.47242 5.34052 6.21151 5.47667C6.13748 5.5153 6.09072 5.54172 6.05363 5.6203C5.97409 5.78882 5.96114 5.94204 6.08525 6.09639C6.08516 6.10099 6.0826 6.10983 6.07362 6.11062C5.86914 6.235 5.67364 6.3586 5.47814 6.48219C5.47814 6.48219 5.46832 6.48223 5.46343 6.48185Z" fill="black"/>
<path d="M10.8477 11.7973C10.8477 11.868 10.8545 11.9394 10.8458 12.009C10.8384 12.0687 10.83 12.1418 10.7929 12.1821C10.637 12.3513 10.4703 12.5105 10.307 12.6728C10.2955 12.6842 10.2786 12.6899 10.2656 12.7C10.1996 12.7509 10.1226 12.7803 10.0729 12.6964C10.0284 12.6211 10.0241 12.531 10.1019 12.4591C10.2228 12.3473 10.3455 12.2371 10.4606 12.1196C10.5628 12.0151 10.5774 11.9046 10.5095 11.8476C10.444 11.7927 10.3225 11.8204 10.2341 11.9121C10.1938 11.9538 10.158 11.9998 10.1172 12.0409C9.91412 12.2452 9.76522 12.2709 9.50563 12.1489C9.4875 12.1404 9.46839 12.134 9.44973 12.1266C9.44191 12.1343 9.4341 12.1421 9.42629 12.1498C9.47088 12.1956 9.51281 12.2445 9.56052 12.2868C9.79483 12.4946 9.86641 12.8128 9.76441 13.1187C9.66001 13.4318 9.4322 13.556 9.14641 13.6095C9.03051 13.6312 8.88943 13.6303 8.78665 13.5823C8.65313 13.5199 8.54253 13.4045 8.42931 13.3038C8.33736 13.2221 8.25609 13.1283 8.15554 13.0249C8.09 13.1737 8.03524 13.2979 7.98032 13.4318C7.96039 13.4374 7.94062 13.4334 7.90448 13.4237C7.83619 13.4001 7.78428 13.3821 7.73237 13.3641C7.71505 13.3544 7.69773 13.3447 7.67578 13.329C7.69511 13.2716 7.7157 13.2184 7.74384 13.1695C7.78439 13.099 7.82334 13.0256 7.87595 12.9646C7.93873 12.8918 8.05178 12.8818 8.08862 12.7628C8.11087 12.6908 8.25188 12.7087 8.32613 12.7792C8.4914 12.9361 8.65018 13.1007 8.82403 13.2475C8.93871 13.3443 9.09009 13.3524 9.22233 13.2907C9.37414 13.2198 9.49225 13.1129 9.50427 12.919C9.51703 12.7132 9.44012 12.5663 9.28539 12.4356C9.15972 12.3295 9.05803 12.1953 8.94327 12.0759C8.87197 12.0017 8.89992 11.9238 8.96308 11.885C9.00873 11.8569 9.09607 11.8639 9.149 11.8889C9.21237 11.9187 9.2589 11.9843 9.31272 12.0344C9.32228 12.0258 9.33185 12.0172 9.34141 12.0086C9.3231 11.9522 9.30398 11.8961 9.28664 11.8395C9.24846 11.7147 9.29393 11.6051 9.36114 11.4875C9.47314 11.4879 9.57457 11.4985 9.67617 11.5182C9.65923 11.5678 9.6504 11.6152 9.62335 11.6472C9.55844 11.724 9.55477 11.8061 9.62105 11.8693C9.68724 11.9325 9.7781 11.946 9.85599 11.8757C9.9265 11.8121 9.99187 11.7428 10.0591 11.6756C10.2377 11.4972 10.4127 11.4648 10.6337 11.5926C10.7167 11.6406 10.777 11.7279 10.8477 11.7973Z" fill="black"/>
<path d="M11.0226 9.83569C11.0197 9.80502 11.0319 9.77603 11.0227 9.75835C11.0061 9.72669 10.9756 9.70257 10.9524 9.67402C10.7476 9.42102 10.7445 9.41804 10.9619 9.18082C11.059 9.07483 11.1664 8.9764 11.2786 8.88641C11.4896 8.71725 11.7304 8.70109 11.9799 8.78154C12.0453 8.80264 12.0818 8.79727 12.1238 8.73856C12.2045 8.62574 12.295 8.62106 12.3919 8.71811C12.6409 8.96726 12.8879 9.21834 13.1361 9.46828C13.1701 9.50253 13.2137 9.52973 13.2397 9.56892C13.2868 9.63975 13.2775 9.71053 13.2107 9.76821C13.1436 9.82613 13.085 9.80868 13.0256 9.75124C12.8707 9.60161 12.7135 9.45442 12.5569 9.3066C12.5287 9.27994 12.4989 9.25491 12.4612 9.22147C12.4691 9.35895 12.4907 9.47774 12.4793 9.59329C12.4577 9.81349 12.3271 9.98025 12.1753 10.1313C12.0426 10.2634 12.0429 10.2636 12.178 10.3987C12.2073 10.4281 12.2388 10.4557 12.2651 10.4876C12.3527 10.5937 12.3326 10.6796 12.1915 10.8028C11.8761 10.3977 11.503 10.0591 11.0226 9.83569ZM11.6058 9.82706C11.6481 9.86666 11.6849 9.91696 11.7346 9.94219C11.7692 9.9598 11.8385 9.96116 11.8624 9.93838C11.9427 9.86209 12.0207 9.77846 12.0778 9.68441C12.1176 9.61888 12.1491 9.52663 12.136 9.4552C12.1079 9.3027 12.0311 9.15822 11.8705 9.11286C11.7194 9.07017 11.5614 9.06822 11.4444 9.21426C11.398 9.27217 11.3414 9.32228 11.2868 9.37312C11.2358 9.42057 11.2384 9.46129 11.2875 9.50914C11.3907 9.60966 11.4908 9.71322 11.6058 9.82706Z" fill="black"/>
<path d="M18.0034 12.1935C17.3629 11.8273 16.7225 11.4611 16.082 11.0948C15.9452 11.0166 15.8071 10.9407 15.6722 10.8593C15.5344 10.7761 15.5158 10.6659 15.6066 10.5082C15.6922 10.3596 15.7971 10.3228 15.937 10.4021C16.9182 10.9585 17.8991 11.5157 18.8788 12.0748C19.0683 12.1829 19.0613 12.3635 18.8572 12.5352C18.7885 12.4779 18.7268 12.4312 18.6715 12.3779C18.5562 12.2667 18.446 12.1502 18.3303 12.0396C18.2601 11.9725 18.182 11.9796 18.1294 12.0595C18.1698 12.0571 18.2031 12.0551 18.2365 12.0531C18.2404 12.0633 18.2443 12.0735 18.2481 12.0837C18.2039 12.1059 18.1597 12.1281 18.1155 12.1503C18.1093 12.1415 18.1032 12.1326 18.097 12.1238C18.088 12.1552 18.079 12.1866 18.0613 12.2159C18.0361 12.207 18.0198 12.2002 18.0034 12.1935Z" fill="black"/>
<path d="M16.9905 22.8932C16.9715 22.6693 17.0152 22.4636 17.1608 22.2893C17.1834 22.2623 17.2174 22.245 17.245 22.2219C17.2885 22.1855 17.3428 22.1553 17.3716 22.1094C17.4369 22.0053 17.5263 21.984 17.616 22.0709C17.7606 22.2109 17.9039 22.3522 18.0429 22.4977C18.1937 22.6555 18.4704 22.6554 18.6479 22.5185C18.798 22.4028 18.8544 22.2626 18.8232 22.0879C18.8096 22.0117 18.7708 21.9297 18.7189 21.8726C18.5881 21.7286 18.4429 21.5976 18.3044 21.4604C18.2841 21.4403 18.2539 21.4152 18.2538 21.3924C18.2537 21.3206 18.2402 21.2259 18.2791 21.1822C18.3413 21.1125 18.4315 21.1467 18.4998 21.209C18.533 21.2393 18.5667 21.269 18.613 21.3104C18.6028 21.1833 18.5775 21.081 18.5904 20.9838C18.6168 20.7857 18.7762 20.6704 18.9025 20.5356C18.9463 20.4888 18.9806 20.4332 19.0271 20.3771C19.0654 20.5081 19.0958 20.6437 19.1174 20.7902C19.0686 20.8259 19.0208 20.8437 18.9901 20.8772C18.9257 20.9474 18.8406 21.0108 18.8972 21.1325C18.9518 21.25 19.0292 21.244 19.1263 21.199C19.1366 21.1942 19.1586 21.2145 19.1763 21.2315C19.1762 21.2511 19.1748 21.2623 19.164 21.2746C19.0823 21.2822 19.0102 21.2886 18.9381 21.295C18.963 21.328 18.9951 21.3496 19.024 21.3459C19.1445 21.3305 19.1737 21.3991 19.1691 21.5051C19.0469 21.5124 18.932 21.5124 18.8129 21.5124C18.8377 21.5457 18.8638 21.6059 18.9096 21.6384C19.214 21.8539 19.1779 22.53 18.8779 22.7367C18.8199 22.7766 18.7772 22.8388 18.7275 22.8907C18.4939 22.8925 18.2603 22.8942 18.0151 22.8843C17.9938 22.8508 17.9898 22.8228 17.9736 22.8081C17.8344 22.681 17.6923 22.557 17.5526 22.4303C17.5051 22.3873 17.4777 22.3965 17.4298 22.4405C17.2917 22.5672 17.302 22.7278 17.3061 22.8897C17.2541 22.8923 17.202 22.8948 17.1317 22.8968C17.0942 22.8981 17.075 22.8998 17.0557 22.9016C17.037 22.8997 17.0183 22.8978 16.9905 22.8932Z" fill="black"/>
<path d="M12.0603 18.3329C12.261 18.5298 12.4515 18.7341 12.6494 18.9309C12.7253 19.0064 12.8236 18.9924 12.9171 18.954C12.959 18.9368 13.0016 18.9079 13.0436 18.9084C13.0877 18.909 13.1455 18.9273 13.1708 18.959C13.1912 18.9847 13.1821 19.0452 13.1688 19.0843C13.1196 19.2296 13.0097 19.2754 12.861 19.2814C12.6446 19.2902 12.4581 19.2455 12.3262 19.0637C12.3139 19.0659 12.3011 19.0648 12.2988 19.0692C12.1531 19.3473 11.8883 19.5178 11.6877 19.7462C11.6713 19.7649 11.6491 19.7793 11.6357 19.7997C11.5994 19.8546 11.5663 19.9117 11.532 19.968C11.6029 19.9778 11.6765 20.0047 11.7443 19.9943C11.9654 19.9604 12.1256 19.7695 12.1731 19.5298C12.1826 19.4817 12.2605 19.4072 12.2949 19.4132C12.3494 19.4229 12.4274 19.4837 12.4369 19.534C12.4989 19.8599 12.2113 20.1514 11.9637 20.2712C11.9363 20.2844 11.8981 20.275 11.8454 20.276C11.7988 20.2844 11.7717 20.2927 11.7446 20.301C11.4743 20.3173 11.2614 20.203 11.077 19.9968C11.0452 19.9461 11.0197 19.9085 10.9941 19.871C11.0033 19.8548 11.0125 19.8386 11.0302 19.8113C11.0869 19.7412 11.135 19.6823 11.1917 19.6273C11.243 19.6964 11.2934 19.7277 11.3604 19.6625C11.4929 19.5336 11.6264 19.4058 11.7551 19.2732C11.8014 19.2255 11.8349 19.1653 11.8952 19.0818C11.7652 19.0818 11.6694 19.0818 11.5758 19.0725C11.6227 18.9926 11.6674 18.9221 11.7121 18.8516C11.8257 18.6802 11.9393 18.5088 12.0603 18.3329Z" fill="black"/>
<path d="M9.66091 2.06995C9.65716 1.99297 9.63671 1.87977 9.67659 1.85142C9.82628 1.74501 9.92281 1.88595 10.0206 1.9832C10.0332 1.95615 10.0413 1.94714 10.0393 1.94209C9.9224 1.64582 10.0625 1.43425 10.2671 1.24232C10.3426 1.17144 10.4087 1.0894 10.4893 1.02539C10.5374 0.987256 10.6048 0.955926 10.6646 0.953996C10.7733 0.950486 10.8346 1.06653 10.7729 1.1562C10.7197 1.23346 10.6492 1.2992 10.5835 1.36737C10.5066 1.44733 10.4213 1.51993 10.3496 1.60416C10.2917 1.67203 10.2705 1.75813 10.3478 1.82664C10.415 1.8862 10.4973 1.89861 10.5741 1.83606C10.6348 1.78661 10.6997 1.73942 10.7497 1.68024C10.8818 1.52407 11.0431 1.44873 11.261 1.48208C11.2781 1.49761 11.2806 1.50784 11.2867 1.51103C11.6168 1.68221 11.6678 1.97656 11.4166 2.25306C11.4021 2.26894 11.4024 2.29816 11.3958 2.32116C11.2933 2.29755 11.1908 2.27393 11.0808 2.23702C11.127 2.15618 11.1887 2.09328 11.2311 2.01933C11.2567 1.97478 11.2741 1.90314 11.2553 1.8618C11.2365 1.82042 11.1659 1.77558 11.1219 1.77931C11.0637 1.78425 10.9911 1.82147 10.9566 1.86834C10.8612 1.99813 10.7463 2.09484 10.5961 2.15081C10.288 2.12477 9.97996 2.09872 9.66091 2.06995Z" fill="#ED2424"/>
<path d="M0.0650693 21.1809C0.160735 21.1653 0.253834 21.1411 0.340346 21.1557C0.434383 21.1716 0.44968 21.1387 0.44921 21.0619C0.447988 20.8626 0.449636 20.6634 0.448542 20.4641C0.448031 20.3712 0.489697 20.3135 0.582589 20.302C0.658604 20.2925 0.71781 20.3212 0.722843 20.405C0.734229 20.5947 0.743228 20.7846 0.747116 20.9745C0.751183 21.1732 0.748121 21.176 0.943529 21.1724C1.10449 21.1695 1.26581 21.1489 1.42591 21.1571C1.48376 21.16 1.55042 21.2141 1.58979 21.2634C1.6102 21.289 1.59591 21.3708 1.56839 21.3991C1.53125 21.4373 1.46643 21.4673 1.41323 21.4677C1.23377 21.4691 1.0541 21.4575 0.8747 21.4473C0.78703 21.4424 0.741765 21.4701 0.747228 21.5662C0.757308 21.7436 0.767795 21.9213 0.765638 22.0987C0.764932 22.1567 0.738441 22.2253 0.700809 22.2695C0.641629 22.339 0.562785 22.3304 0.482776 22.2614C0.465791 22.1974 0.452186 22.145 0.451232 22.0924C0.447981 21.913 0.454324 21.7333 0.444441 21.5544C0.442418 21.5178 0.391368 21.464 0.353341 21.4538C0.292046 21.4374 0.207933 21.4269 0.160384 21.4567C0.089099 21.5015 0.0785643 21.4404 0.0429688 21.4214C0.048512 21.3441 0.0540559 21.2668 0.0650693 21.1809Z" fill="black"/>
<path d="M11.4022 2.32676C11.4015 2.2982 11.4012 2.26898 11.4157 2.2531C11.6669 1.9766 11.6159 1.68224 11.2858 1.51107C11.2797 1.50788 11.2772 1.49765 11.2715 1.48212C11.2916 1.46953 11.3132 1.46553 11.3475 1.45864C11.4277 1.52096 11.4931 1.58856 11.5634 1.65061C11.6156 1.69667 11.6714 1.74001 11.7306 1.77644C11.8011 1.81976 11.8831 1.808 11.91 1.73459C11.929 1.68291 11.9101 1.59501 11.8743 1.55039C11.8042 1.46307 11.7009 1.40278 11.6287 1.31679C11.481 1.14103 11.2654 0.988419 11.3735 0.704026C11.3776 0.693369 11.3732 0.679491 11.3727 0.667114C11.8504 1.08179 12.124 1.6077 12.2187 2.22923C12.2371 2.35049 12.2413 2.47393 12.2526 2.60319C11.9598 2.50912 11.6846 2.42072 11.4022 2.32676Z" fill="#ED2424"/>
<path d="M8.67043 22.4613C9.01738 22.1008 9.36073 21.7476 9.71159 21.3903C9.78979 21.6023 9.73948 21.7985 9.60734 21.9734C9.53845 22.0645 9.44612 22.1378 9.3747 22.2273C9.35385 22.2535 9.35151 22.3194 9.37022 22.3473C9.42028 22.4218 9.4837 22.4881 9.54673 22.5529C9.6286 22.6371 9.6159 22.7105 9.53567 22.7863C9.51078 22.8098 9.49542 22.8434 9.4755 22.8815C9.30823 22.8924 9.14116 22.8942 8.9625 22.8844C8.92799 22.8361 8.91065 22.794 8.88111 22.7638C8.79911 22.6798 8.71203 22.6009 8.62695 22.52C8.64025 22.5029 8.65354 22.4858 8.67043 22.4613ZM9.36331 22.8545C9.36331 22.8545 9.36496 22.8572 9.36331 22.8545V22.8545Z" fill="black"/>
<path d="M9.67295 20.65C9.7044 20.6611 9.72744 20.6756 9.76087 20.6967C9.59945 20.8747 9.44448 21.0456 9.27711 21.2134C9.10793 21.1096 8.94393 21.0833 8.78644 21.1966C8.69025 21.2658 8.60767 21.3552 8.5259 21.442C8.51056 21.4583 8.51507 21.5219 8.53247 21.5356C8.61842 21.6032 8.71177 21.6614 8.80252 21.7229C8.74237 21.7888 8.68222 21.8547 8.61723 21.9259C8.54772 21.8798 8.48409 21.8376 8.41187 21.7938C8.28189 21.6984 8.16051 21.6045 8.03516 21.5033C8.11883 21.2471 8.33462 21.1092 8.51866 20.9474C8.72662 20.7644 8.97477 20.7349 9.23758 20.8078C9.27669 20.8187 9.31528 20.8314 9.36153 20.8455C9.38896 20.7364 9.43719 20.6682 9.56389 20.7119C9.58788 20.7202 9.63051 20.6743 9.67295 20.65Z" fill="black"/>
<path d="M14.2056 6.82996C14.2083 6.74286 14.2539 6.71764 14.3366 6.73004C14.4818 6.75181 14.6278 6.76768 14.7965 6.78892C14.7534 6.734 14.7197 6.68234 14.6775 6.63905C14.5295 6.48748 14.38 6.33744 14.2283 6.18963C14.1598 6.12289 14.1329 6.05177 14.1952 5.97159C14.2529 5.89738 14.3533 5.89858 14.4364 5.97461C14.5217 6.05266 14.599 6.13941 14.6839 6.21797C14.7155 6.24715 14.7585 6.26389 14.8056 6.28637C14.82 6.29575 14.825 6.30505 14.8217 6.32554C14.8198 6.35305 14.8263 6.36937 14.8328 6.38569C14.8604 6.76806 14.89 7.15032 14.9144 7.53289C14.922 7.65074 14.9156 7.76948 14.886 7.8922C14.8095 7.74182 14.733 7.59144 14.6479 7.4276C14.5977 7.35282 14.5561 7.29151 14.5123 7.22211C14.4086 7.086 14.3071 6.95798 14.2056 6.82996Z" fill="black"/>
<path d="M11.3701 0.660443C11.3732 0.679487 11.3776 0.693365 11.3736 0.704021C11.2654 0.988414 11.481 1.14103 11.6287 1.31678C11.701 1.40278 11.8043 1.46306 11.8743 1.55039C11.9101 1.59501 11.929 1.68291 11.9101 1.73459C11.8832 1.808 11.8011 1.81975 11.7307 1.77643C11.6715 1.74001 11.6157 1.69667 11.5634 1.6506C11.4931 1.58855 11.4277 1.52096 11.3526 1.45206C11.2016 1.30596 11.0567 1.16491 10.9149 1.02075C10.7728 0.876195 10.627 0.7342 10.4968 0.579378C10.447 0.520203 10.4208 0.424054 10.5101 0.360099C10.5933 0.300525 10.6657 0.339072 10.731 0.40058C10.8228 0.486902 10.9153 0.572421 11.0356 0.68449C11.0618 0.590083 11.0784 0.530419 11.0953 0.461048C11.1207 0.465424 11.1457 0.479508 11.182 0.501687C11.2351 0.541058 11.277 0.572334 11.3189 0.603611C11.3351 0.620333 11.3513 0.637055 11.3701 0.660443Z" fill="#ED2424"/>
<path d="M16.7124 12.7447C16.786 12.7235 16.8667 12.7149 16.9317 12.6784C17.076 12.5974 17.2044 12.6787 17.3362 12.7065C17.3712 12.7139 17.3943 12.7781 17.4316 12.8203C17.4101 12.8887 17.3799 12.9531 17.3382 13.0159C17.2857 13.0146 17.2423 13.024 17.204 13.0138C17.0086 12.9616 16.8592 13.0479 16.7554 13.1926C16.6605 13.325 16.6856 13.4841 16.7571 13.6272C16.7906 13.6944 16.8282 13.7719 16.9308 13.7421C16.9132 13.7775 16.8956 13.8128 16.8699 13.8616C16.8181 13.946 16.7744 14.017 16.725 14.082C16.6822 14.0522 16.6411 14.0329 16.6086 14.0039C16.4267 13.8423 16.3434 13.6372 16.35 13.3872C16.4717 13.1678 16.5921 12.9562 16.7124 12.7447Z" fill="black"/>
<path d="M14.5554 8.24752C14.4906 8.26119 14.4234 8.27986 14.3623 8.2677C14.0799 8.21147 13.8395 8.08551 13.7264 7.80227C13.6419 7.59073 13.6307 7.37297 13.7371 7.16054C13.7554 7.1239 13.7683 7.08449 13.7953 7.04071C13.9405 7.19342 14.074 7.35178 14.2095 7.51858C14.2524 7.58941 14.2933 7.65181 14.3342 7.7142C14.4081 7.88891 14.482 8.06362 14.5554 8.24752Z" fill="black"/>
<path d="M15.6055 14.7023C15.7157 14.5014 15.826 14.3005 15.9445 14.0874C15.9627 14.0639 15.9726 14.0526 15.9902 14.0417C16.0863 14.0017 16.1266 14.0911 16.1916 14.113C16.3449 14.1646 16.4642 14.2598 16.5636 14.3839C16.5508 14.4131 16.538 14.4423 16.5229 14.4793C16.3905 14.7108 16.2605 14.9345 16.1157 15.1578C16.1112 14.9326 15.9049 14.7302 15.6865 14.7455C15.6606 14.7473 15.6325 14.7174 15.6055 14.7023Z" fill="black"/>
<path d="M11.0492 10.3358C10.9896 10.3699 10.9311 10.4061 10.8702 10.4376C10.7368 10.5066 10.6547 10.6154 10.6244 10.7603C10.6192 10.7849 10.6474 10.8166 10.6622 10.8556C10.4929 10.9217 10.3216 10.9771 10.1502 11.0326C10.1252 10.9972 10.1038 10.9583 10.0746 10.9268C9.97394 10.8185 9.86069 10.7199 9.77355 10.6019C9.74347 10.5611 9.75498 10.4317 9.78393 10.4176C9.84146 10.3896 9.93813 10.3896 9.99343 10.4216C10.0766 10.4696 10.1374 10.5559 10.2092 10.6244C10.2401 10.6539 10.2747 10.6796 10.3306 10.7263C10.364 10.4948 10.4771 10.3398 10.6298 10.2095C10.6397 10.201 10.6378 10.1788 10.644 10.1562C10.7054 10.1695 10.7642 10.1895 10.8378 10.2176C10.9181 10.2624 10.9836 10.2991 11.0492 10.3358Z" fill="black"/>
<path d="M15.6019 14.7056C15.634 14.7174 15.6621 14.7472 15.6879 14.7454C15.9063 14.7302 16.1127 14.9326 16.11 15.1622C16.0557 15.2809 15.9956 15.3961 15.9295 15.5076C15.9196 15.5242 15.881 15.5238 15.8474 15.529C15.6623 15.4319 15.4855 15.337 15.2969 15.2358C15.3879 15.0749 15.4784 14.9149 15.572 14.7462C15.5824 14.7278 15.5896 14.7184 15.6019 14.7056Z" fill="black"/>
<path d="M18.7363 22.8931C18.7746 22.8388 18.8173 22.7766 18.8753 22.7367C19.1754 22.53 19.2114 21.8539 18.907 21.6383C18.8612 21.6059 18.8351 21.5457 18.8103 21.5123C18.9294 21.5123 19.0443 21.5123 19.1733 21.5052C19.1921 21.4983 19.1966 21.4984 19.2012 21.4986C19.2005 21.517 19.1998 21.5355 19.1988 21.5708C19.2063 21.5994 19.214 21.6111 19.2217 21.6229C19.2217 22.0422 19.2217 22.4616 19.2217 22.8954C19.0694 22.8954 18.9086 22.8954 18.7363 22.8931Z" fill="black"/>
<path d="M16.9349 13.7362C16.8261 13.7719 16.7886 13.6944 16.755 13.6272C16.6836 13.4842 16.6584 13.325 16.7534 13.1926C16.8572 13.0479 17.0066 12.9616 17.202 13.0138C17.2402 13.024 17.2837 13.0146 17.3289 13.0209C17.2024 13.2618 17.0717 13.4961 16.9349 13.7362Z" fill="black"/>
<path d="M16.7253 14.082C16.7307 14.0927 16.7306 14.0973 16.7309 14.109C16.6804 14.2015 16.6294 14.287 16.5713 14.3782C16.4648 14.2598 16.3456 14.1645 16.1923 14.1129C16.1273 14.091 16.0869 14.0017 15.9922 14.0329C16.1069 13.8142 16.2278 13.6046 16.3488 13.395C16.3436 13.6372 16.4269 13.8422 16.6088 14.0039C16.6414 14.0328 16.6825 14.0522 16.7253 14.082Z" fill="black"/>
<path d="M0.0392852 21.4309C0.0793532 21.4404 0.0898879 21.5015 0.161173 21.4568C0.208721 21.4269 0.292834 21.4374 0.35413 21.4539C0.392157 21.4641 0.443207 21.5178 0.44523 21.5545C0.455113 21.7333 0.44877 21.9131 0.452021 22.0924C0.452975 22.145 0.466579 22.1974 0.47441 22.2604C0.474435 22.2708 0.474465 22.2708 0.465443 22.2706C0.431221 22.2526 0.404956 22.2359 0.381006 22.2164C0.259532 22.1176 0.138661 22.0181 0.0175781 21.9188C0.023323 21.7593 0.0290671 21.5999 0.0392852 21.4309Z" fill="black"/>
<path d="M15.3159 16.0725C15.3486 15.9707 15.3812 15.8783 15.4205 15.7673C15.6322 15.8939 15.8392 16.0177 16.0538 16.1432C16.0836 16.1617 16.1057 16.1784 16.1318 16.2024C15.8589 16.2911 15.5819 16.3286 15.2949 16.2113C15.2953 16.1681 15.3055 16.125 15.3159 16.0725Z" fill="black"/>
<path d="M17.3173 22.8924C17.3018 22.7278 17.2915 22.5672 17.4296 22.4405C17.4775 22.3966 17.5049 22.3873 17.5523 22.4304C17.692 22.557 17.8342 22.681 17.9734 22.8081C17.9895 22.8229 17.9936 22.8508 18.0034 22.8816C17.7786 22.8921 17.5537 22.8936 17.3173 22.8924Z" fill="black"/>
<path d="M0.0115811 21.9191C0.136898 22.018 0.257769 22.1176 0.379243 22.2164C0.403193 22.2359 0.429459 22.2525 0.463695 22.2706C0.481001 22.3231 0.504526 22.379 0.493317 22.4268C0.481717 22.4763 0.445239 22.5333 0.402807 22.5576C0.373679 22.5744 0.309682 22.5509 0.272142 22.5277C0.20997 22.4894 0.156558 22.4369 0.0994056 22.3903C0.0762001 22.4169 0.0530456 22.4435 0.0217847 22.4706C0.011438 22.4358 0.00919683 22.4005 0.0170162 22.3529C0.0231599 22.3174 0.0192437 22.2943 0.0153275 22.2712C0.011833 22.2363 0.00833839 22.2013 0.00529664 22.1458C0.00902482 22.0821 0.0122987 22.039 0.0199415 21.9948C0.0214651 21.9865 0.0186189 21.9792 0.0119327 21.9643C0.00539632 21.9457 0.00269779 21.9348 0 21.9238C0 21.9238 0.00734605 21.9195 0.0115811 21.9191Z" fill="black"/>
<path d="M18.137 12.2674C18.1123 12.2529 18.0964 12.24 18.0762 12.2226C18.0808 12.1866 18.0898 12.1552 18.0988 12.1238C18.105 12.1326 18.1111 12.1414 18.1173 12.1503C18.1615 12.1281 18.2057 12.1059 18.2499 12.0837C18.246 12.0735 18.2421 12.0633 18.2383 12.0531C18.2049 12.0551 18.1715 12.0571 18.1312 12.0595C18.1838 11.9796 18.2618 11.9725 18.332 12.0396C18.4478 12.1502 18.5579 12.2667 18.6732 12.3779C18.7286 12.4312 18.7903 12.4779 18.8504 12.5361C18.8516 12.5447 18.8495 12.5533 18.8486 12.5576C18.7086 12.6147 18.6073 12.5247 18.488 12.4679C18.368 12.401 18.2569 12.335 18.137 12.2674Z" fill="black"/>
<path d="M10.6035 2.15568C10.7453 2.09487 10.8603 1.99815 10.9557 1.86836C10.9901 1.8215 11.0627 1.78427 11.121 1.77933C11.1649 1.77561 11.2356 1.82045 11.2544 1.86183C11.2732 1.90316 11.2558 1.9748 11.2302 2.01936C11.1877 2.09331 11.126 2.15621 11.0714 2.23225C10.9176 2.214 10.7647 2.18727 10.6035 2.15568Z" fill="#ED2424"/>
<path d="M8.61865 22.5229C8.71153 22.6009 8.79862 22.6799 8.88062 22.7638C8.91016 22.794 8.9275 22.8362 8.95057 22.8818C8.75898 22.8923 8.56724 22.894 8.36313 22.8847C8.34192 22.8533 8.33307 22.8327 8.32422 22.8121C8.41976 22.7167 8.5153 22.6213 8.61865 22.5229Z" fill="black"/>
<path d="M16.0326 22.9024C16.0055 22.9001 15.9784 22.8978 15.9415 22.8922C15.9344 22.8646 15.9282 22.8333 15.941 22.8168C16.1086 22.601 16.582 22.6362 16.7293 22.8821C16.7003 22.8928 16.6701 22.8949 16.6312 22.8993C16.6141 22.8998 16.6058 22.8982 16.5812 22.8969C16.3875 22.8989 16.2101 22.9007 16.0326 22.9024Z" fill="black"/>
<path d="M14.6051 15.4131C14.7447 15.4684 14.8777 15.5244 15.0245 15.5863C14.9869 15.708 14.9505 15.8257 14.9146 15.9527C14.9106 15.9687 14.9071 15.9758 14.8998 15.9866C14.8012 15.8443 14.7056 15.7002 14.6156 15.5526C14.5957 15.52 14.5955 15.4754 14.5859 15.4263C14.59 15.4155 14.5943 15.4147 14.6051 15.4131Z" fill="black"/>
<path d="M19.1844 21.1447C19.1866 21.1731 19.1852 21.1922 19.1796 21.2172C19.1589 21.2145 19.1369 21.1943 19.1265 21.1991C19.0294 21.244 18.952 21.25 18.8974 21.1326C18.8409 21.0108 18.9259 20.9475 18.9904 20.8772C19.021 20.8438 19.0688 20.826 19.1167 20.8004C19.1433 20.9116 19.162 21.0235 19.1844 21.1447Z" fill="black"/>
<path d="M19.2117 21.4944C19.1987 21.4985 19.1941 21.4984 19.1827 21.498C19.1732 21.3991 19.144 21.3305 19.0235 21.3459C18.9946 21.3496 18.9624 21.3281 18.9375 21.295C19.0096 21.2886 19.0818 21.2822 19.1634 21.2747C19.1834 21.3101 19.1938 21.3467 19.2092 21.3901C19.2161 21.4279 19.2181 21.459 19.2117 21.4944Z" fill="black"/>
<path d="M10.9869 19.8734C11.0184 19.9085 11.0439 19.9461 11.0696 19.9926C11.0447 20.0233 11.0196 20.045 10.978 20.0811C10.9729 20.0141 10.9697 19.972 10.9648 19.9192C10.9692 19.8975 10.9751 19.8866 10.9869 19.8734Z" fill="black"/>
<path d="M11.1272 22.7944C11.1624 22.8185 11.1901 22.8457 11.2189 22.8819C11.1637 22.8909 11.1073 22.8909 11.0371 22.8909C11.069 22.8548 11.0944 22.8262 11.1272 22.7944Z" fill="black"/>
<path d="M8.31682 22.8156C8.33392 22.8326 8.34277 22.8532 8.35254 22.8822C8.32252 22.8919 8.29157 22.8933 8.23828 22.8957C8.27169 22.8593 8.29013 22.8391 8.31682 22.8156Z" fill="black"/>
<path d="M10.8864 20.0017C10.8734 20.0321 10.853 20.0664 10.8223 20.1008C10.8343 20.0691 10.8566 20.0373 10.8864 20.0017Z" fill="black"/>
<path d="M0.0121999 22.28C0.0196951 22.2943 0.0236112 22.3174 0.0211098 22.3428C0.0126679 22.3263 0.0106444 22.3076 0.0121999 22.28Z" fill="black"/>
<path d="M19.2304 21.6193C19.2166 21.6112 19.2089 21.5994 19.2031 21.5799C19.2155 21.5866 19.226 21.6012 19.2304 21.6193Z" fill="black"/>
<path d="M14.8341 6.37876C14.8261 6.36938 14.8196 6.35306 14.8204 6.33356C14.8303 6.34418 14.8329 6.358 14.8341 6.37876Z" fill="black"/>
<path d="M11.1102 22.9579C11.1074 22.9595 11.1129 22.9563 11.1102 22.9579V22.9579Z" fill="#EBEBEB"/>
<path d="M13.3666 9.55164C13.2421 9.50132 13.2154 9.42136 13.2262 9.29335C13.2418 9.10992 13.2226 8.92296 13.208 8.73833C13.2062 8.7164 13.1404 8.68414 13.1034 8.68301C12.9168 8.67729 12.73 8.68034 12.5432 8.68019C12.4535 8.68012 12.3751 8.66073 12.3693 8.55143C12.3648 8.46487 12.45 8.38048 12.5463 8.38239C12.7197 8.38581 12.8931 8.39377 13.066 8.40694C13.178 8.41547 13.2239 8.37968 13.2184 8.26089C13.2098 8.07869 13.2155 7.89578 13.2164 7.71317C13.2169 7.5995 13.2769 7.52866 13.3763 7.53785C13.4757 7.54704 13.5151 7.61727 13.5152 7.71215C13.5154 7.89891 13.5199 8.08582 13.5135 8.27236C13.5099 8.37763 13.5502 8.41126 13.6519 8.40724C13.8093 8.40101 13.9672 8.40564 14.1249 8.4057C14.1498 8.40571 14.1747 8.40549 14.1996 8.40608C14.2985 8.4084 14.3817 8.46231 14.376 8.55343C14.3708 8.63669 14.2979 8.70579 14.1928 8.70522C14.006 8.70419 13.8191 8.70963 13.6326 8.70298C13.5382 8.69961 13.51 8.73136 13.5135 8.82371C13.5201 8.99361 13.5109 9.16412 13.5171 9.33405C13.5211 9.44468 13.4828 9.5177 13.3666 9.55164Z" fill="black"/>
<path d="M7.41629 6.18268C7.42459 6.18426 7.43289 6.18583 7.44715 6.18973C7.41236 6.29216 7.38672 6.40233 7.32798 6.49045C7.16436 6.73592 6.91176 6.88289 6.64005 6.94512C6.44503 6.98979 6.21838 7.02919 6.0179 6.90457C5.95807 6.86739 5.89018 6.84318 5.81711 6.81147C5.80822 6.80992 5.8081 6.80982 5.8081 6.80982C5.80296 6.80328 5.79783 6.79673 5.78711 6.78716C5.96923 6.67113 6.15694 6.55812 6.35931 6.438C6.4097 6.4146 6.44543 6.39832 6.49034 6.38127C6.80511 6.31456 7.1107 6.24862 7.41629 6.18268Z" fill="black"/>
<path d="M12.0591 8.65118C11.9362 8.69393 11.8207 8.66254 11.8114 8.57004C11.8045 8.50089 11.8407 8.40568 11.8914 8.35809C11.9523 8.30102 12.0453 8.31136 12.1098 8.38576C12.1722 8.45779 12.156 8.55058 12.0591 8.65118Z" fill="black"/>
<path d="M5.80925 6.80997C5.80652 6.81102 5.80374 6.812 5.805 6.81139C5.80905 6.80979 5.80919 6.8099 5.80925 6.80997Z" fill="black"/>
<path d="M2.93549 19.6342C3.03108 19.6335 3.13884 19.5909 3.16435 19.7267C3.18314 19.8269 3.06211 19.9699 2.93467 19.9984C2.7117 20.0483 2.50747 20.028 2.35069 19.8356C2.33022 19.8105 2.30014 19.7929 2.27334 19.7735C2.2643 19.7669 2.25162 19.7654 2.22565 19.7564C2.24565 19.9759 2.05676 20.0535 1.946 20.1822C1.83014 20.3169 1.69578 20.4356 1.57072 20.5624C1.54064 20.5929 1.51533 20.6281 1.48856 20.6603C1.65358 20.8142 1.99613 20.6666 2.07393 20.4424C2.10205 20.3613 2.11741 20.2732 2.15972 20.2007C2.18146 20.1634 2.25791 20.1263 2.29484 20.1375C2.34331 20.1523 2.39136 20.2088 2.41313 20.2588C2.43286 20.3042 2.42476 20.3663 2.41578 20.4188C2.35043 20.8012 1.93522 21.0714 1.55484 21.0105C1.26005 20.9633 1.05848 20.8223 0.953998 20.5459C0.878765 20.3469 0.859434 20.145 0.972039 19.9519C1.02909 19.8541 1.08193 19.7452 1.16418 19.6724C1.38967 19.4727 1.77259 19.4309 2.09206 19.6029C2.06586 19.5719 2.0412 19.5394 2.01322 19.5101C1.82137 19.3091 1.62535 19.1119 1.44003 18.9051C1.41032 18.872 1.40545 18.7616 1.4271 18.7481C1.48222 18.714 1.5775 18.6818 1.62305 18.7078C1.72248 18.7645 1.80493 18.854 1.88724 18.9371C2.05473 19.1062 2.21711 19.2803 2.38246 19.4515C2.45665 19.5283 2.52937 19.6072 2.60927 19.6777C2.6857 19.7452 2.81484 19.7248 2.93549 19.6342ZM1.56991 20.1139C1.65509 20.0297 1.74027 19.9455 1.82985 19.857C1.68582 19.775 1.49255 19.7928 1.3668 19.885C1.24223 19.9763 1.18379 20.226 1.25015 20.4355C1.35745 20.3276 1.45737 20.2271 1.56991 20.1139Z" fill="black"/>
<path d="M2.28609 18.2736C2.31317 18.5384 2.11657 18.6413 1.88557 18.5359C1.77761 18.4867 1.74857 18.3486 1.80681 18.1935C1.83066 18.2018 1.85462 18.2101 1.86992 18.2154C1.88632 18.1719 1.90041 18.1025 1.91441 18.1025C2.00164 18.1026 2.09366 18.1049 2.17421 18.1339C2.22011 18.1505 2.24727 18.219 2.28609 18.2736Z" fill="black"/>
<path d="M10.4693 20.5081C10.4962 20.4734 10.5209 20.4468 10.5474 20.4125C10.6142 20.33 10.6793 20.2552 10.7511 20.1761C10.7699 20.184 10.782 20.1961 10.7897 20.2206C10.7891 20.2473 10.7927 20.2616 10.7964 20.2758C10.7988 20.3625 10.7662 20.4552 10.9281 20.4373C11.1028 20.418 11.2826 20.4434 11.4601 20.4506C11.5482 20.4541 11.6331 20.4746 11.6413 20.5797C11.6476 20.6601 11.617 20.7265 11.5147 20.7253C11.3487 20.7233 11.1827 20.7229 11.0167 20.7254C10.8154 20.7284 10.7965 20.7488 10.7964 20.9445C10.7964 21.0898 10.7921 21.2353 10.7977 21.3803C10.8024 21.4982 10.7549 21.5693 10.6222 21.5955C10.5684 21.5272 10.5094 21.4613 10.502 21.3901C10.4862 21.2388 10.4972 21.0847 10.4971 20.9318C10.4971 20.7633 10.497 20.7639 10.3265 20.7632C10.3153 20.7631 10.3041 20.7436 10.293 20.7332C10.351 20.6608 10.409 20.5885 10.4693 20.5081Z" fill="black"/>
<path d="M10.2861 20.7379C10.3048 20.7436 10.3159 20.7631 10.3271 20.7632C10.4977 20.7639 10.4977 20.7633 10.4978 20.9318C10.4978 21.0847 10.4868 21.2388 10.5026 21.3901C10.5101 21.4613 10.569 21.5272 10.6136 21.5966C10.6026 21.6204 10.5826 21.6431 10.5485 21.6638C10.4897 21.6044 10.4453 21.5467 10.4001 21.4897C10.2796 21.338 10.0804 21.2532 10.0234 21.0474C10.1085 20.9458 10.1935 20.8442 10.2861 20.7379Z" fill="black"/>
<path d="M10.0165 21.051C10.0811 21.2532 10.2803 21.3379 10.4008 21.4897C10.446 21.5467 10.4904 21.6044 10.5417 21.667C10.5194 21.8094 10.3806 21.8907 10.2836 21.8043C10.1147 21.6538 9.97006 21.476 9.80859 21.3043C9.87094 21.2175 9.93994 21.136 10.0165 21.051Z" fill="black"/>
<path d="M11.748 20.3075C11.7697 20.2926 11.7968 20.2843 11.833 20.2761C11.8126 20.2889 11.7831 20.3015 11.748 20.3075Z" fill="black"/>
<path d="M10.8015 20.2753C10.7912 20.2616 10.7876 20.2473 10.7896 20.2296C10.7996 20.2423 10.8039 20.2586 10.8015 20.2753Z" fill="black"/>
<path d="M9.29855 20.3258C9.35026 20.3562 9.39717 20.3945 9.447 20.4405C9.42623 20.5163 9.41883 20.5994 9.37395 20.6479C9.33425 20.6909 9.24175 20.7261 9.19269 20.7085C9.13532 20.6879 9.07214 20.611 9.06225 20.5503C9.05162 20.485 9.09042 20.4067 9.18921 20.3958C9.2259 20.3917 9.25901 20.3553 9.29855 20.3258Z" fill="black"/>
<path d="M9.6735 11.5182C9.96598 11.4631 10.2586 11.4171 10.5612 11.3802C10.579 11.4069 10.5828 11.4285 10.5954 11.4415C10.7026 11.5527 10.8115 11.6623 10.9199 11.7723C10.8998 11.7786 10.8798 11.7848 10.8524 11.7942C10.7744 11.7279 10.7141 11.6406 10.6311 11.5926C10.41 11.4647 10.2351 11.4972 10.0565 11.6756C9.98921 11.7428 9.92383 11.8121 9.85332 11.8757C9.77544 11.946 9.68457 11.9325 9.61838 11.8693C9.55211 11.8061 9.55577 11.724 9.62068 11.6472C9.64773 11.6152 9.65656 11.5678 9.6735 11.5182Z" fill="black"/>
<path d="M10.9292 11.776C10.8127 11.6623 10.7039 11.5527 10.5966 11.4416C10.584 11.4285 10.5802 11.407 10.5723 11.3801C10.6714 11.3256 10.7707 11.2805 10.8789 11.2331C10.9134 11.2803 10.9322 11.3351 10.9659 11.3781C11.0264 11.4554 11.0944 11.5273 11.1623 11.5985C11.2166 11.6554 11.2466 11.7067 11.1796 11.7779C11.1167 11.8447 11.0578 11.8756 10.9804 11.8032C10.9688 11.7923 10.9517 11.7873 10.9292 11.776Z" fill="black"/>
<path d="M5.35987 15.6152C5.49843 15.5586 5.63548 15.5091 5.77516 15.4687C5.79337 15.4634 5.8278 15.5019 5.84984 15.5249C5.88396 15.5603 5.90644 15.6172 5.94692 15.6346C6.10084 15.7008 6.04946 15.8163 6.02369 15.9223C5.9872 16.0723 5.92045 16.194 5.73663 16.1999C5.68247 16.2017 5.62929 16.2336 5.56857 16.2541C5.50804 16.2 5.44142 16.1453 5.3805 16.0849C5.26793 15.9732 5.25562 15.8639 5.33024 15.7047C5.34217 15.6793 5.34964 15.6517 5.35987 15.6152Z" fill="black"/>
<path d="M5.36891 15.1897C5.35266 15.1695 5.34462 15.1497 5.33594 15.1219C5.36673 15.1277 5.39817 15.1416 5.43409 15.163C5.41809 15.177 5.39761 15.1836 5.36891 15.1897Z" fill="black"/>
<path d="M6.0846 6.09178C5.96041 5.94204 5.97336 5.78881 6.0529 5.6203C6.08999 5.54171 6.13674 5.5153 6.21078 5.47666C6.47168 5.34052 6.61004 5.50559 6.75405 5.66763C6.77164 5.68742 6.76158 5.73252 6.76271 5.76594C6.76354 5.79054 6.76171 5.81524 6.76105 5.84893C6.53555 5.93591 6.31008 6.01385 6.0846 6.09178Z" fill="black"/>
<path d="M11.5994 9.82129C11.4912 9.71321 11.391 9.60964 11.2879 9.50912C11.2388 9.46128 11.2362 9.42056 11.2871 9.37311C11.3417 9.32227 11.3984 9.27216 11.4448 9.21425C11.5618 9.06821 11.7198 9.07016 11.8709 9.11285C12.0314 9.1582 12.1083 9.30269 12.1363 9.45519C12.1495 9.52662 12.1179 9.61887 12.0782 9.6844C12.0211 9.77845 11.9431 9.86208 11.8628 9.93837C11.8388 9.96114 11.7696 9.95979 11.7349 9.94218C11.6853 9.91695 11.6484 9.86665 11.5994 9.82129Z" fill="black"/>
<path d="M11.1914 19.6273C11.3091 19.4452 11.4353 19.267 11.5673 19.0853C11.669 19.0818 11.7649 19.0818 11.8948 19.0818C11.8346 19.1653 11.8011 19.2254 11.7547 19.2732C11.6261 19.4058 11.4926 19.5336 11.3601 19.6625C11.293 19.7277 11.2426 19.6964 11.1914 19.6273Z" fill="black"/>
<path d="M8.811 21.7193C8.71279 21.6614 8.61943 21.6032 8.53349 21.5356C8.51608 21.5219 8.51158 21.4584 8.52692 21.4421C8.60869 21.3552 8.69127 21.2659 8.78746 21.1966C8.94495 21.0833 9.10895 21.1097 9.27057 21.217C9.12309 21.3877 8.97078 21.5518 8.811 21.7193Z" fill="black"/>
<path d="M16.293 15.1816C16.2971 15.1849 16.2977 15.1905 16.2983 15.196C16.2954 15.192 16.2925 15.188 16.293 15.1816Z" fill="black"/>
<path d="M9.36572 22.8563C9.36739 22.8591 9.36404 22.8536 9.36572 22.8563V22.8563Z" fill="black"/>
<path d="M19.2407 21.3352C19.2425 21.3382 19.239 21.3322 19.2407 21.3352V21.3352Z" fill="black"/>
<path d="M0.0191098 21.9949C0.0128414 21.9919 0.0109419 21.9879 0.0119913 21.978C0.0177872 21.9793 0.0206334 21.9865 0.0191098 21.9949Z" fill="black"/>
<path d="M1.56379 20.1202C1.45756 20.2271 1.35764 20.3276 1.25034 20.4356C1.18398 20.226 1.24242 19.9764 1.36699 19.885C1.49274 19.7929 1.686 19.775 1.83004 19.857C1.74046 19.9456 1.65528 20.0297 1.56379 20.1202Z" fill="black"/>
<rect x="15.0391" y="13.4681" width="0.646015" height="1.55205" transform="rotate(30.0376 15.0391 13.4681)" fill="black"/>
</svg>
