<svg width="65" height="59" viewBox="0 0 65 59" fill="none" xmlns="http://www.w3.org/2000/svg">
<path d="M50.246 40.6982C53.1369 40.7175 55.8562 40.888 58.5481 40.6888C61.2279 40.4905 62.1183 41.6337 61.8276 44.1024C61.8167 44.1945 61.8268 44.289 61.8274 44.3823C61.8549 48.4529 61.8548 48.4586 57.8801 48.4598C44.9999 48.4635 32.1193 48.4048 19.2397 48.493C14.2983 48.5268 9.36294 48.6399 4.41738 48.5368C1.80233 48.4822 0.966799 47.5849 1.04167 45.085C1.15816 41.1964 1.357 40.7559 4.35257 40.7477C13.7816 40.7219 23.2107 40.7378 32.6397 40.7072C33.707 40.7038 34.8971 41.0802 35.7865 40.0632C35.8436 38.9548 34.879 38.4757 34.3733 37.7384C33.0165 35.7601 32.211 33.655 32.2452 31.2037C32.2666 29.677 32.7916 28.9889 34.3679 29.0001C40.1557 29.0414 45.9441 29.0455 51.732 29.0115C53.4382 29.0015 54.0362 29.7899 53.9854 31.4146C53.8933 34.3597 52.7623 36.8279 50.7673 38.9411C50.137 39.6086 50.131 39.6029 50.246 40.6982Z" fill="black"/>
<rect x="6.16406" y="49.3513" width="9.52638" height="8.96601" fill="black"/>
<rect x="47.0723" y="49.3513" width="9.52638" height="8.96601" fill="black"/>
<rect y="40.3853" width="62.2017" height="8.40563" rx="0.560376" fill="black"/>
<path d="M41.7895 18.3121C38.5803 19.9022 35.3959 21.4783 32.214 23.0592C30.0191 24.1498 27.8272 25.2464 25.635 26.3423C25.4569 26.4313 25.303 26.5473 25.1631 26.273C25.0238 25.9999 25.191 25.9534 25.3803 25.8544C27.7723 24.6032 30.1599 23.3436 32.5485 22.0859C34.7033 20.9512 36.8564 19.8135 39.013 18.6822C41.3016 17.4816 43.5946 16.2895 45.8834 15.0892C48.0273 13.9647 50.1675 12.833 52.3106 11.7068C53.7001 10.9765 55.0895 10.2458 56.4869 9.53102C56.5953 9.47557 56.8012 9.49614 56.9005 9.56716C57.0381 9.66547 57.1444 9.83291 57.2169 9.99238C57.4311 10.4632 57.3914 10.5492 56.9278 10.7795C53.7238 12.3706 50.5191 13.9604 47.3161 15.5536C45.4811 16.4663 43.6488 17.3844 41.7895 18.3121Z" fill="black"/>
<path d="M31.8311 26.5494C29.9554 27.1711 28.1093 27.782 26.267 28.404C26.0453 28.4789 25.8626 28.5151 25.7584 28.2622C25.6359 27.9649 25.8538 27.877 26.0697 27.7998C28.5494 26.9129 31.0303 26.0292 33.5092 25.1399C37.0909 23.8549 40.6698 22.5623 44.2525 21.28C47.5717 20.092 50.8953 18.916 54.2152 17.7296C57.231 16.6518 60.2465 15.5728 63.256 14.4777C63.6212 14.3449 63.8417 14.4192 63.9881 14.7528C64.0639 14.9253 64.1171 15.1092 64.1649 15.2921C64.2481 15.611 64.1561 15.7804 63.8029 15.8954C60.7709 16.8832 57.746 17.8931 54.7211 18.9028C52.4574 19.6584 50.1986 20.4284 47.9345 21.183C45.0909 22.1308 42.243 23.0656 39.3993 24.0132C36.8851 24.851 34.3742 25.6987 31.8311 26.5494Z" fill="black"/>
</svg>
