<svg width="18" height="26" viewBox="0 0 18 26" fill="none" xmlns="http://www.w3.org/2000/svg">
<path d="M10.9194 23.584C10.8336 23.9074 10.7962 24.1692 10.7581 24.4309C10.7159 24.7201 10.5938 24.9435 10.2646 24.9495C9.9268 24.9556 9.79649 24.7303 9.78233 24.4369C9.75552 23.8812 9.73761 23.328 8.96269 23.3469C8.20675 23.3652 8.19317 23.9399 8.13548 24.4754C8.10359 24.7715 7.99613 25.0012 7.64669 24.965C7.30362 24.9295 7.23595 24.666 7.23543 24.3854C7.23428 23.7774 7.0605 23.3257 6.34039 23.3517C5.67605 23.3758 5.55229 23.8168 5.56051 24.3696C5.5692 24.9544 5.15873 25.0254 4.70889 25.0292C4.18474 25.0337 3.77019 24.8582 3.84644 24.2526C3.97744 23.2122 3.37545 22.9648 2.5221 22.8597C1.88575 22.7813 1.25931 22.6111 0.633863 22.4595C0.225504 22.3606 -0.0546436 22.1166 0.00902064 21.652C0.0674212 21.2259 0.394733 21.0978 0.760322 21.1238C2.09567 21.2184 3.09411 20.5948 3.94796 19.6611C4.34231 19.2299 4.83169 19.1226 5.38718 19.1247C7.73956 19.1338 10.0921 19.1411 12.4443 19.1217C13.0932 19.1163 13.6013 19.3089 14.073 19.7663C14.9335 20.6008 15.891 21.2654 17.195 21.1241C17.5642 21.0841 17.8863 21.225 17.9785 21.6266C18.0893 22.1095 17.7549 22.3422 17.3768 22.4435C16.72 22.6195 16.0506 22.7633 15.3778 22.8614C14.6144 22.9727 14.0762 23.2143 14.1602 24.1397C14.2155 24.7481 13.8715 25.0347 13.2576 25.0298C12.6738 25.0251 12.3247 24.8126 12.3033 24.1738C12.2687 23.1416 11.6512 23.2517 10.9194 23.584Z" fill="black"/>
<path d="M15.8664 8.79615C16.5439 9.42258 16.2871 9.83668 15.6439 10.118C15.2999 10.2684 14.9268 10.3793 14.5559 10.4357C13.6826 10.5685 13.1602 10.94 13.2879 11.9302C13.3286 12.2456 13.355 12.6654 12.8904 12.7524C12.4909 12.8272 12.4371 12.4711 12.2809 12.212C11.856 11.5072 11.1743 11.4807 10.8367 12.192C10.4551 12.9961 10.19 13.1107 9.74485 12.2426C9.35151 11.4755 8.65487 11.4726 8.24845 12.2305C7.83647 12.9988 7.57925 13.1245 7.16597 12.2107C6.81043 11.4247 6.0323 11.4946 5.58134 12.3104C5.4682 12.5151 5.42092 12.7601 5.14025 12.7379C4.79214 12.7104 4.72585 12.4224 4.74806 12.1522C4.84384 10.9874 4.1822 10.5294 3.15505 10.3677C2.85831 10.3209 2.57058 10.208 2.2834 10.1116C1.84447 9.96411 1.51982 9.70177 1.6769 9.19108C1.81821 8.73161 2.22573 8.69123 2.61546 8.79224C4.63189 9.31485 6.01039 8.09088 7.40484 7.00393C8.02521 6.52035 8.20203 5.74522 8.19366 4.94667C8.18015 3.65671 8.18298 2.36635 8.1991 1.07641C8.20549 0.565397 8.29038 0.010652 8.94282 0.000156131C9.61078 -0.0105886 9.67762 0.535122 9.67988 1.05653C9.68446 2.11899 9.68714 3.1815 9.68322 4.24397C9.67381 6.79127 12.0836 9.02788 14.6514 8.85028C15.028 8.82423 15.4042 8.79382 15.8664 8.79615Z" fill="#ED2424"/>
<path d="M6.40055 17.6105C5.92562 17.6093 5.65057 17.7635 5.5807 18.1709C5.51048 18.5804 5.27804 18.765 4.86669 18.7121C4.47243 18.6613 4.37046 18.3375 4.39053 18.0432C4.46329 16.9764 3.87744 16.6928 2.94186 16.6169C2.31004 16.5657 1.68437 16.3443 1.07533 16.1409C0.698258 16.015 0.398746 15.7256 0.542616 15.2725C0.678337 14.8451 1.03541 14.7025 1.45512 14.8222C2.67 15.1686 3.62838 14.6326 4.44167 13.8587C5.01714 13.311 5.60997 13.1136 6.37888 13.1414C7.62888 13.1867 8.88228 13.1731 10.1334 13.1449C11.5698 13.1125 12.9531 13.0392 14.0775 14.2829C14.6276 14.8913 15.5145 15.0927 16.4059 14.8377C16.8664 14.7059 17.2588 14.8468 17.3686 15.3589C17.482 15.8884 17.1215 16.1176 16.6808 16.2231C15.9445 16.3994 15.2075 16.5846 14.4608 16.7023C13.8307 16.8015 13.5154 17.0785 13.5341 17.7452C13.545 18.135 13.6474 18.635 13.0346 18.7215C12.5382 18.7916 12.4418 18.4268 12.2651 18.0664C11.9579 17.44 11.1336 17.4004 10.8627 18.0199C10.4551 18.952 10.1805 19.1653 9.72571 18.0564C9.47452 17.4439 8.55567 17.3873 8.30511 17.9758C7.84348 19.0601 7.51739 19.2577 7.14442 17.9518C7.05773 17.6483 6.76223 17.6186 6.40055 17.6105Z" fill="black"/>
</svg>
