<svg width="43" height="40" viewBox="0 0 43 40" fill="none" xmlns="http://www.w3.org/2000/svg">
<path d="M37.0754 6.93033C36.4622 6.93033 35.8491 6.93033 35.1281 6.93033C35.1281 7.53377 35.1241 8.01691 35.1241 8.70818C35.6209 8.70818 37.2196 8.70818 36.8477 8.70818C36.8477 9.72415 36.8657 12.1915 36.8657 11.9012C36.2852 11.9012 35.8498 11.9012 34.9789 11.9012C34.9789 18.172 35.0993 24.6761 34.9789 31.0966C33.7431 31.2325 32.5427 31.105 31.4272 31.0966C31.4272 24.7605 31.4956 18.3058 31.4956 11.9012C30.915 11.9012 30.4796 11.8595 29.8519 11.8595C23.9705 11.7349 18.3068 11.7038 12.6431 11.6869C12.4729 11.6864 12.3023 11.8343 12.1319 11.9131C11.7025 11.9441 11.273 11.9751 10.6447 12.0205C10.6447 18.2924 10.6546 24.7901 10.5956 31.2047C10.4808 31.333 10.3053 31.0596 10.3617 30.9448C10.364 25.2715 10.364 19.7314 10.364 14.1913C10.2125 14.1891 10.0611 14.1869 9.90959 14.1848C9.87566 14.4067 9.84173 14.6286 9.73448 14.8516C9.61229 14.8534 9.56341 14.8543 9.47995 14.7931C9.3875 14.6531 9.31353 14.5958 9.20756 14.5246C9.16946 14.4776 9.14725 14.4654 9.12503 14.4531C9.15553 14.4908 9.18603 14.5285 9.21698 14.702C9.2181 18.792 9.20842 22.7463 9.23234 26.7003C9.23538 27.2034 9.41397 27.7054 9.51281 28.3129C9.51406 29.1191 9.51373 29.8201 9.41293 30.5257C9.08679 30.7168 8.86112 30.9033 8.50931 31.1036C8.0446 31.1059 7.70602 31.0944 7.36744 31.0829C7.36744 31.0829 7.38994 30.9868 7.4516 30.8596C7.59817 30.5681 7.68307 30.4038 7.84908 30.1497C7.97271 29.826 8.05194 29.5923 8.05234 29.3583C8.06011 24.8805 8.06524 20.4026 8.04643 15.9249C8.04493 15.567 7.86497 15.2099 7.75212 14.741C7.55524 13.9301 7.37418 13.2305 7.19312 12.531C6.67675 11.7561 6.24133 11.9012 5.51563 11.9012C5.51562 10.7401 5.54484 9.65656 5.51562 8.70818C5.95104 8.70818 6.46192 8.74041 6.99934 8.69766C6.99934 8.15846 6.99934 7.62653 6.99934 6.98107C6.56149 6.98107 6.1458 6.98107 5.65495 6.8625C5.65655 5.80617 5.73331 4.86841 5.81236 3.90271C16.1716 3.90271 26.4146 3.90271 36.6643 3.90271C36.8092 4.96953 36.9423 5.94993 37.0754 6.93033ZM12.8641 6.95862C12.1557 6.95862 11.4474 6.95862 10.7221 6.95862C10.7221 7.62778 10.7221 8.13015 10.7221 8.6861C13.7191 8.6861 16.6344 8.6861 19.5689 8.6861C19.5689 8.08853 19.5689 7.58638 19.5689 6.95878C17.3761 6.95878 15.2629 6.95878 12.8641 6.95862ZM24.4947 6.95315C23.9807 6.95315 23.4667 6.95315 22.971 6.95315C22.971 7.65426 22.971 8.15744 22.971 8.6666C25.8434 8.6666 28.6166 8.6666 31.3841 8.6666C31.3841 8.0468 31.3841 7.54587 31.3841 6.95249C29.1172 6.95249 26.9466 6.95249 24.4947 6.95315ZM14.2299 9.91847C12.9157 9.91847 11.6014 9.91847 10.2872 9.91847C10.3014 10.1028 10.3156 10.2871 10.3298 10.4714C12.1436 10.3522 13.9575 10.2329 15.7714 10.1137C15.7698 10.0486 15.7681 9.98354 15.7665 9.91847C15.342 9.91847 14.9175 9.91847 14.2299 9.91847ZM10.0458 12.3218C10.1001 12.3216 10.0729 12.3217 10.0458 12.3218V12.3218Z" fill="#E8051C"/>
<path d="M37.1982 6.95155C36.9419 5.95015 36.8088 4.96975 36.664 3.90293C26.4142 3.90293 16.1713 3.90293 5.812 3.90293C5.73295 4.86863 5.65618 5.80639 5.53177 6.84797C4.51346 7.17613 4.16189 6.77936 4.26127 5.81292C4.32429 5.20015 4.27305 4.57563 4.27305 3.97397C1.79982 3.6104 1.13245 2.98653 0 0C14.1696 1.55834 28.2977 1.57952 42.4259 0.000493866C41.8081 2.59911 40.5918 3.77117 38.2551 3.8607C38.2551 4.60373 38.3498 5.37479 38.2128 6.10225C38.1499 6.43645 37.6326 6.6851 37.1982 6.95155Z" fill="#4B0304"/>
<path d="M12.2667 11.9335C11.8481 11.9335 12.4737 11.6866 12.6439 11.6871C18.3076 11.704 23.9712 11.7351 29.7292 11.8377C24.016 11.9253 18.2084 11.9395 12.2667 11.9335Z" fill="#DD0009"/>
<path d="M14.3614 9.91821C14.9174 9.91821 15.3419 9.91821 15.7664 9.91821C15.7681 9.98328 15.7697 10.0484 15.7713 10.1134C13.9574 10.2327 12.1436 10.3519 10.3297 10.4712C10.3155 10.2869 10.3013 10.1025 10.2871 9.91821C11.6014 9.91821 12.9156 9.91821 14.3614 9.91821Z" fill="#E9000F"/>
<path d="M10.0863 12.3207C10.1011 12.3206 10.0715 12.3208 10.0863 12.3207V12.3207Z" fill="#DD0009"/>
<path d="M9.21847 14.5642C9.18601 14.528 9.1555 14.4903 9.125 14.4526C9.14722 14.4649 9.16944 14.4772 9.20754 14.5241C9.22342 14.5588 9.22043 14.5626 9.21847 14.5642Z" fill="#DD0009"/>
<path d="M16.924 10.0569C16.9315 10.0706 16.9166 10.0432 16.924 10.0569V10.0569Z" fill="#E9000F"/>
<rect x="6.67578" y="11.9012" width="3.77362" height="19.4486" fill="#E8051C"/>
<rect x="29.6094" y="31.0598" width="6.96668" height="8.41807" fill="#4C0506"/>
<rect x="5.22461" y="31.0598" width="6.96668" height="8.41807" fill="#4C0506"/>
<rect x="36.5742" y="3.77368" width="1.74167" height="3.19306" fill="#4B0304"/>
<rect x="36.5859" y="8.70349" width="1.74167" height="3.19306" fill="#510507"/>
<rect x="4.06445" y="3.77368" width="1.74167" height="3.19306" fill="#4B0304"/>
<rect x="4.06445" y="8.70837" width="1.74167" height="3.19306" fill="#510507"/>
</svg>
