<svg width="265" height="294" viewBox="0 0 265 294" fill="none" xmlns="http://www.w3.org/2000/svg">
<path d="M231.11 102.903C230.621 98.7538 231.735 95.2555 235.13 93.0252C236.288 92.2643 238.533 91.6285 239.288 92.2534C240.655 93.384 241.638 95.4269 241.996 97.2575C242.111 97.8458 239.822 99.1033 238.512 99.8096C236.387 100.956 234.163 101.9 231.604 102.983C231.228 103.036 231.14 102.955 231.11 102.903Z" fill="#ED2424"/>
<path d="M37.9459 184.787C33.691 187.709 30.4616 184.599 27.0612 183.3C26.425 183.057 25.8691 181.249 26.0272 180.309C26.1799 179.401 27.3854 177.927 27.9849 178.003C31.2057 178.412 34.4526 179 37.5146 180.093C38.1373 180.316 38.0059 182.973 37.9459 184.787Z" fill="#ED2424"/>
<path d="M24 233.768C19.6086 235.106 15.3043 236.053 11 237C12.7492 231.284 16.0736 229.269 20.622 230.23C21.933 230.506 22.9404 232.287 24 233.768Z" fill="#ED2424"/>
<path d="M221.224 61.1992C224.26 60.9756 227.135 60.8351 229.883 61.3695C230.496 61.4887 231.266 64.1699 230.909 65.3401C230.065 68.1066 231.529 72.4705 227.038 72.9916C225.76 73.1399 224.229 71.2796 222.854 70.2839C219.622 67.9435 219.217 64.966 221.224 61.1992Z" fill="#ED2424"/>
<path d="M185 40.8725C184.11 44.1769 183.335 47.5372 182.121 50.7339C181.734 51.7513 179.649 53.2136 179.241 52.9739C176.376 51.2927 173.178 49.6329 171.289 47.0921C170.382 45.8715 171.812 42.6222 172.778 40.5641C173.08 39.92 175.336 39.9619 176.674 40.0487C179.139 40.2088 181.587 40.6345 184.491 40.8523C184.939 40.7551 184.945 40.865 185 40.8725Z" fill="#ED2424"/>
<path d="M139.316 252.937C140.023 254.364 141.015 255.67 141.383 257.145C141.853 259.025 141.818 261.042 142 263C140.32 262.29 138.135 262.045 137.065 260.774C134.854 258.149 132.407 255.126 135.367 251C136.542 251.672 137.571 252.26 138.918 252.874C139.235 252.9 139.323 252.892 139.316 252.937Z" fill="#ED2424"/>
<path d="M62 199.904C61.2866 200.186 60.7656 199.826 60 199.072C60.5677 198.873 61.3801 199.067 62 199.904Z" fill="#151414"/>
<path d="M192 60.5196C191.48 60.8137 190.74 60.9069 190 61C190.191 60.6863 190.382 60.3726 190.93 60C191.451 60.0669 191.615 60.1927 192 60.5196Z" fill="#313131"/>
<path d="M228 110C227.78 110.544 227.443 110.912 227 111C227.223 110.421 227.553 110.123 228 110Z" fill="#1F1E1E"/>
<path d="M224 111C223.802 111.501 223.442 111.885 223 112C223.224 111.449 223.531 111.166 224 111Z" fill="#1F1E1E"/>
<path d="M218 112C217.636 112.738 216.976 113.433 216 114C216.357 113.233 217.031 112.596 218 112Z" fill="#1F1E1E"/>
<path d="M62.5965 196C63.9763 196.165 64.7797 196.566 66 197.141C64.9445 197.876 63.4722 198.438 62 199C62.0067 198.078 62.0134 197.157 62.5965 196Z" fill="#313131"/>
<path d="M192.116 53.2528C191.962 52.838 191.983 52.5985 192.055 52C192.995 52.0239 193.884 52.4069 194.99 52.967C195.044 53.3385 194.879 53.5331 194.439 54C193.539 53.991 192.915 53.7095 192.116 53.2528Z" fill="#313131"/>
<path d="M186.324 63C185.977 62.6784 185.991 62.3556 186.006 61.7903C186.872 61.3651 187.737 61.1825 188.601 61C188.734 61.298 188.867 61.5959 189 61.8939C188.229 62.2622 187.457 62.6306 186.324 63Z" fill="#313131"/>
<path d="M60.9184 201C60.1642 200.64 59.5926 200.145 59 199.427C59.297 199.072 59.6148 198.938 60.3821 199.026C61.221 199.481 61.6105 199.715 62 199.948C61.7003 200.254 61.4006 200.56 60.9184 201Z" fill="#313131"/>
<path d="M157 63.7521C158.112 62.7281 159.466 61.9376 161.143 61C161.637 61.4724 161.807 62.0918 162 62.9605C161.738 63.3794 161.453 63.549 161.047 63.9111C159.698 64.0642 158.47 64.0248 157 63.7521Z" fill="#E55E58"/>
<path d="M200 79C199.337 80.365 198.59 81.5054 197.819 83C196.305 80.0916 196.811 78.9971 200 79Z" fill="#CB4E51"/>
<path d="M161 58.201C158.335 57.2383 155.733 55.6247 154.371 61C154.232 59.7298 153.671 56.8508 154.273 56.4197C156.64 54.7266 159.381 53.7608 161 58.201Z" fill="#E55E58"/>
<path d="M263 90.4897C264.571 89.7752 266.133 89.3693 268 89C267.549 90.3578 266.794 91.6789 266.039 93C265.023 92.2661 264.007 91.5322 263 90.4897Z" fill="#CB4E51"/>
<path d="M184.263 50.181C183.953 49.4353 183.944 48.7755 184.098 48C186.48 48.9021 188.699 49.9199 190.977 51.5766C191.017 52.4769 190.997 52.7385 190.977 53C188.84 52.0889 186.703 51.1779 184.263 50.181Z" fill="#5E5E5E"/>
<path d="M57.2375 208C56.9648 205.556 56.9802 203.142 57.0266 200.334C57.3862 199.932 57.7149 199.923 58.3043 200.147C59.0071 200.992 59.4491 201.603 59.8913 202.215C60.145 204.841 60.1949 207.333 57.2375 208Z" fill="#D54144"/>
<path d="M202.942 80.9682C203.427 82.4471 203.64 83.7661 204 86C201.926 85.1686 200.406 84.5595 198.529 83.8994C197.826 83.7597 197.479 83.671 197 83.0314C197.984 81.3203 199.102 80.1601 200.219 79C201.036 79.6028 201.853 80.2056 202.942 80.9682Z" fill="#D53A3E"/>
<path d="M156.041 64C155.346 63.1443 154.651 62.2885 154 60.8424C155.406 56.8395 158.24 57.9653 160.998 58.8594C161.005 59.4598 161.011 60.0601 160.638 61.1119C158.853 62.3755 157.447 63.1877 156.041 64Z" fill="#E52C2E"/>
<path d="M264.97 67C266.771 67.6826 268.212 68.4885 271 70.0472C267.204 71.3683 264.774 72.2141 262 73C262.641 71.0012 263.626 69.0622 264.97 67Z" fill="#D53A3E"/>
<path d="M268.027 84.8953C268.754 86.0769 269.29 87.0237 270 88.1598C270.007 88.4469 269.841 88.5448 269.051 88.6629C266.686 89.1221 264.946 89.5611 263.205 90C261.026 89.7768 258.846 89.5535 258 89.4669C258.171 89.3242 260.095 88.4904 260.587 87.1665C262.055 83.2149 264.722 83.6069 268.027 84.8953Z" fill="#9D2124"/>
<path d="M235.713 30.3871C235.713 30.3871 235.671 29.9686 236.071 29.7504C237.261 29.5705 238.051 29.6089 239.949 29.7012C237.055 25.8987 234.609 22.6842 232.163 19.4696C232.163 19.4696 232.161 19.5325 232.298 19.2307C232.091 18.4009 231.748 17.8728 231.404 17.3448C231.292 16.971 231.18 16.5973 231 15.9348C231.348 15.4167 231.763 15.1874 232.434 15C234.283 17.6627 235.878 20.2835 237.798 23.4256C239.75 26.5611 241.375 29.1754 243 31.7896C241.955 32.1927 240.911 32.5958 239.482 33C237.97 32.1298 236.842 31.2584 235.713 30.3871Z" fill="#4F5050"/>
<path d="M221.203 76.0197C222.886 75.96 224.245 76.0392 226 76.2162C219.889 79.1817 213.382 82.0494 206.521 85C206.123 84.7351 206.078 84.3874 206 83.7783C210.938 81.0642 215.909 78.6114 221.203 76.0197Z" fill="#5E5E5E"/>
<path d="M274.64 97.6324C276.016 101.127 273.165 102.439 270.878 103.44C267.735 104.814 265.06 103.662 263 99.958C266.211 98.8807 269.249 97.8617 272.778 97C273.726 97.3157 274.183 97.474 274.64 97.6324Z" fill="#D54144"/>
<path d="M249.019 101.301C248.82 98.1547 250.165 96.4849 253.196 97.1415C256.617 97.8824 260.15 103.107 258.642 105.147C258.069 105.922 255.679 106.265 254.676 105.767C252.639 104.756 250.983 103.037 249.019 101.301Z" fill="#D54144"/>
<path d="M219.607 29.903C220.036 30.3458 220.091 30.8389 219.883 31.7183C218.81 32.2857 218.001 32.4667 217.192 32.6477C211.913 33.1196 206.634 33.5915 201 34C201.152 32.3966 201.659 30.8566 202.259 29C207.98 29.1067 213.607 29.53 219.607 29.903Z" fill="#696A69"/>
<path d="M272 22.9904C270.946 23.9524 269.837 24.5908 268.245 25C265.908 22.8671 264.053 20.9633 262.198 19.0596C262.2 17.7787 261.669 15.8698 262.337 15.3734C263.203 14.7298 265.044 15.0747 266.425 15.2582C267.302 15.3748 268.106 15.9714 269.288 16.4048C270.403 18.5268 271.173 20.5967 272 22.9904Z" fill="#D54144"/>
<path d="M185.994 63.2545C177.753 63.9421 169.512 64.6297 161 65C161 64.4996 161.27 64.3166 161.541 64.1335C165.124 63.9909 168.708 63.8483 173.714 63.649C171.808 61.814 171.007 61.0424 170.963 61C175.028 61.188 180.09 61.4221 185.597 61.9509C186.026 62.5819 186.01 62.9182 185.994 63.2545Z" fill="#4F5050"/>
<path d="M271.908 23C272.829 23.2494 273.749 23.4988 275.025 23.7011C276.584 24.9945 277.787 26.335 279 28C275.666 26.7189 272.397 27.199 268.78 27.7392C264.495 28.3793 259.97 27.4496 255.241 27.0356C254.951 26.4981 254.969 26.1253 255.056 25.4825C256.993 25.5145 258.862 25.8166 261.474 26.159C264.162 25.8133 266.108 25.4273 268.369 25.0018C269.76 24.3082 270.834 23.6541 271.908 23Z" fill="#4F5050"/>
<path d="M234.125 71C233.908 69.5737 233.969 67.9315 234.34 66.2398C237.539 65.9798 240.427 65.7695 243.98 65.4437C245.321 65.2188 245.996 65.1094 246.671 65C247.787 65.7195 248.904 66.4391 250 67.4542C246.319 68.3282 242.65 68.8526 239.004 69.5104C237.444 69.7918 235.934 70.3511 234.125 71Z" fill="#1F1E1E"/>
<path d="M198.383 116.129C200.029 116.956 201.337 117.755 202.883 118.698C203.664 122.717 200.384 124.585 197.392 123.839C194.272 123.061 191.771 120.056 189 118.024C189.824 117.323 190.589 116.13 191.487 116.032C193.009 115.867 194.615 116.393 196.439 116.428C197.143 116.185 197.594 116.142 198.383 116.129Z" fill="#ED2424"/>
<path d="M206 118.531C206.002 119.463 205.685 120.239 205.559 121.187C202.912 123.026 200.076 124.694 197.855 126C195.291 124.584 193.513 123.379 191.575 122.582C188.51 121.323 185.95 119.891 187.433 115.822C188.907 111.778 191.806 112.998 194.567 113.921C195.163 114.12 195.711 114.472 196.29 115.21C194.764 115.415 193.194 114.857 191.707 115.032C190.83 115.136 190.082 116.402 189.277 117.145C191.985 119.3 194.428 122.488 197.477 123.313C200.4 124.104 203.606 122.123 202.842 117.86C201.331 116.86 200.053 116.013 198.775 115.166C202.242 113.587 203.817 116.311 206 118.531Z" fill="#CB4E51"/>
<path d="M230.913 102.274C230.321 101.882 229.73 101.489 229.033 100.536C228.628 99.838 228.329 99.7014 228.031 99.5647C228.031 99.5647 228.062 99.687 228 99.7039C229.42 97.0961 230.621 94.2523 232.503 91.9389C233.448 90.7776 236.26 89.5969 237.136 90.1332C239.763 91.7428 242.035 94.0535 243.967 96.4587C244.273 96.8395 242.358 99.45 241.018 100.452C239.187 101.822 236.923 102.639 234.663 104C233.411 103.866 232.339 103.426 231.522 102.665C233.874 101.421 236.009 100.574 238.05 99.5463C239.307 98.9127 241.505 97.7847 241.394 97.257C241.051 95.6149 240.107 93.7823 238.795 92.7681C238.07 92.2076 235.914 92.7779 234.802 93.4605C231.542 95.4611 230.473 98.5992 230.913 102.274Z" fill="#CB4E51"/>
<path d="M23 177C28.6432 177.14 34.3994 177.601 40.4684 178.237C41.0118 181.637 41.9954 185.194 38.2084 187.053C33.086 189.569 28.6782 186.532 24.613 184.215C23.2777 183.454 23.5666 179.704 23 177ZM37.9114 184.616C37.6894 183.112 37.8244 180.51 37.1848 180.292C34.04 179.22 30.7054 178.645 27.3974 178.244C26.7817 178.169 25.5437 179.613 25.3868 180.503C25.2245 181.424 25.7954 183.195 26.4488 183.433C29.9411 184.705 33.2578 187.752 37.9114 184.616Z" fill="#CB4E51"/>
<path d="M25.5992 229.524C25.897 230.192 25.8548 230.745 26 231.671C25.9605 236.189 24.3271 238.027 19.7677 237.762C15.0622 237.489 10.285 238.5 5 239C9.99035 230.003 15.8649 225.401 25.5992 229.524ZM23.9517 233.16C22.7474 232.017 21.6893 230.151 20.3123 229.861C15.535 228.855 12.0433 230.966 10.2061 236.955C14.7271 235.963 19.2479 234.97 23.9517 233.16Z" fill="#CB4E51"/>
<path d="M45.617 213.069C47.1486 212.22 48.4734 211.636 50 211C48.7791 213.03 47.7684 215.574 45.8579 217.107C39.7262 222.026 33.2616 226.572 26.4117 231C25.9399 230.225 25.982 229.711 26.0241 229.197C32.4862 223.91 38.9482 218.623 45.617 213.069Z" fill="#313131"/>
<path d="M217.93 59.239C218.105 60.1819 217.952 61.0041 217.479 62C215.102 61.4791 213.034 60.8088 210.99 60.0854C204.835 57.908 198.716 56.5477 192.149 60.2979C191.359 59.8346 191.179 59.6355 191 59.4365C192.176 58.4879 193.353 57.5393 194.417 56.0518C194.131 55.4469 193.956 55.3808 193.782 55.3147C193.782 55.3147 193.864 55.3084 194.133 54.9754C194.575 54.4283 194.748 54.2142 194.921 54C202.481 55.7061 210.042 57.4122 217.93 59.239Z" fill="#313131"/>
<path d="M222.046 75.7169C221.619 74.2477 221.64 72.1664 220.68 71.4244C217.827 69.2219 217.706 66.4275 218.264 62.7932C218.642 61.3402 218.796 60.4124 218.949 59.4846C224.062 56.006 228.721 59.5757 233.449 60.7465C234.088 60.9048 234.055 63.9196 233.92 66.0272C233.442 68.2291 233.377 70.0155 233.312 71.8019C231.399 73.2077 229.486 74.6135 226.857 76C224.775 75.8927 223.411 75.8048 222.046 75.7169ZM221.197 61.8324C219.383 65.3391 219.791 68.3743 223.048 70.7601C224.434 71.7751 225.977 73.6715 227.264 73.5203C231.79 72.9891 230.315 68.5406 231.166 65.7205C231.526 64.5277 230.749 61.7944 230.132 61.6729C227.363 61.1282 224.465 61.2714 221.197 61.8324Z" fill="#CB4E51"/>
<path d="M184.156 49.6563C181.89 51.4557 179.788 53.5286 177.265 54.899C176.434 55.3505 174.372 54.1882 173.128 53.3998C171.584 52.4212 170.147 51.1866 168.97 49.8234C168.312 49.0619 168.097 47.8288 168.011 46.7837C167.938 45.8972 168.235 44.9423 168.544 44.0745C170.9 37.455 171.826 37.0307 178.809 39.1035C180.519 39.6109 182.267 39.9993 183.717 40.8419C181.038 40.9451 178.647 40.5447 176.239 40.3942C174.933 40.3125 172.73 40.2731 172.434 40.8789C171.491 42.8144 170.094 45.8701 170.981 47.018C172.825 49.4075 175.948 50.9685 178.746 52.5495C179.145 52.7749 181.181 51.3997 181.559 50.4429C182.745 47.4366 183.502 44.2765 184.425 41.1759C187.642 42.9895 185.069 44.7397 184.244 47.0096C184.136 48.2247 184.146 48.9405 184.156 49.6563Z" fill="#CB4E51"/>
<path d="M206 85.5104C204.385 86.2139 202.817 87.3398 201.147 87.5441C195.44 88.2428 189.352 85.7254 183.967 90C182.379 88.7902 180.451 87.8201 179.24 86.2352C178.344 85.0617 178.38 83.0886 178 81.4717C179.496 81.2905 180.992 80.9921 182.487 81.0002C182.93 81.0025 183.377 81.8595 183.81 82.3374C188.692 87.7278 191.532 88.2671 198.721 84.7591C200.586 85.1072 201.947 85.7643 203.805 86.6613C203.482 84.2512 203.291 82.8281 203.101 81.4051C203.819 82.0806 204.537 82.7561 205.561 83.8836C205.911 84.7272 205.956 85.1188 206 85.5104Z" fill="#CB4E51"/>
<path d="M205.132 98.5803C204.894 98.08 205.016 97.6939 205.202 97.1544C212.935 96.637 220.413 97.3506 227.851 100.357C228.251 100.162 228.22 100.043 228.122 100.322C228.394 100.75 228.763 100.899 229.229 101.288C229.915 101.909 230.504 102.29 231.123 102.716C231.153 102.761 231.237 102.831 231.342 103.096C232.516 103.787 233.585 104.214 234.654 104.641C234.654 104.641 234.93 105.006 235 105.221C234.024 106.249 232.977 107.063 231.673 108C223.836 102.333 214.992 99.695 205.132 98.5803Z" fill="#1F1E1E"/>
<path d="M131 252.31C131.459 251.469 131.976 250.969 132.61 250.185C135.342 249.848 138.087 249.533 138.571 253.465C137.209 253.209 136.164 252.622 134.972 251.951C131.968 256.069 134.452 259.087 136.695 261.707C137.781 262.975 139.998 263.22 141.703 263.929C141.518 261.974 141.554 259.961 141.078 258.085C140.704 256.612 139.698 255.309 138.972 253.931C143.523 254.491 144.651 258.597 144.993 261.863C145.174 263.597 141.826 265.722 139.21 268.625C138.677 270.386 137.674 273.693 136.671 277C136.187 276.927 135.702 276.854 135.217 276.781C139.006 271.146 135.701 266.579 133.748 261.721C132.579 258.813 131.937 255.682 131 252.31Z" fill="#CB4E51"/>
<path d="M148.799 208.304C148.799 208.304 148.905 208.71 149 209.205C148.697 210.896 148.299 212.091 147.902 213.286C146.559 213.814 145.216 214.343 143.286 214.969C141.946 215.679 141.195 216.291 140.443 216.903C139.775 216.983 139.107 217.063 137.962 216.925C137.003 216.459 136.521 216.212 136.04 215.966C135.682 215.05 135.324 214.135 135 212.627C136.163 209.743 137.293 207.452 138.423 205.16C138.423 205.16 138.653 205.046 138.982 204.899C139.566 204.522 139.822 204.293 140.079 204.064C140.66 204.01 141.242 203.955 142.295 204.057C143.28 204.297 143.793 204.38 144.306 204.464C145.379 205.292 146.451 206.121 147.8 207.338C148.318 207.919 148.559 208.111 148.799 208.304Z" fill="#DF3537"/>
<path d="M56.99 207.956C55.1921 209.003 53.3942 210.049 51.0226 211.106C49.0672 211.744 47.6854 212.372 46.3036 213C44.7803 210.791 41.4844 207.821 42.0686 206.517C43.7693 202.721 46.6213 199.052 51.8026 199.001C53.2887 198.987 54.7762 199.088 56.6585 199.692C57.0328 202.817 57.0115 205.387 56.99 207.956Z" fill="#F4918C"/>
<path d="M16.9061 163.531C17.2628 170.093 16.8531 170.502 11.1726 170.829C9.055 170.952 6.95528 172.067 4.86768 171.997C3.23096 171.942 1.39014 171.071 0.128113 169.918C-0.341702 169.489 0.574989 167.23 1.35107 165.461C2.67317 164.182 3.50365 163.246 4.33414 162.311C4.33414 162.311 4.67244 162.121 5.15925 161.972C7.29129 161.55 8.93653 161.275 10.5818 161C12.2556 161.22 13.9295 161.44 15.9233 162.169C16.4643 162.961 16.6852 163.246 16.9061 163.531Z" fill="#DF3537"/>
<path d="M99.5975 282.335C101.169 284.314 102.663 286.038 103.585 288.018C105.03 291.118 102.509 294.222 98.9802 293.988C94.3969 293.683 88.4736 284.652 90.3598 280.524C90.8746 279.397 92.3729 278.309 93.616 278.025C94.4989 277.824 95.8066 278.883 96.7492 279.6C97.6999 280.323 98.434 281.319 99.5975 282.335Z" fill="#DF3537"/>
<path d="M131.274 170.481C134.57 176.592 133.221 178.669 126.576 178.869C124.322 178.937 122.098 179.959 119.848 179.999C118.292 180.027 115.962 179.515 115.353 178.521C114.688 177.435 115.006 175.022 115.94 174.044C119.953 169.843 125.346 169.446 131.274 170.481Z" fill="#DF3537"/>
<path d="M235.317 139.756C229.269 142.83 224.596 139.536 219.963 137.096C219.064 136.623 218.707 133.74 219.271 132.463C219.804 131.255 221.913 129.943 223.269 130.002C226.762 130.153 230.273 130.836 233.68 131.681C237.435 132.611 238.039 135.486 235.317 139.756Z" fill="#DF3537"/>
<path d="M204.711 98.0747C203.414 98.8909 202.184 99.8505 200.802 100.489C198.839 101.395 196.637 101.845 194.766 102.886C191.773 104.551 189.183 104.484 187.035 101.768C184.852 99.0063 186.45 96.9124 188.798 95.4183C191.377 93.7769 194.043 91.882 196.939 91.2018C200.595 90.3433 203.495 92.2535 205 96.3631C204.959 97.265 204.835 97.6699 204.711 98.0747Z" fill="#DF3537"/>
<path d="M14.1334 192.55C12.1795 193.284 10.5624 193.916 9.0637 194.748C6.20868 196.332 3.39239 196.724 1.11536 194.071C-1.21868 191.351 0.515658 189.502 2.61526 187.24C5.95709 183.64 9.77828 181.924 14.3016 183.717C16.2834 184.503 17.4585 187.186 19 189.008C17.5079 190.185 16.0158 191.362 14.1334 192.55Z" fill="#DF3537"/>
<path d="M190.456 182C189.668 179.102 188.879 176.203 188 173C194.492 168.815 201.074 164.934 208 161C207.761 162.516 207.038 164.052 206.632 165.666C206.154 167.573 205.95 169.548 205.605 171.883C201.362 175.037 197.142 177.802 192.437 180.847C191.454 181.419 190.955 181.709 190.456 182Z" fill="#151414"/>
<path d="M254.799 27.0461C253.378 28.0024 251.957 28.9587 249.838 30C247.719 29.6306 246.003 29.5088 244.942 28.6482C243.083 27.1405 241.626 25.1796 240 23.4086C240.406 20.93 240.812 18.4515 241.611 15.5392C243.986 14.737 245.968 14.3685 247.95 14C247.95 14 248.298 14.2047 248.632 14.3908C248.966 14.5769 249.39 14.7872 249.39 14.7872C249.39 14.7872 249.865 14.7443 249.865 14.7443C250.282 14.8927 250.698 15.0411 251.727 15.3661C253.892 16.9332 255.446 18.3236 257 19.714C256.276 21.3647 255.552 23.0154 254.843 25.2971C254.838 26.3008 254.818 26.6735 254.799 27.0461Z" fill="#E32F31"/>
<path d="M83.521 168C79.578 166.403 79.343 163.196 80.8828 160.82C82.9671 157.605 85.9353 154.765 89.0351 152.396C91.2356 150.714 96.2369 154.711 96.8457 158.316C97.7467 163.652 94.6424 167.403 89.0993 167.707C87.355 167.802 85.6147 167.966 83.521 168Z" fill="#E32F31"/>
<path d="M269.411 138C264.954 137.395 259.98 138.484 257 133.533C259.761 129.445 262.393 125.385 265.58 121.84C267.765 119.411 273.173 122.614 273.81 126.802C274.467 131.123 273.516 135.056 269.411 138Z" fill="#DF3537"/>
<path d="M223.81 18.0683C224.842 18.0036 225.873 17.9388 227.479 18.1066C228.597 18.4551 229.143 18.5712 229.688 18.6872C230.097 18.789 230.506 18.8907 231.297 19.3106C231.985 19.7296 232.29 19.8303 232.562 19.9271C232.529 19.9231 232.53 19.8595 232.508 20.2267C233.646 23.7464 234.806 26.8989 235.987 30.2631C236.006 30.4748 236.048 30.8979 235.733 31.0811C234.713 31.9437 233.39 32.6352 233.404 33.3007C233.496 37.6956 230.862 37.3034 227.864 36.4822C227.864 36.4822 227.726 36.1477 227.513 35.7658C226.421 35.0434 225.541 34.7029 224.662 34.3623C224.255 34.2416 223.848 34.1208 222.988 33.7258C221.654 33.0621 220.773 32.6727 219.877 32.0242C219.807 31.2623 219.753 30.7596 219.698 30.2568C218.282 26.1142 218.869 22.4522 222.861 19.1685C223.432 18.5702 223.621 18.3193 223.81 18.0683Z" fill="#D93032"/>
<path d="M231.504 15C229.32 13.6978 227.301 11.9614 224.919 11.1797C219.153 9.28772 221.63 4.43091 221.048 1.14285C220.743 -0.581003 224.52 -4.10735 227.08 -4.78583C230.231 -5.62106 233.022 -3.97887 235.314 -0.461957C239.012 5.21307 235.819 9.35626 233.43 14.1813C232.363 14.5338 231.933 14.7669 231.504 15Z" fill="#DF3537"/>
<path d="M185 28.954C189.142 28.6784 187.706 25.7784 187.34 23.6387C186.912 21.1347 189.59 15.5292 192.193 15.2067C195.565 14.7889 199.347 14.5671 200.663 19.0634C201.518 21.9877 202.289 24.9368 203 28.6297C202.387 31.0561 201.873 32.7275 201.359 34.3989C194.901 36.4895 190.216 32.7259 185.181 29.2626C185.012 28.9643 185 28.954 185 28.954Z" fill="#DF3537"/>
<path d="M257.969 61.7038C257.971 62.6454 257.972 63.5872 258 64.8816C255.607 65.9505 253.189 66.6667 250.448 67C248.948 65.875 247.77 65.133 246.55 64.0426C245.893 61.7595 245.278 59.8248 244.662 57.8901C244.629 56.8958 244.596 55.9015 244.829 54.3914C244.306 52.7435 243.516 51.6114 242.725 50.4793C242.418 50.3379 242.111 50.1965 241.3 49.9094C239.527 49.0836 238.258 48.4036 236.99 47.7235C236.9 46.7093 236.81 45.695 236.933 44.0191C236.764 42.5927 236.382 41.828 236 41.0632C235.999 40.6517 235.998 40.2402 236.192 39.2869C237.36 37.3203 238.333 35.8954 239.498 34.2433C240.696 33.6111 241.702 33.2061 242.933 33C244.654 33.7102 246.15 34.2215 247.645 34.7328C247.961 35.0774 248.276 35.422 248.726 36.2953C249.379 37.5642 249.899 38.3045 250.418 39.0448C250.418 39.0448 250.414 39.1274 250.432 39.2378C250.613 39.5559 250.681 39.782 250.656 40.0266C250.921 41.2493 251.187 42.472 251.321 44.4981C247.889 49.0038 249.594 52.5642 251.901 55.7362C253.543 57.994 255.92 59.7332 257.969 61.7038Z" fill="#D93032"/>
<path d="M277.854 196.328C277.643 197.458 277.333 198.169 277.106 199.17C275.662 205.315 272.21 208.518 265.817 207.935C265.082 207.868 263.903 208.506 263.544 209.156C260.918 213.897 257.968 211.79 255.338 209.45C250.068 204.763 249.72 199.848 253.64 194.176C254.414 193.056 254.756 191.256 254.532 189.896C253.637 184.474 256.332 181.881 261.566 183.456C264.933 184.469 268.26 185.618 271.637 186.595C276.378 187.967 278.614 190.904 277.854 196.328Z" fill="#E52C2E"/>
<path d="M164.597 197.278C161.663 195.367 160.499 192.739 161.197 188.956C163.581 187.677 164.275 186.27 164.33 183.554C164.38 181.082 165.841 178.144 167.646 176.316C170.125 173.805 173.356 171.836 176.588 170.268C177.992 169.587 180.219 170.383 182.041 170.687C183.797 170.981 185.513 171.506 187.71 172.337C188.967 175.604 189.761 178.465 190.584 181.752C191.452 185.618 191.283 188.501 186.899 189.531C186.228 189.689 185.791 190.87 185.287 191.605C183.833 193.729 182.4 195.867 180.959 198C179.588 197.971 178.218 197.942 176.235 197.642C173.166 196.356 170.774 194.102 168.109 196.993C167.68 197.043 167.251 197.093 166.265 197.203C165.337 197.269 164.967 197.273 164.597 197.278Z" fill="#E52C2E"/>
<path d="M89.6248 213.728C89.7175 215.185 89.7172 216.259 89.8054 217.571C90.2831 220.761 90.1185 223.31 86.5326 224.474C85.5941 224.779 84.8092 226.225 84.3992 227.31C82.437 232.503 79.4957 233.854 73.9549 232.518C71.4257 231.908 68.6305 232.417 66.0589 231.912C63.9974 231.506 61.3695 230.824 60.3401 229.351C59.4847 228.127 60.4649 225.549 60.8622 223.616C61.2745 221.611 61.9811 219.665 62.5255 217.685C62.9101 216.285 62.762 214.294 63.6746 213.562C67.7893 210.26 71.829 206.45 76.6007 204.473C81.6524 202.381 88.2191 207.541 89.6248 213.728Z" fill="#E52C2E"/>
<path d="M70.3942 165.347C70.4665 165.705 70.4636 165.54 70.4969 165.52C68.5951 165.547 66.6585 165.561 64.7252 165.648C62.7796 165.737 60.834 166.04 58.8945 165.996C55.7464 165.923 52.5476 165.926 49.4784 165.345C47.5977 164.989 45.2888 164 44.3445 162.555C43.559 161.353 44.3097 159.033 44.6945 157.275C45.1725 155.091 45.8724 152.938 46.6653 150.841C47.4434 148.783 47.959 146.272 49.4749 144.918C52.4494 142.263 55.7669 139.317 59.4573 138.302C62.5394 137.455 66.6748 138.514 69.7779 139.93C75.5167 142.547 72.5424 148.692 73.9674 153.116C74.3127 154.189 71.8365 156.7 70.1433 157.738C65.6895 160.47 70.604 162.597 70.3942 165.347Z" fill="#E52C2E"/>
<path d="M235.046 155.69C235.946 159.536 236.521 163.241 237.094 166.931C240.73 165.657 244.437 164.096 248.289 163.084C251.914 162.133 254.679 163.234 255 167.972C254.679 171.341 252.937 172.548 250.044 171.984C245.664 171.13 241.28 174.94 236.649 171.719C235.91 171.205 231.76 173.918 230.632 175.942C227.846 180.944 224.586 182.25 219.234 179.798C217.242 178.886 214.827 178.406 212.641 178.504C208.207 178.704 206.654 176.326 206 171.865C206.114 169.287 206.314 167.336 206.785 165.452C207.183 163.856 207.895 162.339 208.469 160.788C213.875 158.15 219.077 154.805 224.772 153.172C227.625 152.354 231.377 154.658 235.046 155.69Z" fill="#E52C2E"/>
<path d="M23.4808 176.2C18.2957 175.917 13.1107 175.634 7 175.301C34.6365 168.5 59.8589 179.569 85.7687 182.372C85.9907 181.97 86.2127 181.567 86.4346 181.164C83.3195 178.403 80.087 175.763 77.1269 172.843C74.8191 170.566 72.8499 167.942 70.4829 165.177C70.2356 164.881 70.2384 165.046 70.2384 165.046C71.6572 165.459 73.2323 165.606 74.4636 166.338C77.4355 168.104 80.6523 169.735 83.0555 172.142C96.62 185.729 114.391 185.981 131.603 187.941C139.521 188.842 147.489 189.352 155.448 189.795C157.287 189.897 159.182 188.993 161.446 188.893C161.146 192.655 162.284 195.308 165 197.388C164.849 197.538 164.681 197.931 164.681 197.931C158.466 197.815 152.114 198.456 146.075 197.358C140.632 196.368 137.491 197.385 135.633 203.284C134.486 206.714 133.639 209.563 132.792 212.411C131.458 220.975 129.597 229.505 129.051 238.119C128.837 241.502 131.567 245.074 132.944 249.187C132.4 250.316 131.869 250.818 131.337 251.321C130.63 250.462 129.923 249.602 128.791 248.226C125.743 263.46 121.879 277.987 109.494 290C109.723 287.882 109.583 287.07 109.902 286.536C122.202 265.971 127.427 243.757 125.134 219.851C124.297 211.135 126.844 203.311 130.92 195.478C127.715 193.972 125.242 193.635 122.74 196.615C119.95 199.938 116.493 202.695 113.714 206.025C107.538 213.425 99.6459 217.041 89.7518 217.478C89.2892 216.254 89.2895 215.191 89.2897 214.128C103.11 213.811 110.251 207.619 112.566 193.775C96.8717 190.406 81.1827 186.402 65.8027 196.951C64.5276 196.546 63.8998 196.214 63.2719 195.882C67.8419 192.902 72.4118 189.922 78.0104 186.272C65.5625 183.466 53.7263 180.799 41.1811 177.833C34.8083 177.09 29.1445 176.645 23.4808 176.2Z" fill="#151414"/>
<path d="M253.291 40.6244C261.409 48.3328 270.384 54.485 281.832 57.2118C281.884 58.567 281.562 59.5361 280.833 60.4587C275.726 59.4761 271.348 60.2093 267.116 63.0261C267.337 63.639 267.818 64.2728 268.528 65.1304C270.493 66.1682 272.228 66.9821 274.057 68.0568C274.719 68.7058 275.286 69.0941 276.14 69.6455C280.951 73.3145 285.476 76.8204 290 80.3263C290 81.3547 290 82.3831 289.651 83.8601C286.074 85.8025 282.847 87.2963 279.291 88.8237C277.923 89.2382 276.885 89.6191 275.846 90C274.117 89.6508 272.387 89.3016 270.164 88.5665C269.171 87.2429 268.672 86.3052 268.174 85.3676C273.958 85.7984 279.441 85.0802 284.469 80.7743C282.098 78.7614 279.787 76.9222 277.614 74.9256C274.603 72.1583 271.877 70.328 268.385 74.5537C266.793 76.4806 262.017 74.9286 261.798 72.599C264.894 71.7351 267.289 70.9317 271.03 69.6769C268.282 68.1965 266.862 67.431 265.441 66.6656C263.514 66.3145 261.587 65.9633 259.285 65.2991C258.908 64.0156 258.907 63.0451 259.267 62.0226C263.203 60.7906 266.776 59.6107 271.266 58.1285C264.319 53.0809 258.405 48.7831 252.462 44.0007C252.169 42.2559 251.906 40.9959 252.033 40C252.713 40.3842 253.002 40.5043 253.291 40.6244Z" fill="#1F1E1E"/>
<path d="M290 147.123C285.652 151.073 281.218 154.485 276.978 158.116C270.797 163.408 263.679 166.442 255.149 167C254.443 162.373 251.695 161.292 248.092 162.226C244.262 163.219 240.577 164.752 236.963 166.002C236.393 162.38 235.822 158.744 235.25 155.108C240.275 155.877 245.277 156.913 250.332 157.357C258.67 158.09 265.843 155.525 272.106 148.685C256.322 149.033 248.594 139.653 242.9 127.643C242.159 126.079 241.394 124.524 240.601 122.985C236.392 114.82 235.975 114.165 226.596 115.693C219.797 116.8 213.249 119.395 206.065 121.315C205.86 120.554 206.179 119.804 206.498 119.055C209.614 117.473 212.73 115.892 216.487 114.351C217.782 113.997 218.435 113.604 219.088 113.21C220.146 112.759 221.204 112.308 222.735 112.054C223.752 111.996 224.296 111.741 224.84 111.486C225.263 111.302 225.685 111.119 226.621 111.15C227.647 111.122 228.16 110.878 228.673 110.634C229.659 110.23 230.646 109.826 231.928 108.974C233.27 107.684 234.316 106.842 235.362 106C240.151 112 244.972 117.976 249.716 124.011C251.948 126.849 254.032 129.801 256.548 133.208C259.811 138.319 264.831 137.253 269.117 138.147C277.111 141.365 283.972 140.146 289.677 133.264C290 137.825 290 142.254 290 147.123Z" fill="#120F0F"/>
</svg>
