<svg width="476" height="510" viewBox="0 0 476 510" fill="none" xmlns="http://www.w3.org/2000/svg">
<path d="M33.2494 149.741C36.4762 149.296 39.7029 148.852 43.8629 147.979C50.815 144.675 58.5279 145.432 62.9615 138.331C66.2713 139.685 69.1655 140.975 73.3579 142.843C70.5617 138.337 68.8491 135.577 67.1365 132.817C71.0987 125.151 75.0609 117.485 79.9827 109.5C81.5922 107.555 82.2422 105.93 82.8922 104.304C85.5916 100.63 88.2909 96.9551 91.9738 93.0557C95.7901 94.0318 98.6229 95.2329 101.456 96.4339C102.16 96.4041 102.865 96.3743 104.257 97.0845C108.215 99.2896 113.345 98.8829 111.676 105.323C107.859 105.433 104.041 105.544 99.5048 105.008C97.9995 103.644 97.2129 102.925 96.4263 102.206C95.7893 103.591 95.1524 104.977 94.5154 106.362C92.5953 109.63 90.6752 112.898 87.9354 116.737C86.4354 119.626 85.7551 121.943 85.0748 124.26C84.5991 125.67 84.1235 127.08 82.7893 128.889C81.4341 130.932 80.9375 132.576 80.4409 134.22C73.3238 151.086 62.4304 163.013 43.2707 164.844C40.7891 164.737 39.2136 165.1 37.6382 165.463C38.3017 166.453 38.9652 167.444 39.6287 168.435C42.4134 170.422 45.1982 172.41 48.5165 175.148C52.6863 177.203 56.3225 178.509 59.9586 179.814C60.7511 179.826 61.5436 179.838 63.0369 180.521C67.7415 180.834 71.7452 180.477 75.749 180.119C76.8832 179.8 78.0174 179.481 79.9176 179.517C81.5043 179.491 82.3252 179.11 83.146 178.728C83.7806 178.436 84.4152 178.144 85.763 178.171C87.2701 178.059 88.064 177.629 88.8579 177.199C89.4792 176.882 90.1006 176.566 91.519 176.598C93.8604 176.652 95.4048 176.357 97.1423 176.568C97.229 178.152 97.1226 179.23 97.0638 180.364C97.1113 180.42 97.1333 180.272 96.7248 180.619C96.2766 182.775 96.237 184.584 96.1456 186.948C96.3336 188.193 96.5734 188.884 96.661 190.132C96.5609 191.843 96.6131 192.997 96.426 194.313C96.1868 194.476 95.9847 195.04 95.4517 194.933C92.389 193.597 89.8594 192.368 87.3542 191.108C87.3785 191.077 87.3206 191.128 87.1189 190.563C83.7914 189.358 80.6899 188.442 77.5353 188.131C68.5687 187.246 67.8436 187.946 66.1315 197.202C54.6327 196.57 44.7603 192.756 35.621 186.436C33.5942 185.034 30.9735 183.708 28.6738 183.793C19.4479 184.134 10.2407 185.042 0.712156 185.764C-0.975705 188.86 -2.86687 192.328 -5.06651 196.13C-8.24998 199.708 -11.125 202.953 -14 206.198C-14 197.094 -14 187.989 -13.547 177.905C-9.98596 168.964 -6.87793 161.002 -3.5101 152.374C-6.66038 149.466 -10.3302 146.077 -14 142.689C-14 135.598 -14 128.508 -14 120.712C-4.15874 128.441 5.68251 136.875 15.7578 146.186C12.4591 151.259 8.9265 155.456 4.98152 159.37C2.85776 157.85 1.14635 156.613 -0.572918 155.37C-6.2021 164.908 -9.31886 178.931 -7.36202 186.522C-4.06471 182.683 -0.929522 179.033 2.72789 175.476C4.26572 175.878 5.28131 176.185 6.13357 177.063C9.42102 181.064 23.2614 182.379 26.2466 179.469C26.394 179.325 25.7058 178.22 25.7235 177.11C31.7592 168.68 37.613 160.745 33.2494 149.741Z" fill="#120F0F"/>
<path d="M-14 57.7694C-8.72232 55.8869 -3.44463 54.708 2.58764 53.9316C4.49339 55.4848 5.64455 56.6355 6.79572 57.7861C5.32016 64.3073 4.89459 69.7258 9.8778 75.9313C15.8466 83.3642 8.26119 99.951 -0.92785 101.485C-2.70638 101.782 -4.83282 99.8151 -6.77296 98.834C-8.84495 97.7862 -10.8864 96.6691 -13.4706 95.8436C-14 83.561 -14 71.017 -14 57.7694Z" fill="#E52C2E"/>
<path d="M14.6256 260.05C6.4561 262.358 -0.440886 270.747 -10.3263 265.37C-10.7448 265.143 -12.4021 267.235 -13.7925 268.586C-14.1027 259.212 -14.1027 249.501 -13.5336 239.162C-7.4653 238.015 -1.96615 237.495 4.05755 236.863C10.0547 239.944 15.5274 243.137 21 246.33C20.2425 246.767 19.485 247.205 18.7275 247.643C17.3602 251.779 15.9929 255.914 14.6256 260.05Z" fill="#D93032"/>
<path d="M14.7961 259.069C15.6085 254.886 16.9537 250.676 18.2988 246.465C19.0441 246.019 19.7893 245.574 20.5346 245.128C15.1505 241.878 9.76645 238.627 3.80048 234.96C-2.52095 228.491 -8.26047 222.439 -14 216.387C-14 215.278 -14 214.169 -13.5107 212.543C-9.75619 214.327 -6.49094 216.629 -2.85474 219.329C6.89649 227.43 16.1981 235.243 25.7471 242.711C27.0859 243.758 29.6371 243.114 32.0915 243.226C33.4669 243.045 34.3779 242.89 35.5419 243.248C36.2866 245.203 36.7782 246.646 37 248.372C35.8371 249.582 34.944 250.508 34.0509 251.434C27.8103 253.97 21.5696 256.505 14.7961 259.069Z" fill="#1F1E1E"/>
<path d="M21.4269 406.048C11.5709 398.397 1.7149 390.746 -8.04782 383.168C-7.89599 384.989 -7.60886 388.433 -7.81127 392.541C-8.66109 393.24 -9.02138 393.276 -9.38166 393.312C-10.5841 388.469 -11.7866 383.627 -13.4945 378.549C-14 368.759 -14 359.206 -14 348.948C-12.9282 350.459 -11.099 352.605 -10.9037 354.901C-9.25421 374.291 2.28303 386.57 16.3913 397.12C18.4959 398.694 20.4873 400.432 23 402.812C22.7883 404.369 22.1076 405.208 21.4269 406.048Z" fill="#1F1E1E"/>
<path d="M-3.0318 218.887C-6.35581 216.481 -9.67982 214.076 -13.5019 211.632C-14 209.945 -14 208.297 -14 206.031C-11.0991 202.097 -8.19822 198.781 -4.76703 195.624C-1.38538 198.453 1.50401 201.078 4.30829 203.804C8.38503 207.766 7.77651 213.395 2.85259 216.379C1.0319 217.482 -1.06233 218.066 -3.0318 218.887Z" fill="#D93032"/>
<path d="M265.33 328.658C275.394 314.104 272.243 298.384 268.854 282.698C267.381 275.878 265.559 269.141 263.337 262.148C262.779 261.929 262.908 262.052 263.157 261.549C262.772 260.354 262.138 259.66 261.598 258.963C261.691 258.958 261.748 258.77 261.748 258.77C259.389 253.162 257.264 247.418 254.484 242.053C253.888 240.902 250.895 240.656 249.057 240.788C236.775 241.674 224.506 242.775 212 242.9C217.828 238.734 217.956 233.326 216.508 227.348C228.976 230.8 241.366 229.953 253.903 227.34C267.882 224.427 281.924 221.39 296.079 220.011C309.926 218.662 321.661 213.55 331.987 204.031C334.306 201.894 336.957 200.161 340.148 197.69C343.411 194.935 345.981 192.733 348.551 190.53C351.533 187.737 354.514 184.943 358.52 181.878C360.821 182.336 362.099 183.067 363.376 183.797C363.376 183.797 362.863 183.885 362.455 184.019C361.293 185.466 360.54 186.78 359.787 188.093C359.787 188.093 359.797 188.118 359.429 188.201C358.94 188.727 358.819 189.168 358.698 189.61C352.062 197.705 345.425 205.8 339.3 213.27C351.544 210.55 365.933 208.287 379.796 204.082C409.598 195.044 433.965 192.331 465 196.861C456.521 197.589 448.043 198.317 438.317 198.966C428.578 200.324 420.085 201.761 411.092 203.248C410.27 203.738 409.948 204.178 409.682 204.559C409.736 204.499 409.61 204.4 409.61 204.4C401.542 205.998 393.355 207.111 385.437 209.31C374.271 212.411 363.305 216.317 352.109 219.925C361.478 225.875 370.351 231.509 379.454 238.081C379.066 239.771 378.45 240.523 377.834 241.276C371.787 237.869 365.961 233.888 359.647 231.177C347.823 226.1 335.671 223.691 322.819 227.495C314.174 230.054 305.233 231.498 296.453 233.435C298.586 254.773 311.955 266.569 334.745 267.366C335.015 269.525 334.63 271.197 334.246 272.869C319.38 272.4 306.385 267.566 296.122 255.53C291.519 250.132 285.915 245.688 281.328 240.278C277.274 235.498 273.055 233.958 267.004 237.261C267.793 238.952 268.622 240.89 269.578 242.754C275.623 254.536 278.385 266.946 277.2 280.465C275.028 305.248 280.401 328.934 287.283 353.352C287.817 355.395 288.409 356.414 289.002 357.434C292.595 366.011 296.188 374.588 299.79 384.15C300.259 385.414 300.717 385.692 301.176 385.97C302.004 387.719 302.832 389.469 303.66 391.219C302.917 391.58 302.173 391.941 301.429 392.302C285.669 373.921 277.76 351.416 273.135 325.158C270.945 328.989 270.016 330.613 268.36 332.638C267.035 332.932 266.438 332.824 265.783 332.798C265.723 332.879 265.909 332.816 265.855 332.29C265.645 330.729 265.488 329.693 265.33 328.658Z" fill="#151414"/>
<path d="M335.036 273.098C335.316 270.893 335.696 269.254 336.035 267.08C336.578 256.536 346.647 247.302 355.444 250.038C360.956 251.753 365.636 256.306 370.798 259.387C376.855 263.003 377.896 268.533 377.175 275.193C377.017 276.654 379.025 278.244 379.531 279.94C380.552 283.364 382.912 288.08 381.626 290.1C379.947 292.738 375.365 293.68 371.854 294.605C368.509 295.487 364.719 294.742 361.503 295.883C352.887 298.942 347.309 296.454 344.41 287.774C343.882 286.192 342.619 284.129 341.294 283.722C336.245 282.172 334.737 278.662 335.036 273.098Z" fill="#E52C2E"/>
<path d="M217.02 226.498C218.795 232.862 218.666 238.301 212.301 242.095C206.148 240.375 200.753 240.014 194.442 242.978C187.033 246.458 181.752 242.637 179.065 234.457C178.566 232.938 177.715 230.632 176.66 230.379C169.493 228.658 169.355 223.432 170.591 216.348C172.008 210.128 173.136 205.036 174.264 199.945C177.458 198.988 180.765 198.321 183.821 197.008C188.763 194.886 192.71 194.725 196.29 199.982C197.725 202.089 201.072 202.812 203.611 204.021C210.126 207.123 213.705 211.806 212.936 219.903C212.752 221.832 215.377 224.056 217.02 226.498Z" fill="#E52C2E"/>
<path d="M97.0851 189.428C96.8432 188.734 96.6013 188.04 96.7651 186.408C97.2498 183.673 97.329 181.875 97.4081 180.076C97.4081 180.076 97.3859 180.226 97.8365 180.039C99.0648 178.014 99.8425 176.177 100.62 174.339C101.407 174.06 102.194 173.781 103.97 173.718C106.543 172.706 108.127 171.476 109.712 170.246C109.712 170.246 109.89 170.26 110.479 170.497C114.282 171.889 117.498 173.045 120.713 174.201C120.713 174.201 121.334 174.275 121.606 174.967C121.596 177.897 120.411 180.638 121.225 182.266C122.73 185.274 125.039 189.208 127.679 189.891C131.716 190.936 136.317 189.55 141.233 189.26C142.527 189.269 143.267 189.212 143.94 189.292C143.873 189.429 143.986 189.153 143.955 189.762C143.949 196.352 143.975 202.333 144 208.315C144 208.315 143.984 208.815 143.146 208.973C137.146 209.598 131.428 208.722 126.937 210.801C116.838 215.476 107.253 220.408 95.5923 218.444C91.2967 217.721 88.8296 216.96 89.0092 211.717C89.3706 211.069 89.5345 210.821 90.134 210.47C91.0071 209.546 92.018 208.3 91.7975 207.97C87.3476 201.304 91.8898 198.163 96.2493 194.922C96.2493 194.922 96.4531 194.356 97.0765 194.063C97.495 192.323 97.29 190.876 97.0851 189.428Z" fill="#EC2C26"/>
<path d="M357 165.198C357.049 163.072 357.098 160.946 357.611 157.749C358.071 149.825 357.403 142.753 363.471 137.891C363.471 137.891 363.94 137.94 364.673 137.834C368.369 136.584 371.334 135.439 374.298 134.295C375.394 134.311 376.489 134.326 378.391 134.765C383.756 138.082 388.312 140.975 392.869 143.869C392.869 143.869 393 143.717 393.128 144.215C394.513 145.599 395.77 146.484 397.026 147.37C397.026 147.37 397.199 147.926 397.428 148.469C397.875 149.531 398.248 149.77 398.779 149.729C398.779 149.729 398.73 149.812 398.752 150.302C399.23 152.016 399.687 153.239 400.143 154.462C400.088 155.131 400.032 155.801 399.769 157.398C397.363 163.84 401.449 165.649 404.567 168.03C404.661 168.324 404.755 168.618 405 169.884C404.265 173.84 403.379 176.824 402.493 179.808C402.493 179.808 402.639 180.11 401.948 180.098C398.21 180.081 395.146 179.863 392.122 180.136C389.815 180.345 387.558 181.174 385.278 181.728C385.278 181.728 384.757 181.738 384.021 181.878C377.06 181.39 370.836 180.76 363.679 180.037C367.397 173.155 367.241 169.508 361.003 168.186C359.541 167.877 358.328 166.23 357 165.198Z" fill="#E52C2E"/>
<path d="M34 253.078C34.8156 251.572 35.7479 250.637 37.4819 249.304C40.9628 247.26 43.7597 245.779 46.2986 243.935C53.8059 238.483 61.2113 232.887 68.6567 227.347C68.0468 235.354 71.463 241.829 75.0746 248.764C78.7093 255.744 70.9811 268.94 63.2942 270.617C61.1652 271.081 58.5066 269.498 56.1991 268.578C53.5629 267.526 51.0776 265.202 48.4737 265.118C40.6188 264.866 35.1461 262.299 34 253.078Z" fill="#E52C2E"/>
<path d="M127.978 364.684C114.492 365.95 101.006 367.216 86.2842 368.597C99.2507 389.89 116.411 405.394 136 419.635C135.057 422.824 133.343 425.539 131.629 428.254C129.459 425.557 127.505 422.62 125.082 420.205C114.858 410.012 104.494 399.976 93.6376 389.132C85.2675 378.764 80.3683 365.886 67 361.834C67.5567 359.234 68.1489 357.198 69.2646 355.293C74.8245 356.902 79.8619 359.631 84.8971 359.627C101.531 359.611 118.164 358.608 134.557 358.389C132.203 360.757 130.09 362.721 127.978 364.684Z" fill="#1F1E1E"/>
<path d="M222.036 388.168C225.204 378.804 237.288 372.859 245.882 376.436C252.32 379.115 254.253 391.874 248.88 396.124C247.997 396.822 246.656 397.524 246.464 398.429C244.411 408.138 239.248 408.755 231.241 404.887C227.549 403.104 221.721 407.657 219 400.371C220.004 395.69 221.02 391.929 222.036 388.168Z" fill="#E32F31"/>
<path d="M22.0145 300.618C23.0687 298.89 24.1944 297.208 25.1618 295.426C27.045 291.956 28.1648 287.55 30.8422 285.151C34.1625 282.177 38.893 278.844 42.7497 279.183C53.7441 280.15 57.1182 287.656 53.7532 302.236C51.7611 305.214 50.1345 307.275 48.0909 309.655C42.5334 310.11 37.3929 310.246 31.8087 310.761C24.3844 311.645 21.7789 307.607 22.0145 300.618Z" fill="#E32F31"/>
<path d="M127.982 365.731C130.052 363.077 132.15 361.13 134.641 358.479C135.43 357.578 135.8 357.337 136.62 357.127C138.223 356.151 139.352 355.103 141.019 353.93C142.237 353.509 142.917 353.214 143.967 353.178C144.917 353.422 145.498 353.407 146.687 353.673C148.614 353.98 149.933 354.006 151.584 354.275C153.766 356.512 155.615 358.504 157.464 360.496C157.652 363.224 158.207 365.996 157.918 368.667C157.661 371.048 156.652 373.414 155.61 375.593C155.152 376.552 153.122 376.88 152.942 377.754C150.834 387.965 144.75 386.677 137.663 384.257C133.987 383.002 129.901 383.078 126 382.553C126.735 378.68 127.559 374.822 128.158 370.926C128.381 369.476 128.075 367.936 127.982 365.731Z" fill="#E32F31"/>
<path d="M189.747 377.498C183.793 377.18 177.84 376.835 171.884 376.551C166.89 376.312 164.493 371.671 167.01 367.033C167.786 365.602 168.568 364.175 169.468 361.72C169.47 359.502 169.349 358.31 169.535 356.608C174.741 351.891 179.641 347.684 184.994 343.661C186.086 343.889 186.725 343.934 187.627 344.274C188.115 344.695 188.341 344.82 188.909 345.377C191.003 345.849 192.754 345.889 194.506 345.928C200.364 353.201 200.486 362.318 194.923 369.412C193.881 370.742 193.191 372.384 191.737 374.564C190.673 375.998 190.21 376.748 189.747 377.498Z" fill="#E32F31"/>
<path d="M5.61386 175.976C4.59667 175.665 3.57948 175.354 2 174.397C2.03932 171.279 2.68111 168.816 3.23115 166.331C3.77233 163.885 4.22045 161.416 4.7094 158.958C8.24758 154.716 11.7858 150.475 15.451 145.716C21.6484 142.498 27.1692 143.305 32.3329 148.544C36.9792 160.061 31.1162 168.081 24.5276 176.577C17.6492 176.667 11.6315 176.321 5.61386 175.976Z" fill="#E52C2E"/>
<path d="M206.13 338.374C205.084 338.289 204.038 338.204 202.133 337.84C198.304 337.695 195.334 337.83 192.363 337.965C192.363 337.965 192.024 337.646 191.438 337.604C190.333 337.598 189.814 337.635 189.113 337.329C188.105 336.495 187.279 336.004 186.286 335.164C185.772 334.475 185.425 334.135 185.078 333.794C185.011 333.144 184.945 332.493 185.074 331.057C185.463 329.42 185.657 328.569 185.851 327.717C185.851 327.717 186.037 327.685 186.483 327.358C187.201 324.725 187.473 322.418 187.745 320.111C187.832 319.825 187.919 319.539 188.315 318.398C193.507 313.207 198.391 308.872 203.274 304.537C203.93 304.615 204.585 304.693 206.076 305.158C214.096 306.401 218.277 310.038 217.678 318.4C217.601 319.477 218.535 320.637 219 321.758C218.706 323.082 218.412 324.405 217.427 326.294C215.262 329.245 213.788 331.632 212.313 334.019C211.475 334.961 210.637 335.903 209.052 337.101C207.579 337.696 206.855 338.035 206.13 338.374Z" fill="#E32F31"/>
<path d="M231.247 439.688C231.542 439.294 232.073 438.917 232.098 438.504C232.914 425.483 232.937 425.463 245.322 429.737C245.994 429.969 246.679 430.168 247.368 430.337C259.39 433.274 261.598 438.418 256.263 451.071C252.91 459.021 243.432 454.848 239.188 461.033C236.018 458.291 232.278 456.013 229.893 452.632C228.464 450.606 229.155 446.855 229.251 443.006C230.155 441.318 230.701 440.503 231.247 439.688Z" fill="#E32F31"/>
<path d="M8.22726 56.8275C6.49214 55.7938 5.33175 54.6212 4 53.1243C16.0346 39.6255 28.6972 27.1609 44.833 20.0947C45.2586 20.6991 45.6842 21.3035 46.1097 21.9079C43.5717 24.2861 41.0337 26.6643 37.0333 30.4127C45.1409 32.802 52.0705 34.8441 59 36.8862C58.7573 37.867 58.5145 38.8478 58.2718 39.8286C51.0902 38.1578 43.9152 36.453 36.7223 34.8417C35.0635 34.4701 32.7266 33.551 31.7536 34.3631C26.0741 39.1038 20.7076 44.2848 15.2354 49.3172C15.2644 50.2723 15.2934 51.2274 15.3223 52.1825C21.9098 53.897 28.4636 55.7882 35.0944 57.2765C41.8078 58.7834 48.5974 59.8916 55.1973 62.0697C39.7343 59.9533 23.2968 66.722 8.22726 56.8275Z" fill="#1F1E1E"/>
<path d="M68.9085 355.951C68.3393 358.018 67.77 360.084 66.8866 362.996C65.5686 364.976 64.5649 366.112 63.0718 367.308C62.1439 367.904 61.7054 368.441 61.2669 368.977C59.035 369.03 55.6932 368.075 54.7768 369.323C51.8945 373.249 48.7036 374.933 45.6274 371.131C42.9183 367.783 39.9653 363.051 40.0003 358.96C40.0546 352.605 42.5529 346.276 44.6836 339.44C48.1266 339.365 50.9013 339.784 54.1531 340.481C56.0345 341.429 57.4124 342.59 58.8478 342.686C66.489 343.196 69.5899 347.743 68.9085 355.951Z" fill="#E32F31"/>
<path d="M53 340.489C50.1405 340.077 47.2809 339.665 43.8828 339.17C30.609 321.783 14.8181 308.461 -4 298.175C-3.27533 294.263 -2.1347 290.717 -0.820514 286.562C6.57388 290.652 13.7947 295.352 21.4017 300.465C21.55 307.8 24.1791 311.8 31.4523 311.493C38.7877 321.287 45.8938 330.888 53 340.489Z" fill="#151414"/>
<path d="M172 325.683C171.956 326.838 171.911 327.994 171.662 330.218C169.966 338.992 167.528 345.626 158.081 344.354C157.854 344.323 157.48 344.347 157.39 344.493C151.985 353.24 147.534 347.109 142.83 343C142.117 340.994 141.499 339.473 141 337.444C141.09 336.241 141.061 335.546 141.276 334.619C141.732 333.543 141.942 332.699 142.152 331.854C143.174 327.193 144.196 322.531 146.05 317.226C156.043 317.216 165.196 317.871 172 325.683Z" fill="#E32F31"/>
<path d="M63 137.566C58.9619 144.651 51.2102 143.902 44.8403 146.983C39.0211 143.917 35.008 139.588 34.1408 132.59C33.305 125.846 36.214 119.999 42.2569 117.84C43.667 117.337 46.146 117.088 46.8504 117.912C51.922 123.845 56.6631 130.084 62.0867 136.744C62.6644 137.261 63 137.566 63 137.566Z" fill="#E32F31"/>
<path d="M174 199.686C173.304 205.034 172.178 210.14 170.728 215.715C162.648 211.061 154.891 205.939 146.559 199.965C145.069 195.609 144.154 192.105 143.239 188.6C143.239 188.6 143.125 188.877 143.084 188.3C142.255 186.848 141.467 185.973 140.606 184.56C140.355 182.955 140.178 181.888 140 180.82C151.19 187.029 162.38 193.237 174 199.686Z" fill="#151414"/>
<path d="M341.774 169.411C342.479 170.373 343.185 171.335 344.438 173.098C347.484 182.758 346.052 187.285 340.344 188.575C330.837 190.723 325.561 188.085 321 178.902C321.027 175.892 321.055 172.882 321.453 168.967C323.39 166.1 324.956 164.138 326.522 162.177C326.522 162.177 326.419 162.079 326.959 162.065C329.423 161.61 331.346 161.17 333.269 160.729C333.404 161.249 333.695 161.615 334.536 162.445C337.211 165.178 339.493 167.295 341.774 169.411Z" fill="#E32F31"/>
<path d="M231 440.559C230.927 441.59 230.381 442.391 229.513 443.407C221.727 442.85 214.265 442.078 206.803 441.307C206.301 441.977 205.798 442.648 205.296 443.318C207.462 447.438 209.628 451.557 211.773 456.638C211.232 458.04 210.711 458.479 210.191 458.919C207.263 455.032 203.493 451.55 201.607 447.163C198.818 440.676 194.098 437.795 188.198 436.296C180.388 434.311 172.503 432.653 164.015 430.231C163.903 427.747 164.425 425.885 164.948 424.024C176.844 428.126 188.634 432.632 200.681 436.155C206.466 437.846 212.746 437.602 218.784 438.384C222.714 438.893 226.614 439.672 231 440.559Z" fill="#313131"/>
<path d="M142 72.7757C147.363 60.9072 157.615 59.0128 166.908 68.1196C167.958 69.1486 169.867 69.5836 170.398 70.7654C171.608 73.4553 173.754 77.661 172.732 79.0438C170.701 81.791 166.32 85.1401 163.744 84.5215C156.634 82.8144 149.954 79.1911 142.648 75.4866C142.128 74.0237 142.064 73.3997 142 72.7757Z" fill="#DF3537"/>
<path d="M466.996 209.844C469.582 212.066 472.317 213.622 473.597 216.079C475.084 218.933 476.584 223.03 475.771 225.775C474.408 230.374 470.289 231.46 465.952 229.76C461.287 227.931 456.498 226.391 452.017 224.128C450.243 223.231 447.696 220.245 448.03 219.043C448.947 215.731 450.652 211.093 453.05 210.206C457.129 208.696 461.977 209.655 466.996 209.844Z" fill="#DF3537"/>
<path d="M160.483 122.663C155.453 120.309 150.423 117.956 145.089 114.73C144.524 112.819 144.262 111.78 144 110.741C145.721 105.047 149.282 102.761 154.901 102.859C157.817 102.91 160.789 101.38 163.682 100.384C167.618 99.0285 171.105 98.2703 173.147 103.677C175.056 108.731 173.738 112.244 169.419 114.537C166.64 116.012 163.6 116.925 160.855 118.458C160.171 118.84 160.176 120.649 160.171 122.237C160.478 122.673 160.483 122.663 160.483 122.663Z" fill="#DF3537"/>
<path d="M65.5005 27.4965C62.1186 25.778 59.1849 24.0163 56.3846 22.0148C54.9031 20.956 53.6534 19.48 53 18.8588C57.2631 13.7697 61.8496 7.90977 66.8554 2.55332C68.3566 0.94697 71.6041 -0.57426 73.0207 0.222202C74.9402 1.30138 77.1509 4.76769 76.9919 7.00499C76.3776 15.6505 73.8348 23.4796 65.5005 27.4965Z" fill="#DF3537"/>
<path d="M103.218 149.098C96.7975 148.569 92.2767 146.031 93.0959 139.78C93.8227 134.232 98.5816 133.514 103.748 133.504C106.971 133.497 110.193 131.109 113.41 131.122C116.199 131.134 120.041 132.262 121.527 134.251C124.056 137.633 123.431 141.835 118.85 143.774C113.964 145.842 108.83 147.346 103.218 149.098Z" fill="#DF3537"/>
<path d="M411.874 202.111C420.628 200.604 429.382 199.098 438.73 197.739C438.849 202.211 439.683 209.207 437.653 210.359C431.476 213.863 424.221 216.622 417.332 216.771C411.594 216.894 409.377 210.783 410.281 203.876C409.83 203.371 409.96 203.475 410.401 203.791C411.186 203.441 411.53 202.776 411.874 202.111Z" fill="#DF3537"/>
<path d="M464.02 294.082C465.294 296.722 466.569 299.363 468 302.327C460.22 302.327 451.293 302.685 442.441 302.01C440.775 301.883 439.407 297.64 438 294.233C438.134 292.418 438.17 291.667 438.66 290.625C444.965 284.871 451.605 289.236 457.855 288.744C457.855 288.744 458.01 288.793 458.13 289.266C459.091 290.328 459.932 290.917 460.773 291.506C460.773 291.506 460.892 291.479 461.112 291.893C462.229 292.899 463.124 293.49 464.02 294.082Z" fill="#DF3537"/>
<path d="M95.9072 88.5343C92.1879 86.2873 88.2623 84.3708 84.8263 81.6703C82.7401 80.0307 79.5873 75.9117 80.0447 75.0837C82.5227 70.5979 85.5904 66.2285 89.2868 63.0286C90.7594 61.7537 95.6484 62.5159 96.7602 64.1986C100.037 69.159 102.203 75.0436 105 81.4339C102.506 84.5 99.8171 86.6988 96.8181 88.8258C96.5084 88.7541 95.9072 88.5343 95.9072 88.5343Z" fill="#DF3537"/>
<path d="M264.793 195.335C272.187 189.295 287.927 193.571 291.492 200.555C292.386 202.306 292.048 205.699 290.887 207.266C289.79 208.745 286.831 209.468 284.749 209.36C281.011 209.167 277.321 207.542 273.603 207.514C264.257 207.443 262.766 205.768 264.793 195.335Z" fill="#DF3537"/>
<path d="M470.345 190.337C464.953 189.644 460.107 188.365 455.298 188.51C450.164 188.666 448.376 185.932 448.049 181.277C447.734 176.796 448.866 172.212 453.705 172.365C460.285 172.573 467.3 171.319 472.892 177.485C477.523 182.59 477.221 186.578 470.345 190.337Z" fill="#DF3537"/>
<path d="M320.083 402.876C319.634 402.665 319.185 402.453 318.156 401.652C316.717 399.478 315.859 397.894 315 396.311C315.276 395.28 315.551 394.25 316.343 392.482C317.382 390.314 317.904 388.883 318.427 387.453C319.279 386.247 320.132 385.042 321.813 383.586C324.572 381.526 326.502 379.716 328.869 377.498C333.492 378.423 338.508 379.737 334.592 387.95C333.87 389.463 334.597 391.777 334.656 393.722C333.682 394.857 332.708 395.992 331.012 397.542C329.605 398.934 328.92 399.913 328.235 400.892C326.804 401.506 325.372 402.12 323.008 402.689C321.41 402.722 320.747 402.799 320.083 402.876Z" fill="#DF3537"/>
<path d="M164 422.786C163.64 425.14 163.118 426.99 162.657 429.337C161.059 436.356 157.557 440.055 150.621 440.325C148.407 440.412 146.298 443.459 143.326 445.172C141.086 444.883 139.661 444.573 138.237 444.263C135.85 439.299 133.463 434.334 131 428.832C132.62 425.612 134.316 422.93 135.764 419.83C137.01 416.767 137.956 412.648 140.105 411.764C145.66 409.477 160.772 416.801 164 422.786ZM160.537 427.725C162.476 421.851 160.032 418.69 154.703 417.363C152.41 416.792 149.979 416.626 147.817 415.727C141.797 413.225 138.79 414.451 139.528 421.971C139.699 423.715 138.964 426.11 137.811 427.343C133.743 431.697 136.319 434.946 138.905 438.382C141.947 442.424 144.577 441.732 147.31 437.902C147.848 437.148 149.495 436.991 150.619 437.023C156.097 437.182 158.803 433.934 160.537 427.725Z" fill="#CB4E51"/>
<path d="M406.973 256.622C405.695 257.372 404.416 258.121 402.444 259.068C399.343 257.898 396.936 256.531 394.083 254.896C391.675 253.5 389.829 251.831 387.725 251.354C383.308 250.352 382.27 247.643 383.453 243.48C388.805 240.113 394.207 238.395 399.033 242.192C403.396 245.624 410.703 248.184 406.973 256.622Z" fill="#ED2424"/>
<path d="M48 309.623C49.6838 307.472 51.3675 305.322 53.3366 302.995C62.1929 301.936 71.1329 302.85 79.5055 296.3C81.3495 295.479 82.3122 295.074 83.5518 295.021C83.9893 296.249 84.1501 297.126 83.8971 298.264C80.1308 300.623 76.7783 302.722 73.4257 304.821C73.6014 305.641 73.7771 306.462 73.9528 307.283C77.6487 307.283 81.3956 306.886 85.0203 307.44C87.0182 307.745 88.8108 309.645 90 310.882C75.536 310.499 61.768 310.061 48 309.623Z" fill="#151414"/>
<path d="M394.351 255.896C396.825 257.282 399.298 258.667 402.216 260.243C413.07 269.343 423.48 278.252 434.582 287.708C436.182 288.826 437.091 289.398 438 289.97C437.962 290.757 437.924 291.544 437.745 292.906C420.872 284.913 407.076 272.497 394 258.424C394.216 256.977 394.283 256.437 394.351 255.896Z" fill="#1F1E1E"/>
<path d="M68.5865 226.757C61.14 232.982 53.8199 238.73 46.3992 244.332C43.8895 246.226 41.1249 247.747 37.9627 249.552C36.9412 248.168 36.4339 246.67 36 244.246C38.7966 241.636 41.6974 240.2 44.2077 238.218C50.3054 233.403 56.2216 228.335 62.7063 223.258C66.0121 220.969 68.8226 218.792 72.0953 216.772C73.3717 217.917 74.1858 218.905 75 219.892C72.8912 222.002 70.7824 224.112 68.5865 226.757Z" fill="#4D0809"/>
<path d="M263.942 262.001C263.699 263.564 263.308 265.167 263.085 266.795C261.977 274.883 258.299 276.85 251.462 273.097C249.582 272.065 247.203 271.814 245.596 270.492C242.839 268.225 240.509 265.397 238 262.805C241.725 258.949 244.995 254.357 249.319 251.467C252.856 249.102 255.837 251.981 257.734 255.828C258.582 257.547 260.599 258.644 262.459 259.476C262.833 258.93 262.775 259.116 262.195 259.553C262.41 260.718 263.205 261.446 264 262.175C264 262.175 263.871 262.054 263.942 262.001ZM253.127 254.791C246.546 251.814 244.758 258.195 241.307 261.328C243.265 263.625 244.824 266.893 247.278 267.982C250.634 269.471 254.67 269.303 258.415 269.845C257.821 266.492 257.425 263.082 256.549 259.811C256.131 258.252 254.802 256.957 253.127 254.791Z" fill="#CB4E51"/>
<path d="M-2.52523 407.105C-0.676292 407.306 1.4672 406.88 2.95287 407.852C5.2084 409.327 7.00719 411.772 9 413.805C7.48082 415.739 6.1844 418.058 4.38328 419.504C2.35605 421.132 -0.0847492 422.78 -2.42112 422.946C-5.23929 423.147 -8.13682 421.8 -11 421.122C-10.0562 418.185 -9.2351 415.18 -8.10961 412.343C-7.64609 411.175 -6.52797 410.367 -4.92662 409C-3.60552 408.105 -3.06537 407.605 -2.52523 407.105Z" fill="#D53A3E"/>
<path d="M110.949 308.835C112.543 308.92 114.136 309.005 116.361 309.521C117.796 311.893 118.6 313.834 119.52 316.315C121.503 318.723 123.369 320.592 125.235 322.46C130.595 325.026 135.955 327.591 141.852 330.262C142.182 331.174 141.976 331.979 141.076 332.949C139.776 333.133 139.17 333.152 138.127 332.886C130.655 328.5 122.627 325.481 116.871 319.986C111.399 314.761 106.07 311.357 99 310.44C102.815 309.521 106.406 309.077 110.217 308.767C110.438 308.901 110.949 308.835 110.949 308.835Z" fill="#313131"/>
<path d="M58.4845 422.137C56.5844 417.426 60.7746 417.998 62.4102 417.283C66.997 415.281 73.5488 418.07 74.7209 422.378C76.1178 427.512 71.9975 428.714 68.4299 429.768C65.4277 430.654 62.2306 430.898 59.1198 431.426C58.9063 428.504 58.6928 425.583 58.4845 422.137Z" fill="#D53A3E"/>
<path d="M252.192 338.013C253.085 337.423 253.978 336.834 255.759 336.285C259.507 334.047 261.44 329.098 266 331.719C266 331.719 265.827 331.786 265.796 332.353C264 339.269 262.235 345.618 260.287 352.449C259.656 353.379 259.209 353.827 258.236 354.236C249.247 353.664 248.663 352.561 251.541 343.249C252.042 341.628 251.989 339.764 252.192 338.013Z" fill="#ED2424"/>
<path d="M119.457 316.169C118.647 314.196 117.837 312.224 117 309.823C118.433 308.045 119.894 306.695 121.484 304.863C123.214 303.403 124.814 302.424 127.432 301.367C130.468 301.355 132.487 301.422 134.505 301.49C135.096 301.935 135.686 302.38 136.733 303.455C137.793 305.664 138.397 307.244 139 308.824C137.804 309.814 136.608 310.804 134.496 311.88C131.893 312.835 130.206 313.704 128.519 314.574C127.811 314.901 127.102 315.228 125.648 315.811C123.088 316.101 121.272 316.135 119.457 316.169Z" fill="#D54144"/>
<path d="M139.388 181.252C139.82 182.712 139.987 183.751 140 185.86C139.759 187.716 139.672 188.501 139.586 189.285C135.478 189.631 131.144 190.982 127.342 189.964C124.856 189.298 122.681 185.462 121.265 182.53C120.498 180.942 121.613 178.27 121.896 175.533C127.65 176.929 133.386 178.88 139.388 181.252Z" fill="#F4918C"/>
<path d="M190.036 500.533C194.164 499.032 198.218 497.155 202.441 496.141C206.366 495.199 208.992 497.411 209 502.105C209.007 506.438 207.398 509.031 202.842 508.331C200.569 507.982 197.973 508.055 195.872 508.95C190.936 511.051 189.316 508.445 189 502.889C189.531 501.567 189.784 501.05 190.036 500.533Z" fill="#D54144"/>
<path d="M143.135 71.9531C143.865 72.6268 143.929 73.2725 144 74.4137C130.617 77.1043 117.76 80.8739 106 88.8257C106.466 85.3101 107.428 82.3142 108.391 79.3182C119.095 73.4245 130.573 71.5809 143.135 71.9531Z" fill="#151414"/>
<path d="M168.665 487.469C166.11 485.959 163.555 484.45 161 482.94C162.892 480.387 164.523 477.467 166.779 475.424C168.034 474.288 170.342 474.681 172.153 474.262C176.103 473.349 180.065 472.901 180.875 478.848C181.786 485.535 177.585 485.971 172.236 485.923C170.363 486.477 169.514 486.973 168.665 487.469Z" fill="#D54144"/>
<path d="M253 487.284C257.464 475.807 262.132 473.871 267.399 481.316C269.662 484.515 269.755 488.274 266.189 489.233C262.157 490.318 259.037 497.834 253.566 490.925C253.188 488.999 253.094 488.142 253 487.284Z" fill="#D53A3E"/>
<path d="M88.8745 211.3C88.8922 216.13 91.3129 216.889 95.5276 217.611C106.969 219.569 116.373 214.65 126.283 209.986C130.689 207.912 136.299 208.785 142 208.312C141.008 209.488 139.224 211.877 137.775 211.663C127.247 210.107 119.035 216.562 110.059 220.307C104.322 222.7 88.4891 218.559 86 213.201C86.8749 212.115 87.8747 211.708 88.8745 211.3Z" fill="#D54144"/>
<path d="M210 458.044C210.349 457.127 210.877 456.682 211.63 455.746C220.573 464.906 231.572 469.906 243 472.482C240.985 473.355 238.408 474.47 235.823 476.712C235.287 478.228 234.758 478.619 234.23 479.009C226.213 472.178 218.196 465.348 210 458.044Z" fill="#4F5050"/>
<path d="M66.09 453.262C67.1975 453.228 67.7115 453.3 68.204 453.233C78.4874 451.823 78.4869 451.82 77.6914 462.157C73.0928 462.886 68.4681 463.896 63.7919 464.201C62.2517 464.301 60.1133 462.883 59.1492 461.57C58.6168 460.844 59.6111 458.641 60.5237 457.56C61.8993 455.932 63.8057 454.703 66.09 453.262Z" fill="#DF3537"/>
<path d="M21 406.272C21.5011 404.927 22.2062 404.078 22.9063 402.655C24.8627 400.561 26.685 398.783 28.8218 397.588C31.2754 396.216 35.4483 393.752 36.3457 394.585C38.9235 396.98 40.6052 400.658 41.8572 404.124C42.4281 405.705 41.1604 407.975 40.292 410.595C38.0843 412.341 36.3112 413.425 34.538 414.508C33.0382 414.144 31.5158 413.397 30.0427 413.486C25.1272 413.786 22.4288 411.354 21 406.272ZM27.7569 403.163C27.0801 404.926 26.4033 406.69 25.7265 408.453C29.6463 408.222 33.6672 408.379 37.3863 407.375C38.0046 407.209 38.4553 400.879 36.9981 399.308C32.9879 394.984 30.7031 399.32 27.7569 403.163Z" fill="#CB4E51"/>
<path d="M120.467 293.569C118.363 293.63 116.464 292.984 115.149 293.661C108.041 297.316 106.449 293.185 106.043 286.212C105.824 285.679 106.471 285.668 107.287 285.592C109.555 284.59 111.007 283.664 112.459 282.738C112.74 282.762 113.021 282.786 114.033 283.046C115.55 283.037 116.335 282.792 117.121 282.548C117.746 282.483 118.371 282.418 120.009 282.331C127.057 282.763 125.939 287.57 125.93 291.701C125.549 292.087 125.167 292.473 124.139 293.135C123.275 293.553 123.059 293.696 122.842 293.838C122.209 293.717 121.575 293.595 120.467 293.569Z" fill="#D53A3E"/>
<path d="M46.0847 430.707C49.9869 436.041 53.889 441.375 58 446.995C51.2683 450.801 45.9378 450.174 42.5605 444.533C40.2336 440.647 38.1101 435.406 42.7811 430.388C44.2674 430.303 45.1761 430.505 46.0847 430.707ZM52.5019 444.164C50.7959 440.111 49.2283 435.869 42.1596 436.053C44.017 439.869 44.8872 443.039 46.755 444.966C47.8413 446.086 50.5274 445.211 52.5019 444.164Z" fill="#CB4E51"/>
<path d="M89.2667 211.205C87.9724 211.978 86.8883 212.368 85.5538 212.978C81.853 215.057 78.4027 216.915 74.4006 218.887C72.9945 218.067 72.1399 217.134 71 215.562C74.6161 211.163 78.5176 207.4 82.625 203.443C83.8727 203.213 85.5345 202.776 85.8518 203.213C87.429 205.387 88.6522 207.791 90 210.114C89.8257 210.35 89.6513 210.586 89.2667 211.205Z" fill="#4F5050"/>
<path d="M46.2853 430.226C45.3673 430.522 44.3384 430.322 42.9444 429.939C39.7608 425.072 36.9424 420.388 34 415.178C35.6876 413.572 37.4993 412.491 39.8631 411.335C43.9435 412.807 47.4717 414.354 51 415.902C50.8017 416.512 50.6033 417.121 50.4049 417.731C47.6581 416.868 44.9112 416.004 41.2414 414.799C40.1114 415.134 39.9044 415.811 39.6974 416.488C41.8564 420.902 44.0155 425.316 46.2853 430.226Z" fill="#484747"/>
<path d="M160 350.559C165.503 347.707 171.007 344.855 176.804 341.622C178.752 340.376 180.405 339.511 182.832 338.269C184.316 337.348 185.026 336.803 185.737 336.259C186.55 336.724 187.362 337.189 188 338.346C186.508 339.943 185.192 340.848 183.416 341.942C175.343 345.988 167.729 349.845 160.1 353.177C160.056 351.955 160.028 351.257 160 350.559Z" fill="#484747"/>
<path d="M407.589 256.953C410.781 248.317 403.556 245.702 399.241 242.194C394.469 238.315 389.128 240.07 383.789 243.465C383.217 243.534 383.129 243.44 383.179 242.923C383.152 241.381 383.076 240.355 383 239.328C385.525 238.916 388.051 238.507 390.575 238.092C397.554 236.945 407.231 241.656 409.791 248.454C410.634 250.694 408.732 254.095 407.589 256.953Z" fill="#CB4E51"/>
<path d="M139 444.189C140.31 443.959 141.746 444.288 143.561 444.919C148.294 453.956 152.647 462.69 157 471.424C156.333 471.838 155.667 472.252 155 472.665C149.709 463.359 144.418 454.054 139 444.189Z" fill="#313131"/>
<path d="M191 378.073C191.157 376.973 191.588 376.238 192.286 375.384C198.984 379.161 205.413 383.059 212 387.631C211.385 389.991 210.612 391.676 209.839 393.36C203.65 388.386 197.461 383.412 191 378.073Z" fill="#484747"/>
<path d="M160.038 351.062C160.558 351.709 160.587 352.442 160.835 354.229C163.982 356.042 166.91 356.8 169.839 357.558C169.96 358.741 170.08 359.925 169.93 361.636C166.056 361.65 162.452 361.136 158.211 360.658C155.709 358.681 153.845 356.667 152 354.264C152.944 353.441 153.87 353.007 154.797 352.573C156.38 352.098 157.963 351.623 160.038 351.062Z" fill="#313131"/>
<path d="M132.862 104.943C133.85 105.256 134.838 105.569 135.975 106.984C136.042 109.068 135.96 110.05 135.878 111.032C129.385 109.18 122.893 107.328 116 104.735C117.111 102.463 118.624 100.932 120.136 99.4004C122.765 100.326 125.394 101.252 128.597 103.055C130.402 104.269 131.632 104.606 132.862 104.943Z" fill="#120F0F"/>
<path d="M210 394.004C210.682 391.876 211.538 390.205 212.578 388.078C215.297 388.019 217.831 388.417 221 388.73C220.576 392.528 219.517 396.411 218.249 400.761C215.418 398.973 212.795 396.717 210 394.004Z" fill="#696A69"/>
<path d="M169 487.179C169.514 486.273 170.319 485.796 171.492 485.354C177.434 490.264 183.009 495.139 188.961 500.284C189.1 501.056 188.862 501.558 188.287 502.272C181.73 497.525 175.511 492.566 169 487.179Z" fill="#4F5050"/>
<path d="M62.804 366.924C67.9266 373.273 72.5157 379.678 77.5072 386.726C77.9096 387.369 78.1133 387.999 77.9351 388.316C77.4965 389.101 77.0935 389.322 76.2332 388.961C73.8475 386.27 71.7768 383.914 69.706 381.558C66.8584 377.523 64.0109 373.489 61 368.985C61.3145 368.004 61.7925 367.492 62.804 366.924Z" fill="#484747"/>
<path d="M258.008 353.609C258.637 353.181 259.265 352.754 260.788 352.129C262.122 352.082 262.561 352.231 263 352.38C263 359.535 263 366.691 263 373.846C262.091 374.006 261.183 374.166 260.274 374.326C259.031 368.843 257.788 363.36 257 356.948C257.64 355.216 257.824 354.412 258.008 353.609Z" fill="#313131"/>
<path d="M257.739 353.63C258.173 354.471 258.029 355.275 257.579 356.35C244.244 355.468 243.144 352.68 250.622 338.374C250.859 339.825 250.918 341.603 250.366 343.15C247.197 352.033 247.84 353.085 257.739 353.63Z" fill="#CB4E51"/>
<path d="M234 479.993C234.297 479.17 234.829 478.79 235.572 477.952C241.112 480.969 246.442 484.443 252.252 487.73C252.833 488.367 252.933 489.193 253 490.641C246.722 487.655 240.478 484.045 234 479.993Z" fill="#5E5E5E"/>
<path d="M262.728 352.069C262.061 352.209 261.754 352.059 261 351.644C262.291 345.268 264.028 339.157 265.851 332.419C266.484 331.9 267.031 332.009 268 332.129C266.643 338.686 264.866 345.231 262.728 352.069Z" fill="#CB4E51"/>
<path d="M77.2443 388.946C77.2443 388.946 77.0394 388.314 77 387.983C84.6756 385.378 87.8752 387.859 88.9879 397.486C89.0553 398.045 88.8309 398.428 88.566 398.928C88.1879 399.975 88.0747 400.522 87.9616 401.069C87.9616 401.069 87.6136 401.529 87.2435 402.037C86.1154 403.325 85.3574 404.106 84.5994 404.887C83.9884 404.972 83.3774 405.056 82.2884 404.914C81.8105 404.687 81.7085 404.094 81.9549 403.624C83.4062 399.73 85.68 396.204 85.3515 392.925C85.1945 391.358 80.1016 390.258 77.2443 388.946Z" fill="#CB4E51"/>
<path d="M394.729 254.731C395.108 255.532 395.043 256.067 394.818 256.953C392.151 256.053 389.752 254.153 387.112 253.683C381.579 252.696 380.286 249.373 381.332 243.74C382.249 243.146 382.81 243.187 383.372 243.228C383.372 243.228 383.461 243.319 383.507 243.364C382.902 247.466 383.942 250.179 388.364 251.183C390.469 251.661 392.318 253.333 394.729 254.731Z" fill="#CB4E51"/>
<path d="M109 80.3662C108.602 82.9268 107.661 85.5872 106.703 88.7786C106.156 89.8478 105.625 90.386 104.165 90.9403C101.491 89.9786 99.7453 89.001 98 88.0234C100.716 86.1076 103.433 84.1918 106.333 81.8937C107.163 81.1631 107.81 80.8146 109 80.3662Z" fill="#120F0F"/>
<path d="M119 100.157C117.996 101.938 116.603 103.405 115.109 105.397C114.093 105.872 113.176 105.821 111.873 105.478C113.043 98.7949 108.26 99.1987 105 97.2852C109.397 97.8317 114.004 98.8376 119 100.157Z" fill="#151414"/>
<path d="M314 402.12C314 403.026 314 403.931 314 404.837C313.489 405.24 312.978 405.644 312.467 406.048C309.536 402.548 306.605 399.048 304 394.802C304.746 393.471 305.167 392.886 305.588 392.302C306.989 393.886 308.39 395.471 310.215 397.779C311.76 399.709 312.88 400.914 314 402.12Z" fill="#484747"/>
<path d="M69 398.089C69.9542 396.047 70.9651 394.479 72.4637 393.359C71.9481 399.061 74.0205 402.293 79 403.903C78.953 404.224 78.8982 404.871 78.8982 404.871C77.3482 404.984 75.7981 405.098 73.4229 404.805C71.4343 403.087 70.271 401.777 69.1076 400.467C69.0907 399.832 69.0737 399.197 69 398.089Z" fill="#CB4E51"/>
<path d="M266 331.856C261.392 329.663 259.416 334.909 256 337.316C256.81 331.725 258.662 326.954 264.987 327.926C265.649 328.962 265.799 330.116 266 331.856Z" fill="#CB4E51"/>
<path d="M144 190.337C144.653 193.02 145.284 196.269 146 200.079C145.613 202.74 145.141 204.84 144.35 207.255C144.014 202.016 143.996 196.459 144 190.337Z" fill="#D54144"/>
<path d="M63.9354 137.858C63.5331 137.789 63.2098 137.454 63 137.396C64.2366 135.72 65.6831 134.102 67.5534 132.18C69.6351 134.871 71.2931 137.865 74 142.754C69.9414 140.727 67.1396 139.327 63.9354 137.858Z" fill="#151414"/>
<path d="M96.7909 88.9193C98.8879 89.8253 100.666 90.6768 103 91.5731C102.757 92.6495 101.959 93.6811 101.26 95.1706C98.4268 94.6577 95.4957 93.6868 92 92.727C92.6971 91.6007 93.9588 90.4632 95.5369 89.0119C95.8534 88.698 96.4722 88.8649 96.7909 88.9193Z" fill="#151414"/>
<path d="M76 179.763C72.5174 180.444 68.4382 180.93 64 180.799C67.5618 179.977 71.4826 179.772 76 179.763Z" fill="#1F1E1E"/>
<path d="M136.219 112.1C135.901 110.743 135.985 109.695 136.125 107.859C138.593 108.341 141.005 109.61 143.847 111.099C144.547 112.442 144.815 113.563 145 115.261C142.151 114.694 139.386 113.552 136.219 112.1Z" fill="#151414"/>
<path d="M59 179.763C55.9365 178.771 52.5044 177.421 49 175.533C52.1623 176.465 55.3968 177.935 59 179.763Z" fill="#1F1E1E"/>
<path d="M121 173.419C117.96 172.748 114.749 171.581 111 170.096C115.304 165.625 117.959 169.677 121 173.419Z" fill="#D54144"/>
<path d="M39.2093 167.074C38.5736 166.8 37.7868 166.124 37 165.448C38.8683 165.201 40.7365 164.954 43 164.959C41.9495 165.698 40.5038 166.185 39.2093 167.074Z" fill="#1F1E1E"/>
<path d="M95 105.744C95.1789 104.654 95.8326 103.613 96.4863 102.572C97.2936 103.112 98.101 103.652 99 104.609C97.8861 105.282 96.6804 105.539 95 105.744Z" fill="#151414"/>
<path d="M383 242.777C382.47 243.251 381.984 243.209 381.133 243.204C380.227 242.656 379.686 242.072 379 241.087C379.388 239.941 379.921 239.197 380.5 237.935C381.125 237.835 381.704 238.254 382.563 238.929C382.91 240.21 382.977 241.235 383 242.777Z" fill="#313131"/>
<path d="M86 123.72C86.3078 121.884 86.9366 119.711 88 117.376C87.73 119.27 87.0255 121.327 86 123.72Z" fill="#151414"/>
<path d="M100 173.419C99.7612 175.585 99.1752 177.603 98.2135 179.763C97.9187 178.717 97.9996 177.527 98.0481 175.418C98.0158 174.499 98.2865 173.817 98.2865 173.817C98.7419 173.635 99.1973 173.452 100 173.419Z" fill="#D54144"/>
<path d="M109 170.246C107.857 171.315 106.224 172.448 104 173.418C105.11 172.274 106.81 171.292 109 170.246Z" fill="#D54144"/>
<path d="M97.6888 173.419C98.28 173.433 97.878 174.492 97.7079 175.053C95.7937 176.118 94.0496 176.623 92 176.59C93.4955 175.169 95.2965 174.287 97.6888 173.419Z" fill="#1F1E1E"/>
<path d="M82 104.688C81.7788 105.934 81.1577 107.41 80 108.917C80.1757 107.605 80.8879 106.261 82 104.688Z" fill="#151414"/>
<path d="M81 133.237C81.0724 132.046 81.3773 130.581 82 129.008C81.956 130.254 81.5943 131.609 81 133.237Z" fill="#151414"/>
<path d="M133 105.741C131.951 105.782 130.564 105.48 129 104.699C130.103 104.613 131.383 105.005 133 105.741Z" fill="#151414"/>
<path d="M289 356.35C288.61 355.76 288.258 354.709 288 353.178C288.409 353.761 288.724 354.825 289 356.35Z" fill="#484747"/>
<path d="M89 176.591C88.6145 177.097 87.8935 177.502 87 177.648C87.4398 177.09 88.0522 176.789 89 176.591Z" fill="#1F1E1E"/>
<path d="M83 178.705C82.3945 179.271 81.313 179.67 80 179.762C80.687 179.15 81.6055 178.844 83 178.705Z" fill="#1F1E1E"/>
<path d="M304.89 392.302C305.197 393.098 304.841 393.638 304.085 394.417C303.866 393.785 304.046 392.916 304.89 392.302Z" fill="#151414"/>
<path d="M301 385.958C300.772 385.966 300.354 385.672 300 384.906C300.308 384.846 300.556 385.253 301 385.958Z" fill="#484747"/>
<path d="M82.454 202.978C79.5489 203.03 76.6412 203.455 74.1664 202.599C71.5971 201.71 69.4468 199.584 67 197.478C68.0049 188.313 68.7139 187.659 77.4814 188.485C80.566 188.776 83.5987 189.631 86.2459 190.745C82.434 190.844 79.0242 190.08 75.6314 190.151C73.9288 190.186 71.2281 191.404 70.8154 192.69C70.2115 194.57 71.0594 198.822 71.634 198.885C75.1568 199.277 79.1306 199.616 82.2443 198.28C84.4325 197.341 85.4939 193.717 87.0585 191.293C89.5319 192.44 92.0054 193.587 95 194.834C91.2961 197.944 86.8939 200.86 91.2067 207.05C91.4203 207.356 90.4406 208.513 89.5944 209.371C87.9444 207.208 86.8302 204.87 85.3934 202.755C85.1044 202.33 83.5906 202.755 82.454 202.978Z" fill="#D54144"/>
<path d="M96.1766 190.337C97.6257 191.056 98.4541 192.23 97.7382 193.509C95.9813 192.673 95.7685 191.732 96.1766 190.337Z" fill="#D54144"/>
<path d="M32.7216 243.208C30.6033 236.126 33.2372 231.475 39.4613 229.168C46.4263 226.586 53.4665 224.241 61 222.06C55.7955 227.206 50.1351 232.187 44.3009 236.918C41.8991 238.866 39.1236 240.277 36.1981 242.32C34.9788 242.866 34.0794 243.023 32.7216 243.208Z" fill="#D53A3E"/>
<path d="M264 260.126C263.027 260.01 262.287 259.647 262 259.068C263.046 259.195 263.64 259.536 264 260.126Z" fill="#FEFDFD"/>
<path d="M140.425 189.278C139.806 188.069 139.93 186.95 140.37 185.05C141.743 185.483 142.799 186.698 144 188.523C143.153 189.212 142.16 189.29 140.425 189.278Z" fill="#D54144"/>
<path d="M161.202 428.166C159.648 433.8 156.879 437.033 151.275 436.875C150.125 436.843 148.441 436.999 147.89 437.75C145.094 441.562 142.404 442.251 139.291 438.227C136.646 434.808 134.01 431.574 138.173 427.24C139.351 426.013 140.104 423.628 139.929 421.893C139.174 414.408 142.25 413.188 148.408 415.679C150.62 416.573 153.108 416.738 155.453 417.307C160.905 418.628 163.405 421.774 161.202 428.166Z" fill="#ED2424"/>
<path d="M99.3052 310.707C96.79 311.059 94.5086 310.903 91.7932 310.009C91.8459 307.226 92.3327 305.18 92.8088 303.178C89.5781 301.214 86.7278 299.482 83.8776 297.749C83.7148 296.891 83.5521 296.033 83.109 294.831C82.5257 292.756 81.8788 290.993 82.0195 289.302C82.1512 287.72 82.7626 285.362 83.8026 284.882C85.2367 284.221 87.9928 284.276 88.9197 285.297C92.2703 288.984 95.0835 293.212 98.1239 297.215C98.5748 297.809 99.1564 298.292 100.515 299.547C106.095 301.126 112.372 300.107 110.736 308.768C107.004 309.245 103.271 309.721 99.3052 310.707Z" fill="#DF3537"/>
<path d="M110.853 308.709C112.238 300.588 106.055 301.527 101 300.347C111.837 298.107 112.645 298.653 111.714 308.162C111.603 308.777 111.08 308.842 110.853 308.709Z" fill="#D54144"/>
<path d="M252.409 254.743C253.621 256.56 254.864 257.875 255.255 259.457C256.074 262.778 256.445 266.239 257 269.642C253.498 269.092 249.722 269.263 246.584 267.752C244.289 266.646 242.831 263.329 241 260.997C244.228 257.817 245.899 251.34 252.409 254.743Z" fill="#ED2424"/>
<path d="M27.3621 402.679C29.8773 399.349 32.1166 395.164 36.0468 399.337C37.475 400.853 37.0332 406.962 36.4272 407.123C32.7823 408.091 28.8416 407.94 25 408.163C25.6633 406.461 26.3266 404.759 27.3621 402.679Z" fill="#ED2424"/>
<path d="M53 444.356C50.9035 444.872 48.0454 445.751 46.8896 444.624C44.9023 442.687 43.9763 439.499 42 435.661C49.5212 435.476 51.1892 439.742 53 444.356Z" fill="#ED2424"/>
<path d="M82.3356 403.612C81.3625 404.019 80.6527 403.952 79.407 403.878C73.4605 402.629 71.2297 399.519 72.2308 393.813C73.2351 392.466 74.3181 391.771 75.5099 390.6C76.2049 390.15 76.638 389.926 77.1095 389.13C80.3548 390.131 85.798 391.24 85.9658 392.821C86.3168 396.128 83.8867 399.684 82.3356 403.612Z" fill="#ED2424"/>
<path d="M87.9953 191.508C86.2603 194.077 85.1009 197.871 82.7107 198.854C79.3097 200.253 74.9691 199.898 71.1211 199.488C70.4935 199.421 69.5674 194.97 70.227 193C70.6778 191.654 73.6277 190.379 75.4875 190.342C79.1934 190.267 82.918 191.067 87.2972 191.517C87.9595 191.527 88.0213 191.478 87.9953 191.508Z" fill="#ED2424"/>
</svg>
