<svg width="20" height="16" viewBox="0 0 20 16" fill="none" xmlns="http://www.w3.org/2000/svg">
<path d="M9.53348 4.76637C5.34712 4.60316 2.32153 2.04008 1.33202 0.77894C-0.114173 3.15285 1.51597 5.18057 2.51182 5.89769C2.11601 5.9422 1.16711 5.64422 0.742127 5.48967C0.879136 8.10097 2.93045 9.11236 3.93898 9.29164C3.39095 9.45484 2.55622 9.44619 2.20735 9.42146C2.90762 11.5283 4.94752 12.055 5.87993 12.055C4.12927 13.6277 1.23054 13.8231 0 13.7242C3.82481 15.9497 9.72377 16.3948 13.9292 12.4259C16.6743 9.41268 17.3039 7.49146 17.4685 3.82051C18.5494 3.06383 19.1875 2.19463 19.3714 1.85462C18.8995 2.12168 17.7286 2.33682 17.2021 2.411C18.1764 1.90655 18.7244 0.803668 18.8767 0.315285C18.3134 0.715883 16.9674 1.10041 16.3649 1.24259C15.3934 0.339897 14.7229 0.102211 13.3773 0C10.542 0.166916 9.13388 2.24409 9.53348 4.76637Z" fill="black"/>
</svg>
