<svg width="26" height="28" viewBox="0 0 26 28" fill="none" xmlns="http://www.w3.org/2000/svg">
<g id="Group 503">
<path id="hashi-1" d="M9.72014 13.1427C7.89144 15.7257 6.07615 18.2875 4.26475 20.8521C3.01527 22.6211 1.77072 24.3936 0.525549 26.1656C0.424417 26.3095 0.35337 26.4643 0.129488 26.3097C-0.0934334 26.1557 0.0171467 26.0494 0.122822 25.893C1.45815 23.9163 2.78657 21.935 4.11653 19.9547C5.31632 18.1682 6.51352 16.38 7.71608 14.5954C8.99229 12.7015 10.2755 10.8123 11.5519 8.91853C12.7475 7.14451 13.9372 5.36646 15.1314 3.59145C15.9057 2.44052 16.6796 1.28932 17.4665 0.147113C17.5276 0.0585003 17.6963 -0.0118639 17.8034 0.00167467C17.9516 0.0204143 18.1045 0.106049 18.2279 0.199639C18.592 0.475929 18.5972 0.559536 18.3332 0.933078C16.509 3.5148 14.6836 6.09576 12.861 8.67862C11.8168 10.1583 10.777 11.6411 9.72014 13.1427Z" fill="#181818"/>
<path id="hashi-2" d="M5.43108 23.7288C4.23313 24.9993 3.05371 26.2489 1.88186 27.5056C1.74089 27.6568 1.61395 27.7616 1.42679 27.6086C1.20685 27.4288 1.33944 27.269 1.47491 27.1185C3.03138 25.3883 4.59007 23.6602 6.14485 21.9285C8.3913 19.4264 10.6324 16.9196 12.8807 14.4192C14.9637 12.1027 17.0551 9.79368 19.1393 7.47811C21.0326 5.37459 22.9251 3.27034 24.8063 1.15598C25.0345 0.899456 25.2372 0.864757 25.491 1.06274C25.6223 1.16512 25.7409 1.28582 25.8547 1.40801C26.0533 1.62112 26.0527 1.79146 25.8264 2.0291C23.8827 4.06942 21.9539 6.12394 20.025 8.1783C18.5815 9.71567 17.1478 11.2622 15.7036 12.799C13.8897 14.7291 12.067 16.651 10.253 18.581C8.64913 20.2874 7.052 22.0002 5.43108 23.7288Z" fill="#181818"/>
</g>
</svg>
