<svg width="329" height="450" viewBox="0 0 329 450" fill="none" xmlns="http://www.w3.org/2000/svg">
<g id="Group 6">
<path id="hashi-2" d="M199.696 385.645C192.548 393.847 185.509 401.914 178.519 410.024C177.679 411 176.914 411.684 175.711 410.777C174.297 409.712 175.084 408.685 175.89 407.714C185.159 396.563 194.442 385.424 203.7 374.264C217.077 358.139 230.418 341.986 243.807 325.871C256.211 310.941 268.669 296.056 281.081 281.131C292.356 267.574 303.625 254.012 314.822 240.39C316.181 238.737 317.434 238.471 319.064 239.641C319.906 240.246 320.674 240.969 321.413 241.701C322.702 242.979 322.74 244.04 321.389 245.574C309.785 258.751 298.277 272.012 286.768 285.273C278.156 295.196 269.606 305.174 260.989 315.094C250.167 327.553 239.287 339.962 228.463 352.42C218.893 363.435 209.367 374.488 199.696 385.645Z" fill="black"/>
<path id="hashi-2_2" d="M44.5555 144.207C30.9091 144.024 17.4803 143.838 4.05094 143.733C2.43539 143.72 1.16055 143.544 1.05142 141.657C0.923211 139.441 2.54408 139.359 4.12708 139.344C22.3152 139.161 40.5035 139.001 58.6914 138.801C84.9705 138.511 111.249 138.164 137.528 137.894C161.876 137.644 186.224 137.482 210.572 137.243C232.69 137.026 254.808 136.801 276.924 136.457C279.607 136.415 280.879 137.399 281.082 139.907C281.187 141.204 281.119 142.525 281.018 143.826C280.841 146.096 279.858 146.993 277.293 146.945C255.273 146.538 233.249 146.292 211.225 146.044C194.744 145.858 178.262 145.777 161.781 145.585C141.08 145.342 120.381 145.005 99.6808 144.762C81.3786 144.546 63.0756 144.403 44.5555 144.207Z" fill="black"/>
<g id="Group 3">
<path id="Ellipse 2" d="M326.707 436.161C326.707 443.489 286.359 449.423 233.007 449.423C179.655 449.423 136.405 443.483 136.405 436.155C48.5093 407.139 176.753 422.894 230.105 422.894C283.457 422.894 326.707 428.834 326.707 436.161Z" fill="#640808" fill-opacity="0.07"/>
<path id="Vector 15" d="M288.42 288.563C290.564 289.462 292.709 290.36 292.709 293.055C292.709 295.75 285.234 297.4 280.271 299.343" stroke="#C9662E" stroke-width="3.13305" stroke-linecap="square" stroke-linejoin="round"/>
<path id="Vector 16" d="M278.612 146.77C273.498 151.745 263.106 161.778 262.442 162.11L258.711 173.719L265.759 175.377L280.27 223.056L316.341 211.862C318.268 174.767 312.048 159.085 278.612 146.77Z" fill="#890B0B" stroke="#8C2A2A" stroke-width="0.296812" stroke-linecap="square" stroke-linejoin="round"/>
<path id="Vector 17" d="M280.271 303.489C285.135 303.064 296.633 303.721 302.825 299.717C306.805 297.142 297.518 294.626 297.518 289.959C297.518 285.292 301.988 285.102 306.805 285.292" stroke="#C9662E" stroke-width="3.65523" stroke-linecap="square" stroke-linejoin="round"/>
<path id="Vector" d="M132.566 250.203C136.019 247.805 139.473 245.408 143.553 242.924C147.098 243.353 150.025 243.821 152.932 244.394C160.914 245.967 168.904 247.512 176.861 249.204C184.43 250.814 191.949 252.658 199.515 254.282C205.384 255.541 211.301 256.58 217.181 257.788C223.27 259.038 229.341 260.373 235.648 261.763C236.288 262.109 236.699 262.363 237.145 262.905C246.675 275.095 255.828 287.224 263.396 301.307C248.199 302.42 234.241 301.03 220.516 297.044C218.711 296.52 216.774 296.454 214.624 296.03C210.037 292.741 205.723 289.598 201.52 286.181C201.172 283.182 200.713 280.457 200.255 277.732C199.798 277.643 199.341 277.554 198.885 277.465C197.576 279.669 196.267 281.872 194.577 284.139C184.343 282.392 174.142 290.482 174.648 302.006C174.861 306.838 174.166 311.705 170.641 315.579C167.345 320.603 164.049 325.627 160.365 331.242C141.585 316.181 125.216 300.72 116.07 278.429C116.138 276.833 117.266 274.361 117.332 273.637C119.405 274.881 118.991 278.429 122.158 276.406C122.196 277.129 121.745 277.574 121.893 277.946C128.344 294.202 139.51 306.927 152.372 318.33C154.091 319.853 156.392 320.719 159.255 322.368C159.016 320.048 159.176 318.736 158.728 317.683C152.88 303.955 146.009 290.739 137.233 278.612C134.484 274.814 130.693 271.77 127.35 268.024C127.206 265.235 128.283 262.152 127.232 260.234C125.755 257.54 126.535 255.783 127.87 253.734C129.024 252.914 130.179 252.095 131.709 251.035C132.329 250.666 132.49 250.469 132.566 250.203Z" fill="#C51717"/>
<path id="Vector_2" d="M256.012 112.997L256.023 112.99V112.913C256.023 112.888 256.022 112.864 256.021 112.848L256.021 112.847C256.02 112.845 256.019 112.829 256.012 112.811C256.01 112.805 256.006 112.794 255.998 112.781C255.991 112.77 255.971 112.741 255.93 112.723C255.878 112.701 255.825 112.713 255.791 112.736C255.763 112.754 255.749 112.776 255.744 112.784C255.734 112.802 255.729 112.818 255.729 112.821C255.727 112.827 255.726 112.832 255.725 112.835C255.725 112.835 255.725 112.836 255.725 112.836C251.869 115.527 248.234 118.788 244.456 122.177C243.579 122.964 242.693 123.759 241.796 124.554C237.01 128.796 231.869 133.084 225.664 136.6L225.649 136.609L225.636 136.621C220.362 141.599 214.31 146.158 208.244 150.727L207.767 151.087C201.544 155.775 195.328 160.486 189.96 165.677C185.951 169.554 181.407 172.887 176.864 176.219C175.559 177.176 174.255 178.133 172.964 179.102C166.73 183.781 159.804 189.197 153.199 194.361C150.412 196.54 147.682 198.675 145.085 200.691C144.271 201.323 143.811 201.865 143.495 202.263C143.453 202.317 143.414 202.366 143.377 202.413C143.275 202.543 143.193 202.649 143.114 202.734C143.01 202.847 142.931 202.902 142.851 202.924C142.773 202.946 142.67 202.941 142.506 202.879C142.34 202.817 142.126 202.703 141.835 202.523C141.498 202.317 141.072 202.032 140.511 201.659C140.098 201.384 139.613 201.06 139.038 200.684C136.422 198.973 133.608 197.075 130.712 195.122C125.649 191.707 120.338 188.125 115.407 185.081C114.784 184.567 114.236 184.057 113.715 183.573C113.52 183.391 113.329 183.213 113.139 183.04C112.444 182.406 111.771 181.838 111.012 181.414C109.473 180.555 108.4 179.546 107.737 178.317C107.073 177.088 106.811 175.624 106.921 173.844C107.004 172.495 106.904 171.138 106.754 169.785C106.696 169.262 106.631 168.742 106.566 168.223C106.462 167.394 106.359 166.569 106.286 165.742C106.288 164.424 106.29 163.118 106.619 161.525C113.843 167.616 122.317 169.701 131.347 170.262C132.585 170.339 133.591 170.188 134.307 169.631C135.028 169.07 135.421 168.126 135.496 166.705C136.247 152.452 143.469 141.361 153.362 131.813C167.682 117.992 184.278 107.521 202.503 99.5872C205.325 98.3586 208.149 97.1333 210.972 95.9079C212.265 95.347 213.557 94.786 214.85 94.2247L214.969 94.1727L214.933 94.0475L214.683 93.1795L214.659 93.097L214.576 93.0765L210.776 92.1406C222.229 90.7001 233.608 91.3172 244.942 93.4718C245.557 93.5886 246.184 93.629 246.882 93.6597C247.023 93.6659 247.167 93.6717 247.314 93.6777C247.893 93.7011 248.526 93.7267 249.251 93.7868C250.084 94.1155 250.482 94.3758 250.67 94.6707C249.565 94.5857 248.501 94.4384 247.458 94.2939C247.258 94.2662 247.059 94.2386 246.86 94.2116C245.549 94.0332 244.265 93.8795 242.98 93.8876C241.245 93.8984 239.483 93.8396 237.714 93.7749C237.557 93.7692 237.4 93.7634 237.243 93.7576C235.631 93.6981 234.013 93.6385 232.408 93.6273C228.886 93.6028 225.415 93.8113 222.168 94.7718C211.483 97.9331 201.08 102.478 191.121 107.537C174.768 115.842 159.754 126.198 148.072 140.722C142.161 148.07 138.574 156.433 137.452 165.803C137.366 166.523 137.344 167.175 137.42 167.733C137.497 168.291 137.673 168.765 137.991 169.119C138.634 169.834 139.787 169.986 141.593 169.512C143.814 168.929 146.088 168.538 148.368 168.146C148.499 168.123 148.631 168.101 148.762 168.078C151.172 167.663 153.586 167.235 155.933 166.564C156.077 166.523 156.221 166.482 156.365 166.441C163.961 164.274 171.746 162.053 175.552 153.746C176.077 152.6 177.145 151.649 178.176 150.731C178.286 150.633 178.396 150.536 178.504 150.438C181.51 147.74 184.508 145.032 187.506 142.325C196.008 134.646 204.51 126.968 213.188 119.495C223.657 110.481 235.432 103.68 248.987 100.305C250.101 100.028 251.206 99.7127 252.318 99.3955C252.594 99.3167 252.871 99.2378 253.148 99.1593C254.507 98.7745 255.884 98.3996 257.315 98.0964C257.71 98.901 258.04 99.671 258.359 100.416L258.367 100.434C258.702 101.215 259.026 101.97 259.399 102.7C260.374 104.612 261.243 106.474 261.334 108.262C261.424 110.032 260.752 111.747 258.592 113.371L258.551 113.403C258.53 113.406 258.502 113.409 258.464 113.412L258.43 113.414L258.4 113.431C257.995 113.66 257.436 113.903 256.933 114.122C256.683 114.231 256.447 114.333 256.25 114.425C256.244 114.424 256.235 114.419 256.223 114.406C256.197 114.38 256.167 114.328 256.138 114.245C256.08 114.08 256.046 113.847 256.028 113.611C256.01 113.377 256.009 113.153 256.012 113.013C256.012 113.008 256.012 113.003 256.012 112.997ZM219.08 92.9396L219.377 92.728L219.017 92.6721L216.76 92.3221L216.601 92.2976L216.589 92.4572L216.523 93.3039L216.51 93.4638H216.671L216.69 93.4638C217.49 93.4639 218.345 93.4639 219.08 92.9396Z" fill="#F34B16" stroke="#F34B16" stroke-width="0.296812"/>
<path id="Vector_3" d="M220.976 307.505L220.976 307.515L220.977 307.525C221.124 308.407 221.187 309.219 221.248 310.037L221.254 310.111C221.313 310.901 221.373 311.698 221.507 312.563C221.516 313.483 221.503 314.369 221.49 315.232C221.467 316.792 221.445 318.275 221.556 319.739C221.895 324.216 222.25 328.692 222.605 333.167L222.606 333.178C222.962 337.658 223.317 342.137 223.657 346.617C223.724 347.502 223.729 348.393 223.733 349.291L223.733 349.342C223.737 350.221 223.741 351.105 223.804 351.986C223.872 352.951 223.94 353.916 224.009 354.882C224.69 364.47 225.37 374.055 225.751 383.648C221.757 384.463 219.212 382.491 216.759 380.132C203.521 365.213 190.382 350.207 180.446 332.816C178.989 330.265 177.82 327.547 176.714 324.785C176.399 323.998 176.089 323.208 175.778 322.417C174.999 320.432 174.219 318.443 173.355 316.501C173.281 316.333 173.143 316.206 172.98 316.105C172.817 316.005 172.618 315.923 172.404 315.851C172.189 315.779 171.951 315.714 171.71 315.647L171.699 315.645C171.53 315.598 171.358 315.551 171.188 315.5C174.334 311.617 175.006 306.777 174.796 302.001C174.294 290.579 184.4 282.559 194.796 284.396C197.395 285.158 199.367 285.872 201.339 286.588C205.643 289.724 209.946 292.86 214.569 296.378C215.08 297 215.604 297.601 216.122 298.194C217.081 299.293 218.019 300.367 218.816 301.512C220.04 303.268 220.912 305.164 220.976 307.505Z" fill="#783E3E" stroke="#783E3E" stroke-width="0.296812"/>
<path id="Vector_4" d="M261.726 364.8L261.862 364.973L261.972 364.782L265.978 357.774C259.05 377.493 252.114 397.221 244.888 417.354C244.178 418.787 243.63 420.068 243.12 421.293C243.025 421.519 242.932 421.744 242.84 421.967C242.443 422.924 242.057 423.857 241.618 424.817H241.617H241.615H241.613H241.611H241.608H241.606H241.604H241.602H241.599H241.597H241.594H241.592H241.59H241.587H241.585H241.582H241.58H241.577H241.574H241.572H241.569H241.566H241.564H241.561H241.558H241.555H241.553H241.55H241.547H241.544H241.541H241.538H241.535H241.532H241.529H241.526H241.523H241.52H241.516H241.513H241.51H241.507H241.503H241.5H241.497H241.493H241.49H241.487H241.483H241.48H241.476H241.473H241.469H241.465H241.462H241.458H241.454H241.451H241.447H241.443H241.439H241.436H241.432H241.428H241.424H241.42H241.416H241.412H241.408H241.404H241.4H241.395H241.391H241.387H241.383H241.378H241.374H241.37H241.365H241.361H241.357H241.352H241.348H241.343H241.338H241.334H241.329H241.325H241.32H241.315H241.31H241.306H241.301H241.296H241.291H241.286H241.281H241.276H241.271H241.266H241.261H241.256H241.251H241.245H241.24H241.235H241.23H241.224H241.219H241.214H241.208H241.203H241.197H241.192H241.186H241.18H241.175H241.169H241.163H241.158H241.152H241.146H241.14H241.134H241.128H241.123H241.117H241.11H241.104H241.098H241.092H241.086H241.08H241.074H241.067H241.061H241.055H241.048H241.042H241.035H241.029H241.022H241.016H241.009H241.003H240.996H240.989H240.983H240.976H240.969H240.962H240.955H240.948H240.941H240.934H240.927H240.92H240.913H240.906H240.899H240.891H240.884H240.877H240.87H240.862H240.855H240.847H240.84H240.832H240.825H240.817H240.809H240.802H240.794H240.786H240.778H240.771H240.763H240.755H240.747H240.739H240.731H240.723H240.715H240.706H240.698H240.69H240.682H240.673H240.665H240.657H240.648H240.64H240.631H240.623H240.614H240.605H240.597H240.588H240.579H240.57H240.561H240.553H240.544H240.535H240.526H240.517H240.508H240.498H240.489H240.48H240.471H240.461H240.452H240.443H240.433H240.424H240.414H240.405H240.395H240.386H240.376H240.366H240.356H240.347H240.337H240.327H240.317H240.307H240.297H240.287H240.277H240.267H240.256H240.246H240.236H240.226H240.215H240.205H240.194H240.184H240.173H240.163H240.152H240.141H240.131H240.12H240.109H240.098H240.087H240.076H240.066H240.054H240.043H240.032H240.021H240.01H239.999H239.987H239.976H239.965H239.953H239.942H239.93H239.919H239.907H239.895H239.884H239.872H239.86H239.848H239.836H239.824H239.812H239.8H239.788H239.776H239.764H239.752H239.74H239.727H239.715H239.703H239.69H239.678H239.665H239.652H239.64H239.627H239.614H239.602H239.589H239.576H239.563H239.55H239.537H239.524H239.511H239.498H239.485H239.471H239.458H239.445H239.431H239.418H239.404H239.391H239.377H239.363H239.35H239.336H239.322H239.308H239.295H239.281H239.267H239.253H239.238H239.224H239.21H239.196H239.182H239.167H239.153H239.138H239.124H239.109H239.095H239.08H239.066H239.051H239.036H239.021H239.006H238.991H238.976H238.961H238.946H238.931H238.916H238.901H238.885H238.87H238.855H238.839H238.824H238.808H238.792H238.777H238.761H238.745H238.73H238.714H238.698H238.682H238.666H238.65H238.634H238.617H238.601H238.585H238.569H238.552H238.536H238.519H238.503H238.486H238.469H238.453H238.436H238.419H238.402H238.385H238.368H238.351H238.334H238.317H238.3H238.283H238.265H238.248H238.231H238.213H238.196H238.178H238.16H238.143H238.125H238.107H238.089H238.072H238.054H238.036H238.018H237.999H237.981H237.963H237.945H237.926H237.908H237.89H237.871H237.852H237.834H237.815H237.796H237.778H237.759H237.74H237.721H237.702H237.683H237.664H237.645H237.625H237.606H237.587H237.567C237.148 424.817 236.691 424.816 236.318 424.733C235.942 424.649 235.708 424.494 235.645 424.228C233.741 416.156 231.837 408.085 229.928 399.34C229.672 397.929 229.574 396.52 229.509 395.129C229.493 394.779 229.479 394.429 229.464 394.081C229.422 393.048 229.38 392.028 229.286 391.032C229.036 388.38 228.414 385.874 226.405 383.693C226.211 381.04 226.017 378.387 225.822 375.734C225.241 367.811 224.661 359.888 224.101 351.963C224.039 351.092 224.035 350.216 224.031 349.335L224.031 349.287C224.027 348.392 224.021 347.49 223.953 346.592C223.614 342.112 223.258 337.632 222.903 333.153L222.902 333.143C222.547 328.667 222.192 324.192 221.853 319.715C221.689 317.557 221.662 315.39 221.86 313.018C225.416 317.198 228.698 321.585 231.983 325.976C232.202 326.268 232.42 326.56 232.639 326.852C233.779 328.375 234.917 329.899 236.055 331.423C239.743 336.362 243.432 341.302 247.181 346.194C250.483 350.503 253.84 354.769 257.227 359.073C258.722 360.972 260.222 362.879 261.726 364.8Z" fill="#A05858" stroke="#A05858" stroke-width="0.296812"/>
<path id="Vector_5" d="M266.596 355.903C265.052 358.793 263.58 361.372 261.823 364.444C260.364 362.581 258.908 360.731 257.459 358.889C254.072 354.586 250.717 350.322 247.417 346.016C243.668 341.124 239.981 336.186 236.293 331.248C235.155 329.723 234.017 328.199 232.876 326.676C232.377 326.009 231.878 325.341 231.378 324.673C228.307 320.565 225.221 316.437 221.939 312.252C221.365 310.776 221.034 309.386 221.089 307.719C224.336 307.516 227.188 307.455 230 307.751L230.016 307.603L230 307.751C232.223 307.985 234.442 308.323 236.664 308.661C237.568 308.799 238.472 308.936 239.377 309.067C242.503 309.519 245.635 309.887 248.77 309.879C253.702 309.865 258.632 309.612 263.556 309.332C264.199 309.295 264.841 309.258 265.483 309.221C269.718 308.977 273.948 308.733 278.177 308.624C278.256 309.739 278.347 310.566 278.437 311.387C277.928 313.54 277.433 315.695 276.939 317.85C275.813 322.754 274.688 327.656 273.39 332.513C272.006 337.689 270.476 342.824 268.916 348.058C268.145 350.643 267.367 353.253 266.596 355.903Z" fill="#C51717" stroke="#C51717" stroke-width="0.296812"/>
<path id="Vector_6" d="M144.838 242.833C144.62 242.797 144.4 242.762 144.179 242.725C148.286 239.439 152.612 236.176 156.966 232.892C158.101 232.036 159.238 231.178 160.373 230.318C161.172 229.714 161.915 229.029 162.898 228.125C163.431 227.634 164.035 227.078 164.757 226.435L164.993 226.224L164.68 226.177C162.43 225.839 161.201 225.655 159.837 225.374C160.154 225.154 160.5 224.926 160.866 224.734C161.343 224.483 161.844 224.3 162.345 224.273C166.394 224.06 170.447 223.879 174.501 223.699C180.505 223.431 186.511 223.163 192.507 222.79C193.359 222.737 194.185 222.38 195.025 221.988C195.118 221.945 195.212 221.901 195.306 221.857C196.035 221.513 196.784 221.161 197.6 220.945C197.877 221.321 198.057 221.671 198.22 221.989L198.228 222.005C198.397 222.333 198.554 222.64 198.787 222.878C201.501 225.657 204.231 228.42 206.961 231.181C211.947 236.226 216.931 241.269 221.812 246.412C225.046 249.819 228.103 253.389 231.164 256.963C232.442 258.456 233.721 259.95 235.013 261.433C233.311 261.068 231.608 260.702 229.905 260.335C225.677 259.424 221.448 258.513 217.21 257.643C214.659 257.119 212.104 256.627 209.551 256.136C206.211 255.493 202.873 254.851 199.545 254.137C195.876 253.35 192.217 252.51 188.557 251.671L188.221 251.594C184.45 250.728 180.677 249.864 176.891 249.059C170.2 247.636 163.487 246.318 156.776 244.999C155.504 244.749 154.232 244.499 152.96 244.248C150.346 243.733 147.716 243.304 144.838 242.833Z" fill="#A30404" stroke="#A30404" stroke-width="0.296812"/>
<path id="Vector_7" d="M261.236 173.895C263.839 174.255 265.336 175.494 266.345 177.13C267.178 178.481 267.678 180.098 268.183 181.734C268.296 182.097 268.408 182.462 268.525 182.825C269.333 185.337 270.153 187.844 270.973 190.351C273.312 197.501 275.65 204.648 277.692 211.88C278.826 215.896 279.568 219.303 280.123 223.491C280.15 223.69 280.151 223.947 280.148 224.244C280.147 224.308 280.146 224.373 280.145 224.439C280.141 224.68 280.137 224.937 280.143 225.195C280.158 225.835 280.236 226.52 280.572 226.999C284.111 241.544 284.888 256.697 283.865 271.81C278.576 271.029 273.722 270.019 268.806 268.552C268.754 267.037 268.742 265.49 268.729 263.953C268.708 261.235 268.686 258.547 268.446 256.118C267.558 247.129 266.664 238.122 265.298 229.193C263.774 219.228 261.875 209.313 259.857 199.437C258.78 194.165 257.493 188.935 256.207 183.708C255.643 181.414 255.079 179.121 254.532 176.826C256.248 175.348 257.962 173.872 259.935 172.382C260.165 172.606 260.346 172.894 260.518 173.167C260.53 173.186 260.542 173.206 260.554 173.225C260.653 173.382 260.752 173.535 260.854 173.652C260.955 173.767 261.079 173.873 261.236 173.895ZM261.236 173.895L261.256 173.748M261.236 173.895L261.256 173.748M261.256 173.748C266.078 174.415 267.204 178.061 268.327 181.697C268.439 182.059 268.551 182.421 268.667 182.78C269.474 185.29 270.293 187.796 271.113 190.302C273.452 197.453 275.792 204.605 277.835 211.84C278.97 215.862 279.714 219.276 280.27 223.472C280.305 223.729 280.299 224.07 280.293 224.443C280.28 225.297 280.263 226.325 280.709 226.936M261.256 173.748C261.039 173.718 260.857 173.428 260.64 173.084C260.451 172.781 260.234 172.437 259.944 172.189L280.709 226.936M280.709 226.936C284.259 241.511 285.038 256.694 284.012 271.832L280.709 226.936Z" fill="#A30404" stroke="#A30404" stroke-width="0.296812"/>
<path id="Vector_8" d="M288.491 84.6225L288.502 84.6206L288.513 84.617C289.429 84.3113 289.846 84.0341 290.253 83.7608C291.323 83.3118 292.388 82.8241 293.451 82.3376C294.192 81.9985 294.931 81.66 295.67 81.3355C297.48 80.5407 299.302 79.823 301.184 79.3596C302.214 79.1061 303.387 79.177 304.582 79.4182C305.776 79.6592 306.982 80.0677 308.075 80.48C312.611 82.1912 317.086 84.0615 321.563 85.933C323.292 86.6556 325.021 87.3783 326.754 88.0921L326.749 89.2713C319.474 90.6154 312.197 91.9589 304.23 93.2526C301.76 93.5487 299.99 93.8953 298.224 94.2411L298.224 94.2411L298.224 94.2409L298.216 94.2428L298.21 94.2445C298.007 94.2954 297.797 94.348 297.047 94.3395L297.032 94.3394L297.016 94.3423C294.559 94.8282 292.246 95.3594 290 95.8789C289.885 95.9056 289.769 95.9323 289.654 95.9589C287.529 96.4506 285.462 96.929 283.382 97.3465C282.417 97.5403 281.421 97.8016 280.421 98.0664C280.375 98.0786 280.329 98.0908 280.283 98.1031C279.328 98.3562 278.37 98.6098 277.428 98.8109C275.45 99.2331 273.563 99.4169 271.94 98.8878C268.934 97.9082 266.073 96.4744 263.25 94.9006C262.042 94.2273 260.838 93.526 259.632 92.8241C258.029 91.8907 256.423 90.956 254.805 90.0841C254.803 90.082 254.795 90.072 254.784 90.0424C254.769 90.0015 254.758 89.9443 254.748 89.8713C254.741 89.8188 254.736 89.7644 254.731 89.7072C254.728 89.6849 254.726 89.6621 254.724 89.6389C254.719 89.5888 254.713 89.5368 254.705 89.4862C254.727 89.4782 254.759 89.4682 254.804 89.4574L254.845 89.4475L254.875 89.4172C255.22 89.0652 255.322 88.7665 255.409 88.4888C256.397 87.3478 257.354 86.1595 258.308 84.9735C258.98 84.1401 259.65 83.3078 260.329 82.494C261.987 80.508 263.711 78.6168 265.677 77.0296C266.718 76.1891 268.169 75.7971 269.766 75.5714C270.562 75.4588 271.389 75.3883 272.213 75.3223C272.299 75.3153 272.386 75.3085 272.472 75.3016C273.207 75.2431 273.937 75.185 274.632 75.1005C279.152 74.5507 283.684 74.1101 288.219 73.6693C290.057 73.4906 291.896 73.3119 293.734 73.1258L294.057 73.5547L294.336 73.9253C290.576 76.4528 286.814 78.9793 282.54 81.5812C281.581 82.075 281.141 82.4948 280.713 82.9073C280.595 82.9779 280.457 83.0565 279.84 83.2534L279.825 83.2581L279.811 83.2657C278.705 83.8941 277.81 84.5006 276.983 85.0608C276.506 85.3841 276.051 85.692 275.592 85.9799C273.178 87.4928 270.747 88.9781 268.315 90.464C267.347 91.0556 266.379 91.6473 265.411 92.2408L265.3 92.3092L265.354 92.4284L265.855 93.5367L265.909 93.6572L266.035 93.617C266.582 93.4424 267.14 93.283 267.701 93.1227C268.948 92.7666 270.207 92.4068 271.378 91.8696C274.109 90.6159 276.799 89.2682 279.487 87.9218C280.57 87.3791 281.653 86.8366 282.738 86.3005C283.09 86.2709 283.454 86.2423 284.342 86.2557L284.366 86.2561L284.389 86.2489C285.661 85.8491 286.383 85.4031 287.091 84.9628C287.392 84.8599 287.699 84.7565 288.491 84.6225Z" fill="#F34B16" stroke="#F34B16" stroke-width="0.296812"/>
<path id="Vector_9" d="M261.079 111.518C260.863 111.695 260.646 111.874 260.424 112.053C261.39 110.787 261.701 109.464 261.604 108.105C261.47 106.244 260.571 104.329 259.599 102.424L259.599 102.424C259.231 101.704 258.911 100.959 258.569 100.143C258.521 100.028 258.472 99.9114 258.423 99.7934C258.123 99.0762 257.8 98.3037 257.411 97.4521L257.403 97.4343L257.39 97.4192C256.994 96.9396 256.664 96.5793 256.355 96.2468C256.306 96.1942 256.258 96.1423 256.21 96.0909C255.954 95.8167 255.708 95.5533 255.442 95.2434L255.418 95.2157L255.384 95.2023C254.338 94.7871 253.413 94.6405 252.273 94.5074L252.273 94.507L252.263 94.5066C251.764 94.4826 251.472 94.4478 251.186 94.4123C250.795 94.1206 250.394 93.8245 249.786 93.4631C251.02 92.1435 252.504 90.8966 254.25 89.6346C254.336 89.7246 254.385 89.8329 254.427 89.9443C254.434 89.9645 254.442 89.9865 254.45 90.0091C254.468 90.0587 254.487 90.1113 254.505 90.1533C254.532 90.2145 254.577 90.2978 254.663 90.344L254.733 90.2133L254.663 90.344C256.282 91.2166 257.876 92.145 259.474 93.0751C260.679 93.7769 261.886 94.4795 263.106 95.1598C265.935 96.737 268.816 98.1816 271.848 99.17C273.55 99.7246 275.502 99.5255 277.491 99.1011C278.44 98.8985 279.404 98.6432 280.357 98.3906C280.404 98.3781 280.451 98.3657 280.498 98.3533C281.498 98.0883 282.486 97.8293 283.441 97.6375C285.638 97.1964 287.822 96.6875 290.026 96.1713L290.273 96.1134C292.371 95.6219 294.489 95.1258 296.659 94.676C297.41 95.4412 298.109 96.2106 298.797 96.9672C298.952 97.1374 299.106 97.307 299.26 97.4757C300.115 98.412 300.965 99.3212 301.88 100.162C303.083 101.268 304.42 102.236 305.749 103.198C306.301 103.598 306.851 103.996 307.389 104.402L306.986 105.494C306.569 105.495 306.152 105.498 305.736 105.501C304.766 105.509 303.799 105.516 302.832 105.489C299.947 105.407 297.06 105.292 294.173 105.178C286.849 104.886 279.519 104.594 272.21 104.847C270.665 104.901 269.148 105.7 267.673 106.696C267.004 107.149 266.339 107.645 265.68 108.137C265.611 108.188 265.542 108.24 265.474 108.291C264.746 108.833 264.028 109.362 263.316 109.819C262.554 110.306 261.851 110.882 261.133 111.473L261.079 111.518Z" fill="#9F3210" stroke="#9F3210" stroke-width="0.296812"/>
<path id="Vector_10" d="M268.851 268.662C273.791 269.78 278.731 270.898 284.003 272.013C284.333 275.867 284.332 279.725 283.99 284.037C283.387 285.607 283.124 286.723 282.849 288.128C282.879 288.981 282.922 289.544 282.965 290.108C282.907 291.307 282.848 292.506 282.718 294.37C282.077 296.084 281.508 297.133 280.69 298.248C278.377 298.941 276.348 299.918 274.242 300.127C268.709 300.678 268.461 300.712 268.433 295.275C268.387 286.464 268.17 277.459 268.183 268.662C268.278 268.676 268.851 268.662 268.851 268.662Z" fill="#C51717"/>
<path id="Vector_11" d="M279.662 83.6451C280.695 84.2761 281.487 84.9537 282.356 85.8556C278.728 87.9537 275.032 89.8665 271.254 91.6004L271.316 91.7353L271.254 91.6004C270.105 92.1279 268.882 92.4772 267.646 92.83C267.122 92.9796 266.595 93.13 266.071 93.2948L265.678 92.4259C266.608 91.8559 267.538 91.2873 268.469 90.7187C270.901 89.2325 273.334 87.7458 275.75 86.2319C276.304 85.8844 276.844 85.5134 277.4 85.1319C277.485 85.0732 277.571 85.0143 277.657 84.9552C278.283 84.526 278.936 84.0848 279.662 83.6451Z" fill="#9F3210" stroke="#9F3210" stroke-width="0.296812"/>
<path id="Vector_12" d="M207.436 91.9268C207.198 92.4486 206.668 93.1263 206.038 93.2376C197.342 94.773 188.632 96.2305 179.637 97.6262C180.916 96.8844 182.427 95.9084 184.061 95.6165C191.721 94.2477 199.415 93.0671 207.436 91.9268Z" fill="#C37549"/>
<path id="Vector_13" d="M298.571 94.5617C300.019 94.04 301.786 93.6942 303.889 93.3955C302.447 93.8743 300.668 94.3059 298.571 94.5617Z" fill="#765848"/>
<path id="Vector_14" d="M255.125 88.5547C255.187 88.6945 255.1 88.9742 254.795 89.3261C254.642 89.1256 254.775 88.8909 255.125 88.5547Z" fill="#765848"/>
<path id="Vector_15" d="M244.204 264.26L244.192 264.258L244.179 264.258C244.162 264.257 244.112 264.247 244.026 264.217C243.947 264.19 243.855 264.154 243.767 264.117C243.679 264.08 243.596 264.043 243.535 264.015C243.508 264.002 243.485 263.992 243.468 263.984C242.087 262.156 240.761 260.317 239.446 258.493C236.491 254.394 233.587 250.367 230.218 246.689C224.493 240.441 218.448 234.316 212.427 228.215C208.824 224.565 205.23 220.923 201.717 217.268C206.572 213.441 211.538 209.622 216.498 205.808C220.644 202.619 224.787 199.433 228.857 196.248C235.344 191.172 241.891 186.177 248.976 181.3C249.47 181.67 249.887 181.987 250.205 182.294C250.541 182.617 250.752 182.916 250.832 183.235C251.403 185.517 251.982 187.797 252.561 190.078C254.521 197.801 256.481 205.522 258.135 213.309C259.946 221.836 261.438 230.457 262.525 239.105C263.44 246.383 264.016 253.703 264.592 261.021C264.784 263.454 264.975 265.887 265.179 268.318C265.113 268.298 265.03 268.278 264.922 268.264C262.193 267.738 259.512 267.218 256.85 266.701C252.624 265.882 248.447 265.071 244.204 264.26Z" fill="#631919" stroke="#631919" stroke-width="0.296812"/>
<path id="Vector_16" d="M251.118 183.161L251.118 183.161C251.019 182.766 250.763 182.421 250.45 182.076C250.304 181.915 250.142 181.751 249.973 181.579C249.959 181.565 249.946 181.552 249.932 181.538C249.776 181.379 249.614 181.214 249.449 181.036C250.698 179.629 252.215 178.419 253.996 177.12C256.057 184.51 258.026 191.959 259.566 199.495C261.583 209.37 263.481 219.278 265.004 229.236C266.369 238.157 267.261 247.156 268.15 256.146C268.39 258.574 268.411 261.017 268.434 263.566C268.447 265.007 268.46 266.482 268.513 268.008C268.235 268.182 268.106 268.284 268.049 268.35C267.594 268.352 267.187 268.349 266.811 268.346C266.323 268.342 265.89 268.339 265.479 268.347C265.198 265.206 264.948 262.065 264.699 258.926C264.173 252.298 263.648 245.674 262.818 239.066C261.73 230.41 260.236 221.781 258.423 213.246C256.768 205.453 254.806 197.724 252.845 190C252.267 187.72 251.688 185.441 251.118 183.161ZM268.189 268.354C268.197 268.356 268.217 268.362 268.237 268.377C268.196 268.411 268.171 268.435 268.157 268.453L268.157 268.395C268.157 268.35 268.157 268.35 268.157 268.35H268.157L268.158 268.35L268.16 268.35L268.163 268.35L268.17 268.35C268.175 268.351 268.181 268.352 268.189 268.354Z" fill="#AD480F" stroke="#AD480F" stroke-width="0.296812"/>
<path id="Vector_17" d="M198.118 220.76C199.155 219.532 200.254 218.56 201.612 217.545C211.286 227.273 220.842 236.897 229.997 246.889C234.654 251.971 238.671 257.642 242.691 263.317C242.805 263.477 242.918 263.637 243.031 263.797C240.918 263.505 239.048 262.994 237.169 262.48C236.768 262.232 236.362 261.982 235.741 261.645C233.857 259.558 232.034 257.457 230.223 255.372C227.515 252.252 224.835 249.165 222.028 246.208C217.145 241.063 212.156 236.016 207.169 230.97C204.44 228.209 201.711 225.448 199 222.671C198.803 222.469 198.663 222.201 198.527 221.861C198.462 221.699 198.399 221.525 198.332 221.338C198.328 221.328 198.325 221.319 198.322 221.309C198.259 221.136 198.193 220.952 198.118 220.76Z" fill="#AD480F" stroke="#AD480F" stroke-width="0.296812"/>
<path id="Vector_18" d="M173.546 203.9C172.274 204.41 171.302 204.841 170.13 205.361C168.461 202.63 167.788 200.882 171.582 199.367C177.045 197.186 182.222 194.289 187.968 192.36C184.439 197.686 179.73 201.462 173.546 203.9Z" fill="#765848"/>
<path id="Vector_19" d="M265.67 295.445C265.633 295.022 265.596 294.6 265.554 293.792C265.489 285.169 265.428 276.928 265.367 268.69C265.733 268.683 266.088 268.675 266.46 268.667C266.905 268.657 267.375 268.646 267.922 268.636C268.292 277.397 268.399 286.156 268.444 294.918L268.445 295.014C268.452 296.323 268.457 297.33 268.543 298.09C268.632 298.866 268.809 299.421 269.193 299.781C269.578 300.142 270.141 300.278 270.926 300.298C271.713 300.319 272.759 300.222 274.139 300.085C275.209 299.979 276.256 299.678 277.318 299.32C277.692 299.194 278.066 299.061 278.444 298.927C279.077 298.703 279.721 298.475 280.391 298.268C279.932 301.341 279.345 304.981 278.494 308.325C268.51 309.145 258.585 309.556 248.769 309.582C245.656 309.591 242.542 309.225 239.419 308.774C238.519 308.644 237.617 308.507 236.715 308.369C234.491 308.03 232.261 307.691 230.031 307.456C228.099 307.253 226.145 307.217 224.084 307.179C223.123 307.161 222.139 307.143 221.124 307.107C220.611 303.288 218.403 300.522 216.144 297.692C215.847 297.32 215.55 296.948 215.256 296.571C216.99 296.613 218.792 296.7 220.474 297.188C234.217 301.179 248.193 302.57 263.406 301.457L263.634 301.44L263.526 301.238C256.012 287.255 246.944 275.151 237.495 263.057C238.333 263.184 239.152 263.366 240.027 263.565C240.082 263.578 240.138 263.59 240.194 263.603C241.146 263.82 242.167 264.052 243.347 264.249L243.359 264.251H243.371C243.564 264.251 243.675 264.283 243.742 264.321C243.804 264.356 243.84 264.404 243.867 264.468C243.889 264.519 243.901 264.571 243.917 264.634C243.924 264.661 243.931 264.689 243.939 264.72C243.964 264.814 244.001 264.925 244.082 265.022C245.002 266.368 245.87 267.594 246.711 268.78L246.784 268.884C247.649 270.105 248.486 271.287 249.321 272.522C250.209 273.835 251.097 275.147 251.987 276.461C256.048 282.458 260.123 288.477 264.221 294.652L264.228 294.662L264.236 294.672C264.672 295.136 265.065 295.366 265.445 295.587L265.447 295.588L265.695 295.732L265.67 295.447L265.67 295.445Z" fill="#F4782A" stroke="#C9662E" stroke-width="0.296812"/>
<path id="Vector_20" d="M121.91 276.895C121.906 276.763 121.902 276.618 121.894 276.459C122.359 275.939 122.858 275.512 123.343 275.097C123.364 275.078 123.386 275.06 123.407 275.042C123.922 274.601 124.422 274.167 124.823 273.652C125.844 272.343 126.642 270.86 127.537 269.198C127.622 269.041 127.707 268.882 127.794 268.721C128.361 269.231 128.939 269.74 129.52 270.253C132.372 272.769 135.31 275.362 137.553 278.461C146.318 290.574 152.744 304.016 158.591 317.741C158.805 318.242 158.876 318.811 158.922 319.56C158.935 319.766 158.945 319.986 158.957 320.221C158.983 320.76 159.013 321.38 159.08 322.097C158.199 321.598 157.37 321.169 156.599 320.77C156.202 320.564 155.82 320.367 155.454 320.171C154.309 319.56 153.316 318.969 152.471 318.219C139.617 306.823 128.47 294.117 122.031 277.891C121.966 277.728 121.939 277.543 121.925 277.299C121.918 277.184 121.915 277.058 121.911 276.916L121.91 276.895Z" fill="#650C0C" stroke="#650C0C" stroke-width="0.296812"/>
<path id="Vector_21" d="M250.837 95.1887L250.855 95.19L250.873 95.1868C251.156 95.1363 251.361 95.1218 251.577 95.1464C251.795 95.1713 252.033 95.2371 252.381 95.358L252.381 95.3581L252.387 95.36C253.647 95.7369 254.517 95.913 255.377 96.0853C255.849 96.5201 256.316 96.9538 256.827 97.5937C254.205 98.65 251.555 99.5476 248.851 100.221C235.242 103.609 223.426 110.436 212.93 119.474C207.569 124.09 202.365 128.847 197.156 133.609C196.66 134.063 196.163 134.517 195.667 134.971C189.958 140.187 184.223 145.394 178.245 150.418L178.245 150.418L178.241 150.421C178.133 150.519 178.022 150.617 177.91 150.716C176.888 151.626 175.77 152.619 175.217 153.826C171.403 162.15 163.6 164.658 155.85 166.872C153.523 167.536 151.112 167.865 148.684 168.183C148.59 168.195 148.496 168.208 148.401 168.22C146.071 168.525 143.728 168.831 141.453 169.428C139.664 169.898 138.669 169.705 138.147 169.124C137.882 168.83 137.721 168.419 137.65 167.896C137.578 167.374 137.597 166.75 137.682 166.042C138.798 156.728 142.253 148.362 148.129 141.057C159.776 126.578 174.86 116.299 191.19 108.005C201.14 102.951 211.525 98.4146 222.188 95.2601C225.392 94.312 228.829 94.1033 232.341 94.1278C233.941 94.1389 235.554 94.1984 237.168 94.2579C237.325 94.2637 237.482 94.2695 237.638 94.2752C239.407 94.3399 241.175 94.399 242.917 94.3881C244.18 94.3801 245.445 94.5311 246.755 94.7094C246.952 94.7362 247.151 94.7637 247.35 94.7914C248.472 94.9467 249.629 95.107 250.837 95.1887Z" fill="#FFA976" stroke="#FFA976" stroke-width="0.296812"/>
<path id="Vector_22" d="M218.988 92.9265C218.233 93.1748 217.42 93.1748 216.606 93.1748C216.629 92.8926 216.651 92.6103 216.673 92.3281C217.425 92.4448 218.177 92.5615 218.988 92.9265Z" fill="#F5C9B3"/>
<path id="Vector_23" d="M255.328 95.3394C254.575 95.4276 253.702 95.253 252.656 94.8601C253.392 94.7867 254.301 94.9316 255.328 95.3394Z" fill="#C37549"/>
<path id="Vector_24" d="M256.104 266.915C259.134 267.612 262.177 268.312 265.093 268.879C265.467 277.149 265.702 286.355 265.494 294.968C265.316 295.136 265.195 295.223 265.109 295.272C265.084 295.286 265.061 295.298 265.039 295.307C263.685 293.312 262.331 291.318 260.977 289.324C257.41 284.072 253.844 278.82 250.287 273.562L250.071 273.708L250.287 273.562C248.71 271.231 246.05 267.22 244.311 264.45C247.477 264.967 250.892 265.722 254.359 266.515C254.939 266.647 255.522 266.781 256.104 266.915Z" fill="#7C3636" stroke="#7C3636" stroke-width="0.522175"/>
<path id="Vector 18" d="M118.991 227.203L111.528 182.425L140.965 201.912L187.4 167.5L255.395 113.602L261.2 170.402L193.205 223.056L118.991 227.203Z" fill="#FFFDFC" stroke="white" stroke-width="0.296812"/>
<path id="Vector 19" d="M168.328 203.984L166.67 199.838L188.229 189.888L189.058 190.302L176.206 200.667L168.328 203.984Z" fill="black" stroke="black" stroke-width="0.296812"/>
<path id="Vector 20" d="M127.282 205.072V200.926L108.625 195.691V197.194L121.063 204.657L127.282 205.072Z" fill="black" stroke="black" stroke-width="0.296812"/>
<path id="Vector 21" d="M120.557 277.783L129.357 271.68L128.752 259.476L126.277 256.861L124.517 259.04L122.317 245.529H118.797L119.677 259.912L117.918 243.785H113.958L115.278 257.297L111.758 259.476L113.518 262.527L110.878 260.348L107.798 262.527L120.557 277.783Z" fill="#412424"/>
<path id="Vector 22" d="M235.493 436.162V424.553H243.926C252.512 429.536 259.54 434.089 260.369 434.822C261.198 435.556 260.369 436.162 260.369 436.162H235.493Z" fill="#233342" stroke="#253542" stroke-width="0.296812"/>
<path id="Vector 23" d="M296.442 150.916L294.783 153.403L279.028 146.77V141.795H274.468V135.576L288.979 128.527V139.307L303.49 140.551V141.795H305.978L305.148 150.916H296.442Z" fill="#3C1818" stroke="#3C1818" stroke-width="0.296812" stroke-linecap="square" stroke-linejoin="round"/>
<path id="Vector 24" d="M145.959 139.306C169.432 114.968 186.821 106.916 215.612 93.2848L218.515 92.8702L212.296 92.041H210.223C197.37 93.6994 189.907 94.114 179.957 97.4308C154.758 107.411 140.518 116.442 114.864 140.549C109.889 146.354 108.231 151.744 106.157 160.865C105.287 164.23 133.521 172.888 134.35 169.572C135.179 166.255 137.87 149.013 145.959 139.306Z" fill="#FFA976" stroke="#FFA976" stroke-width="0.296812" stroke-linecap="square" stroke-linejoin="round"/>
<path id="Vector 25" d="M221.928 384.044C221.497 383.464 220.549 382.13 220.204 381.434H219.341L218.91 388.393L225.378 407.968H228.827V394.048H229.69L227.965 383.609L221.928 384.044Z" fill="#213440" stroke="#233342" stroke-width="0.296812" stroke-linecap="square" stroke-linejoin="round"/>
</g>
</g>
</svg>
